<?xml version="1.0" encoding="utf-8"?>
<!-- Generator: Adobe Illustrator 16.0.0, SVG Export Plug-In . SVG Version: 6.00 Build 0)  -->
<!DOCTYPE svg PUBLIC "-//W3C//DTD SVG 1.1//EN" "http://www.w3.org/Graphics/SVG/1.1/DTD/svg11.dtd">
<svg version="1.1" id="Layer_1" xmlns="http://www.w3.org/2000/svg" xmlns:xlink="http://www.w3.org/1999/xlink" x="0px" y="0px"
	 width="2560.671px" height="1438.817px" viewBox="0 0 2560.671 1438.817" enable-background="new 0 0 2560.671 1438.817"
	 xml:space="preserve">
<g>
	<g id="europe-countries">
		<g id="poland">
			
				<polygon fill="#FFFFFF" stroke="#000000" stroke-width="0.7369" stroke-linecap="square" stroke-linejoin="bevel" stroke-miterlimit="10" points="
				898.406,1256.805 900.668,1250.217 899.79,1246.122 897.422,1245.114 895.883,1239.868 897.658,1235.372 895.146,1229.465 
				896.314,1226.249 890.873,1220.942 893.072,1217.518 893.803,1212.147 892.275,1205.432 891.646,1202.245 891.723,1201.12 
				909.615,1195.209 913.811,1194.6 917.425,1189.434 925.268,1185.877 937.298,1183.844 939.938,1191.307 942.926,1193.11 
				951.614,1190.987 951.879,1191.131 953.499,1191.479 971.404,1193.606 986.639,1192.881 988.955,1192.465 994.088,1196.485 
				994.602,1200.776 999.357,1218.194 999.446,1223.018 993.417,1227.315 990.846,1231.534 996.34,1236.522 995.716,1245.096 
				996.594,1249.344 1001.549,1257.29 999.594,1258.11 1001.332,1262.04 996.971,1265.229 990.24,1272.655 985.207,1279.946 
				986.338,1284.106 984.111,1287.606 978.252,1285.219 973.626,1281.542 967.627,1281.784 965.875,1283.93 959.747,1282.278 
				956.564,1285.938 954.006,1285.704 953.287,1282.036 949.627,1278.737 946.787,1281.924 943.008,1280.163 939.991,1273.391 
				934.163,1270.909 931.799,1272.059 929.206,1269.065 921.279,1264.274 921.503,1268.034 919.329,1270.18 913.823,1264.77 
				916.357,1261.834 904.518,1258.321 903.362,1254.885 			"/>
		</g>
		<g id="czech_republic">
			
				<polygon fill="#FFFFFF" stroke="#000000" stroke-width="0.7369" stroke-linecap="square" stroke-linejoin="bevel" stroke-miterlimit="10" points="
				921.887,1295.362 921.291,1293.571 916.477,1292.133 912.066,1292.993 904.287,1289.209 900.628,1288.631 899.855,1292.409 
				896.007,1295.202 891.264,1295.745 887.379,1292.77 877.678,1283.268 874.525,1281.737 872.096,1277.11 873.1,1273.432 
				869.993,1270.733 872.764,1265.081 877.518,1264.774 880.9,1261.651 892.678,1256.518 898.406,1256.805 903.362,1254.885 
				904.518,1258.321 916.357,1261.834 913.823,1264.77 919.329,1270.18 921.503,1268.034 921.279,1264.274 929.206,1269.065 
				931.799,1272.059 934.163,1270.909 939.991,1273.391 943.008,1280.163 939.85,1280.565 935.918,1284.094 934.41,1288.243 
				930.385,1291.377 923.73,1291.784 			"/>
		</g>
		<g id="slovakia">
			
				<polygon fill="#FFFFFF" stroke="#000000" stroke-width="0.7369" stroke-linecap="square" stroke-linejoin="bevel" stroke-miterlimit="10" points="
				924.332,1305.475 920.766,1299.665 921.887,1295.362 923.73,1291.784 930.385,1291.377 934.41,1288.243 935.918,1284.094 
				939.85,1280.565 943.008,1280.163 946.787,1281.924 949.627,1278.737 953.287,1282.036 954.006,1285.704 956.564,1285.938 
				959.747,1282.278 965.875,1283.93 967.627,1281.784 973.626,1281.542 978.252,1285.219 984.111,1287.606 979.602,1298.833 
				974.846,1299.776 971.693,1296.098 968.534,1297.172 961.732,1296.743 959.775,1300.62 954.755,1303.52 950.541,1302.217 
				949.898,1304.204 942.944,1304.868 942.997,1308.7 940.633,1309.667 931.215,1309.872 			"/>
		</g>
		<g id="hungary">
			
				<polygon fill="#FFFFFF" stroke="#000000" stroke-width="0.7369" stroke-linecap="square" stroke-linejoin="bevel" stroke-miterlimit="10" points="
				958.645,1336.37 950.93,1335.446 947.812,1338.379 942.631,1339.594 938.382,1342.168 932.252,1341.645 926.801,1339.194 
				924.18,1335.319 918.139,1330.571 914.702,1324.217 912.639,1324.211 916.995,1321.985 916.411,1315.358 919.311,1313.208 
				917.59,1309.713 923.082,1310.487 924.332,1305.475 931.215,1309.872 940.633,1309.667 942.997,1308.7 942.944,1304.868 
				949.898,1304.204 950.541,1302.217 954.755,1303.52 959.775,1300.62 961.732,1296.743 968.534,1297.172 971.693,1296.098 
				974.846,1299.776 979.602,1298.833 987.848,1306.438 985.172,1309.381 980.957,1310.209 978.076,1313.754 972.666,1326.54 
				970.467,1328.243 968.805,1333.446 965.133,1333.735 962.646,1336.118 			"/>
		</g>
		<g id="slovenia">
			
				<polygon fill="#FFFFFF" stroke="#000000" stroke-width="0.7369" stroke-linecap="square" stroke-linejoin="bevel" stroke-miterlimit="10" points="
				886.1,1329.758 895.266,1331.678 898.842,1328.36 911.266,1326.069 912.639,1324.211 914.702,1324.217 918.139,1330.571 
				914.643,1329.692 911.589,1333.436 907.617,1334.672 908.03,1340.708 904.01,1341.928 903.385,1346.737 898.382,1346.696 
				895.547,1343.512 893.573,1346.372 884.697,1346.438 886.083,1344.627 885.516,1335.403 882.387,1333.481 			"/>
		</g>
		<g id="croatia">
			
				<polygon fill="#FFFFFF" stroke="#000000" stroke-width="0.7369" stroke-linecap="square" stroke-linejoin="bevel" stroke-miterlimit="10" points="
				945.102,1356.196 942.962,1356.172 940.604,1352.719 936.467,1351.866 932.023,1353.249 924.516,1351.694 921.533,1349.842 
				916.999,1350.692 915.309,1353.909 911.643,1350.657 909.498,1350.745 908.52,1356.961 910.971,1358.813 913.594,1364.104 
				913.01,1366.504 917.312,1369.327 922.223,1375.928 925.311,1377.797 925.852,1380.667 929.023,1383.307 928.898,1385.706 
				921.172,1378.715 915.32,1376.469 912.539,1377.614 910.741,1374.438 905.385,1370.76 901.989,1366.54 903.311,1363.864 
				899.143,1358.79 898.441,1352.211 892.8,1348.506 891.08,1354.198 888.162,1357.581 884.821,1351.547 884.697,1346.438 
				893.573,1346.372 895.547,1343.512 898.382,1346.696 903.385,1346.737 904.01,1341.928 908.03,1340.708 907.617,1334.672 
				911.589,1333.436 914.643,1329.692 918.139,1330.571 924.18,1335.319 926.801,1339.194 932.252,1341.645 938.382,1342.168 
				942.631,1339.594 944.182,1341.668 944.453,1348.01 946.516,1350.657 			"/>
		</g>
		<g id="bosnia_and_herzegovina">
			
				<polygon fill="#FFFFFF" stroke="#000000" stroke-width="0.7369" stroke-linecap="square" stroke-linejoin="bevel" stroke-miterlimit="10" points="
				929.689,1386.536 928.898,1385.706 929.023,1383.307 925.852,1380.667 925.311,1377.797 922.223,1375.928 917.312,1369.327 
				913.01,1366.504 913.594,1364.104 910.971,1358.813 908.52,1356.961 909.498,1350.745 911.643,1350.657 915.309,1353.909 
				916.999,1350.692 921.533,1349.842 924.516,1351.694 932.023,1353.249 936.467,1351.866 940.604,1352.719 942.962,1356.172 
				945.102,1356.196 948.896,1356.145 945.82,1364.069 951.518,1368.76 949.986,1376.153 947.2,1377.042 944.76,1376.387 
				941.364,1380.95 938.623,1387.45 938.623,1391.417 			"/>
		</g>
		<g id="serbia">
			
				<polygon fill="#FFFFFF" stroke="#000000" stroke-width="0.7369" stroke-linecap="square" stroke-linejoin="bevel" stroke-miterlimit="10" points="
				956.54,1391.487 956.54,1388.286 959.954,1387.25 955.414,1383.483 951.809,1382.063 947.2,1377.042 949.986,1376.153 
				951.518,1368.76 945.82,1364.069 948.896,1356.145 945.102,1356.196 946.516,1350.657 944.453,1348.01 944.182,1341.668 
				942.631,1339.594 947.812,1338.379 950.93,1335.446 958.645,1336.37 962.24,1339.819 964.709,1346.483 972.536,1351.782 
				971.256,1357.417 977.893,1359.762 979.867,1362.09 983.038,1362.09 985.479,1366.098 981.995,1372.231 983.928,1377.62 
				989.066,1381.928 986.145,1386.489 982.832,1387.575 984.116,1392.655 981.973,1395.053 976.266,1394.954 964.566,1398.653 
				962.287,1401.653 961.573,1396.709 958.516,1395.004 			"/>
		</g>
		<g id="montenegro">
			
				<polygon fill="#FFFFFF" stroke="#000000" stroke-width="0.7369" stroke-linecap="square" stroke-linejoin="bevel" stroke-miterlimit="10" points="
				938.623,1391.417 938.623,1387.45 941.364,1380.95 944.76,1376.387 947.2,1377.042 951.809,1382.063 955.414,1383.483 
				959.954,1387.25 956.54,1388.286 956.54,1391.487 951.407,1391.762 947.859,1397.163 948.737,1402.149 943.321,1395.719 
				939.155,1393.167 			"/>
		</g>
		<g id="albania">
			
				<polygon fill="#FFFFFF" stroke="#000000" stroke-width="0.7369" stroke-linecap="square" stroke-linejoin="bevel" stroke-miterlimit="10" points="
				955.857,1433.745 954.165,1428.653 949.663,1425.995 949.691,1421.084 948.064,1419.901 950.357,1410.961 949.568,1408.704 
				951.289,1402.786 948.737,1402.149 947.859,1397.163 951.407,1391.762 956.54,1391.487 958.516,1395.004 961.573,1396.709 
				962.287,1401.653 960.967,1407.334 963.961,1416.028 966.654,1416.817 967.303,1421.084 964.525,1423.02 963.146,1427.885 
				959.245,1429.401 960.307,1431.528 958.184,1434.375 			"/>
		</g>
		<g id="macedonia">
			
				<polygon fill="#FFFFFF" stroke="#000000" stroke-width="0.7369" stroke-linecap="square" stroke-linejoin="bevel" stroke-miterlimit="10" points="
				962.287,1401.653 964.566,1398.653 976.266,1394.954 981.973,1395.053 987.051,1399.485 989.355,1403.987 988.295,1409.663 
				986.104,1412.403 977.669,1412.762 973.491,1416.569 966.654,1416.817 963.961,1416.028 960.967,1407.334 			"/>
		</g>
		<g id="greece">
			
				<polygon fill="#FFFFFF" stroke="#000000" stroke-width="0.7369" stroke-linecap="square" stroke-linejoin="bevel" stroke-miterlimit="10" points="
				955.857,1433.745 958.184,1434.375 960.307,1431.528 959.245,1429.401 963.146,1427.885 964.525,1423.02 967.303,1421.084 
				966.654,1416.817 973.491,1416.569 977.669,1412.762 986.104,1412.403 988.295,1409.663 996.033,1409.133 1001.131,1406.608 
				1005.268,1406.557 1009.077,1409.51 1013.867,1410.965 1023.828,1409.475 1023.139,1404.147 1026.279,1404.2 1028.596,1405.68 
				1029.009,1409.829 1025.878,1411.249 1026.274,1415.379 1022.771,1418.575 1022.525,1417.202 1013.145,1415.551 
				1008.98,1416.872 1004.473,1415.647 1001.102,1418.838 998.337,1417.825 996.653,1419.399 999.075,1423.956 996.175,1425.938 
				992.479,1426.118 987.895,1423.524 987.424,1420.637 984.411,1422.528 984.229,1428.452 987.424,1432.442 988.354,1438.512 
				987.057,1439.848 988.955,1443.04 988.495,1447.188 994.943,1450.77 996.498,1452.905 1000.919,1455.073 1000.477,1462.694 
				995.25,1458.096 991.637,1458.167 990.158,1460.045 990.439,1465.557 986.545,1463.573 985.997,1465.034 990.275,1474.979 
				988.672,1478.413 986.598,1474.581 981.871,1475.961 979.614,1471.542 977.145,1472.159 977.498,1474.598 974.641,1474.338 
				973.278,1470.909 974.039,1465.639 970.002,1460.856 968.062,1460.012 971.098,1454.842 973.532,1455.698 976.303,1453.028 
				983.874,1456.221 987.487,1458.668 991.501,1455.657 985.572,1453.258 977.346,1452.043 972.825,1453.364 970.803,1451.708 
				968.658,1453.588 966.701,1448.331 963.872,1446.438 963.312,1442.579 958.131,1437.368 			"/>
			
				<polygon fill="#FFFFFF" stroke="#000000" stroke-width="0.7369" stroke-linecap="square" stroke-linejoin="bevel" stroke-miterlimit="10" points="
				1000.654,1452.657 996.133,1451.909 995.632,1449.75 991.206,1446.049 992.385,1443.122 995.573,1447.004 1001.803,1448.678 
				1002.174,1452.28 			"/>
			
				<polygon fill="#FFFFFF" stroke="#000000" stroke-width="0.7369" stroke-linecap="square" stroke-linejoin="bevel" stroke-miterlimit="10" points="
				962.08,1451.213 964.756,1456.198 959.534,1455.022 			"/>
			
				<polygon fill="#FFFFFF" stroke="#000000" stroke-width="0.7369" stroke-linecap="square" stroke-linejoin="bevel" stroke-miterlimit="10" points="
				996.57,1496.168 994.784,1495.209 995.32,1492.055 1000.553,1492.016 1003.118,1494.272 1010.779,1493.723 1018.512,1494.565 
				1020.191,1497.696 1025.614,1495.375 1024.93,1498.715 1008.463,1499.938 1008.115,1497.985 1004.45,1496.647 			"/>
		</g>
		<g id="bulgaria">
			
				<polygon fill="#FFFFFF" stroke="#000000" stroke-width="0.7369" stroke-linecap="square" stroke-linejoin="bevel" stroke-miterlimit="10" points="
				1044.597,1400.161 1039.676,1401.247 1035.945,1398.252 1029.162,1400.297 1026.279,1404.2 1023.139,1404.147 1023.828,1409.475 
				1013.867,1410.965 1009.077,1409.51 1005.268,1406.557 1001.131,1406.608 996.033,1409.133 988.295,1409.663 989.355,1403.987 
				987.051,1399.485 981.973,1395.053 984.116,1392.655 982.832,1387.575 986.145,1386.489 989.066,1381.928 983.928,1377.62 
				981.995,1372.231 985.479,1366.098 989.428,1368.792 987.564,1371.95 993.7,1371.79 1002.198,1374.415 1005.664,1373.241 
				1015.388,1375.356 1019.914,1373.983 1023.787,1369.834 1033.764,1367.293 1037.878,1369.233 1043.589,1369.51 
				1044.426,1371.731 1050.914,1373.454 1049.766,1378.874 1046.118,1378.704 1043.199,1384.297 1043.276,1389.348 
				1041.49,1389.223 1038.351,1392.813 1040.89,1393.633 			"/>
		</g>
		<g id="romania">
			
				<polygon fill="#FFFFFF" stroke="#000000" stroke-width="0.7369" stroke-linecap="square" stroke-linejoin="bevel" stroke-miterlimit="10" points="
				985.479,1366.098 983.038,1362.09 979.867,1362.09 977.893,1359.762 971.256,1357.417 972.536,1351.782 964.709,1346.483 
				962.24,1339.819 958.645,1336.37 962.646,1336.118 965.133,1333.735 968.805,1333.446 970.467,1328.243 972.666,1326.54 
				978.076,1313.754 980.957,1310.209 985.172,1309.381 987.848,1306.438 990.405,1304.204 994.59,1305.979 1002.834,1307.272 
				1006.27,1306.459 1010.064,1310.344 1014.888,1307.063 1024.034,1305.93 1025.795,1302.758 1029.314,1301.409 1033.369,1303.1 
				1036.682,1311.323 1042.21,1319.614 1045.327,1322.383 1047.201,1331.36 1045.487,1338.338 1046.831,1346.959 1052.223,1350.569 
				1057.994,1347.321 1061.979,1347.903 1062.901,1350.698 1062.284,1356.444 1053.271,1358.459 1051.593,1364.506 
				1050.914,1373.454 1044.426,1371.731 1043.589,1369.51 1037.878,1369.233 1033.764,1367.293 1023.787,1369.834 
				1019.914,1373.983 1015.388,1375.356 1005.664,1373.241 1002.198,1374.415 993.7,1371.79 987.564,1371.95 989.428,1368.792 			
				"/>
		</g>
		<g id="moldova">
			
				<polygon fill="#FFFFFF" stroke="#000000" stroke-width="0.7369" stroke-linecap="square" stroke-linejoin="bevel" stroke-miterlimit="10" points="
				1029.314,1301.409 1030.058,1300.03 1041.826,1298.204 1045.404,1301.657 1053.402,1303.6 1057.486,1306.438 1058.395,1309.549 
				1057.038,1313.125 1060.126,1317.35 1062.183,1317.545 1061.906,1322.95 1066.311,1326.28 1065.514,1329.622 1062.213,1332.168 
				1057.792,1329.463 1054.805,1331.313 1055.188,1338.11 1049.889,1343.524 1050.331,1345.647 1046.831,1346.959 
				1045.487,1338.338 1047.201,1331.36 1045.327,1322.383 1042.21,1319.614 1036.682,1311.323 1033.369,1303.1 			"/>
		</g>
		<g id="ukraine">
			
				<polygon fill="#FFFFFF" stroke="#000000" stroke-width="0.7369" stroke-linecap="square" stroke-linejoin="bevel" stroke-miterlimit="10" points="
				1062.901,1350.698 1061.979,1347.903 1057.994,1347.321 1052.223,1350.569 1046.831,1346.959 1050.331,1345.647 
				1049.889,1343.524 1055.188,1338.11 1054.805,1331.313 1057.792,1329.463 1062.213,1332.168 1065.514,1329.622 1066.311,1326.28 
				1061.906,1322.95 1062.183,1317.545 1060.126,1317.35 1057.038,1313.125 1058.395,1309.549 1057.486,1306.438 1053.402,1303.6 
				1045.404,1301.657 1041.826,1298.204 1030.058,1300.03 1029.314,1301.409 1025.795,1302.758 1024.034,1305.93 1014.888,1307.063 
				1010.064,1310.344 1006.27,1306.459 1002.834,1307.272 994.59,1305.979 990.405,1304.204 987.848,1306.438 979.602,1298.833 
				984.111,1287.606 986.338,1284.106 985.207,1279.946 990.24,1272.655 996.971,1265.229 1001.332,1262.04 999.594,1258.11 
				1001.549,1257.29 996.594,1249.344 995.716,1245.096 999.693,1244.065 1004.467,1238.706 1013.107,1237.364 1020.263,1237.788 
				1032.785,1241.139 1036.492,1243.833 1042.964,1243.417 1051.415,1244.43 1056.467,1243.127 1059.331,1247.842 1072.77,1244.842 
				1073.964,1239.838 1077.266,1235.2 1086.406,1234.682 1090.171,1235.831 1092.843,1230.868 1098.966,1232.159 1102.173,1229.784 
				1109.108,1230.067 1111.672,1233.09 1115.29,1241.743 1112.149,1242.465 1115.214,1249.788 1123.384,1250.924 1126.153,1253.7 
				1127.145,1263.413 1129.748,1265.864 1134.798,1264.563 1140.374,1268.081 1149.362,1264.321 1152.514,1270.487 
				1156.474,1272.938 1157.401,1270.745 1165.77,1275.129 1172.931,1276.667 1178.111,1280.899 1179.361,1284.684 
				1175.017,1290.618 1173.738,1295.616 1175.829,1296.407 1177.492,1300.743 1174.521,1308.676 1165.274,1307.862 
				1163.736,1310.809 1159.251,1312.141 1157.942,1320.317 1150.217,1320.817 1141.624,1326.133 1135.8,1328.026 1132.122,1327.749 
				1125.924,1332.604 1116.034,1335.733 1112.703,1333.7 1109.869,1337.59 1114.949,1337.944 1114.949,1340.061 1121.915,1344.063 
				1122.718,1348.274 1125.816,1349.524 1133.072,1348.387 1134.662,1346.807 1139.854,1347.44 1135.683,1353.932 
				1131.562,1354.241 1127.902,1352.167 1123.212,1357.063 1119.003,1357.01 1114.706,1361.065 1110.204,1363.704 1107.77,1363.469 
				1105.649,1357.452 1106.167,1352.655 1099.166,1348.635 1094.451,1348.682 1094.662,1346.821 1099.126,1343.655 
				1108.419,1339.395 1101.979,1335.647 1094.77,1336.965 1087.896,1333.665 1090.373,1329.215 1087.784,1327.713 
				1079.676,1328.161 1075.855,1329.409 1075.107,1332.133 1069.355,1340.219 1064.428,1342.422 1062.401,1346.342 			"/>
		</g>
		<g id="belarus">
			
				<polygon fill="#FFFFFF" stroke="#000000" stroke-width="0.7369" stroke-linecap="square" stroke-linejoin="bevel" stroke-miterlimit="10" points="
				995.716,1245.096 996.34,1236.522 990.846,1231.534 993.417,1227.315 999.446,1223.018 999.357,1218.194 994.602,1200.776 
				1002.395,1200.475 1004.443,1201.842 1009.265,1200.071 1017.346,1192.905 1019.645,1188.711 1019.361,1184.766 
				1027.954,1177.772 1029.073,1167.524 1033.205,1164.42 1040.017,1165.208 1043.589,1159.016 1046.312,1158.122 
				1060.085,1161.938 1060.917,1167.182 1066.32,1163.946 1072.072,1165.079 1076.895,1168.944 1075.673,1174.827 1078.02,1179.745 
				1075.302,1184.557 1077.808,1186.284 1081.355,1195.174 1087.311,1199.663 1086.188,1203.458 1093.861,1204.954 
				1096.831,1211.752 1090.043,1216.811 1082.436,1214.563 1080.672,1217.989 1083.683,1221.09 1084.296,1230.975 
				1086.406,1234.682 1077.266,1235.2 1073.964,1239.838 1072.77,1244.842 1059.331,1247.842 1056.467,1243.127 1051.415,1244.43 
				1042.964,1243.417 1036.492,1243.833 1032.785,1241.139 1020.263,1237.788 1013.107,1237.364 1004.467,1238.706 
				999.693,1244.065 			"/>
		</g>
		<g id="lithuania">
			
				<polygon fill="#FFFFFF" stroke="#000000" stroke-width="0.7369" stroke-linecap="square" stroke-linejoin="bevel" stroke-miterlimit="10" points="
				986.639,1192.881 985.59,1190.409 987.223,1182.625 984.605,1179.813 978.588,1180.129 970.944,1175.118 969.76,1175.854 
				967.691,1166.385 967.408,1159.571 970.82,1156.344 978.405,1152.842 985.59,1153.999 988.473,1152.729 1005.387,1155.743 
				1010.015,1152.133 1012.041,1156.833 1017.651,1158.096 1029.073,1167.524 1027.954,1177.772 1019.361,1184.766 
				1019.645,1188.711 1017.346,1192.905 1009.265,1200.071 1004.443,1201.842 1002.395,1200.475 994.602,1200.776 994.088,1196.485 
				988.955,1192.465 			"/>
		</g>
		<g id="latvia">
			
				<polygon fill="#FFFFFF" stroke="#000000" stroke-width="0.7369" stroke-linecap="square" stroke-linejoin="bevel" stroke-miterlimit="10" points="
				1003.589,1123.053 1014.486,1118.633 1022.661,1124.065 1029.003,1130.209 1032.015,1128.038 1037.489,1130.028 
				1042.511,1134.391 1041.145,1142.747 1043.824,1146.637 1047.066,1155.604 1046.312,1158.122 1043.589,1159.016 
				1040.017,1165.208 1033.205,1164.42 1029.073,1167.524 1017.651,1158.096 1012.041,1156.833 1010.015,1152.133 
				1005.387,1155.743 988.473,1152.729 985.59,1153.999 978.405,1152.842 970.82,1156.344 967.408,1159.571 966.542,1156.372 
				967.525,1144.225 971.445,1139.6 971.463,1135.254 974.917,1129.221 984.653,1125.61 985.053,1129.004 990.518,1133.559 
				991.85,1138.954 995.51,1141.489 999.936,1140.563 1004.237,1136.542 			"/>
		</g>
		<g id="estonia">
			
				<polygon fill="#FFFFFF" stroke="#000000" stroke-width="0.7369" stroke-linecap="square" stroke-linejoin="bevel" stroke-miterlimit="10" points="
				1037.489,1130.028 1032.015,1128.038 1029.003,1130.209 1022.661,1124.065 1014.486,1118.633 1003.589,1123.053 
				1006.283,1114.063 1003.766,1112.243 1001.249,1115.43 994.564,1108.208 993.564,1098.815 994.613,1094.254 1000.4,1092.934 
				1004.566,1088.875 1008.115,1089.342 1022.054,1085.405 1033.062,1089.524 1042.764,1090.346 1044.626,1088.78 1042.121,1097.84 
				1038.038,1103.774 1038.639,1115.905 1042.457,1123.147 1039.446,1124.163 			"/>
			
				<polygon fill="#FFFFFF" stroke="#000000" stroke-width="0.7369" stroke-linecap="square" stroke-linejoin="bevel" stroke-miterlimit="10" points="
				984.194,1105.87 982.089,1100.196 984.311,1097.676 989.521,1102.422 			"/>
			
				<polygon fill="#FFFFFF" stroke="#000000" stroke-width="0.7369" stroke-linecap="square" stroke-linejoin="bevel" stroke-miterlimit="10" points="
				980.073,1117.331 976.561,1114.971 976.938,1110.657 988.03,1107.36 991.926,1109.922 986.314,1115.333 980.993,1116.592 			"/>
		</g>
		<g id="russia">
			<polygon fill="none" stroke="#000000" stroke-miterlimit="10" points="984.605,1179.813 978.588,1180.129 970.944,1175.118 
				969.76,1175.854 967.868,1182.694 961.645,1181.37 960.436,1181.692 955.098,1182.075 956.145,1189.065 953.499,1191.479 
				971.404,1193.606 986.639,1192.881 985.59,1190.409 987.223,1182.625 			"/>
			
				<polygon fill="none" stroke="#000000" stroke-width="0.7369" stroke-linecap="square" stroke-linejoin="bevel" stroke-miterlimit="10" points="
				2304.451,1230.969 2304.55,1238.672 2309.271,1246.063 2311.263,1251.756 2308.929,1262.469 2310.38,1270.25 2309.794,1281.165 
				2308.062,1291.243 2306.826,1293.047 2310.185,1301.645 2310.533,1306.448 2308.039,1312.29 2309,1321.43 2306.382,1328.731 
				2307.638,1337.479 2309.425,1339.928 2314.287,1327.241 2317.103,1328.6 2321.472,1326.858 2319.732,1318.047 2315.449,1312.672 
				2314.386,1305.592 2319.443,1290.375 2319.916,1286.288 2323.98,1282.202 2332.255,1285.553 2333.683,1284.518 2330.56,1271.34 
				2328.351,1266.795 2325.867,1253.346 2324.529,1245.616 2320.923,1237.34 2321.23,1229.731 2323.281,1223.336 2322.728,1215.801 
				2318.226,1203.389 2314.097,1208.245 2305.898,1211.614 2307.603,1218.174 2306.662,1226.1 			"/>
			
				<polygon fill="none" stroke="#000000" stroke-width="0.7369" stroke-linecap="square" stroke-linejoin="bevel" stroke-miterlimit="10" points="
				1927.943,700.051 1911.406,701.357 1914.009,696.816 1625.099,696.816 1630.003,707.421 1628.849,723.405 1634.47,730.446 
				1645.392,733.157 1645.326,739.907 1651.314,747.336 1658.736,749.811 1661.22,756.602 1655.939,770.088 1662.542,796.389 
				1653.738,800.997 1655.494,781.958 1645.402,777.895 1646.041,769.446 1652.701,764.723 1657.81,754.94 1651.763,751.29 
				1639.339,753.69 1615.246,729.967 1605.255,728.774 1595.949,735.715 1600.318,747.489 1593.275,748.833 1587.304,741.817 
				1577.337,747.645 1579.482,757.194 1595.025,768.467 1594.128,772.661 1580.851,771.229 1568.541,765.831 1571.066,755.405 
				1567.943,750.735 1574.003,732.668 1571.427,716.018 1563.517,714.9 1566.789,729.102 1565.292,738.895 1549.226,749.872 
				1543.779,764.461 1549.667,770.04 1558.113,794.055 1551.023,807.09 1549.113,819.754 1552.773,827.7 1551.695,837.819 
				1562.492,840.624 1570.931,835.243 1583.609,838.592 1595.425,847.112 1596.386,857.936 1600.488,865.895 1593.328,870.684 
				1592.779,879.936 1589.107,880.358 1591.736,866.6 1591.304,857.877 1584.152,850.836 1583.433,844.399 1570.744,846.266 
				1559.917,851.77 1558.605,862.954 1562.533,868.959 1562.691,882.459 1553.414,894.1 1553.582,900.399 1549.195,907.118 
				1536.242,915.504 1536.119,922.004 1514.841,921.145 1500.312,913.43 1500.32,909.362 1508.935,907.124 1517.748,916.17 
				1527.332,912.393 1525.71,904.442 1529.806,903.915 1536.873,892.881 1538.476,885.084 1545.666,877.686 1544.535,866.883 
				1550.621,858.651 1540.298,847.948 1537.626,837.477 1539.925,816.524 1537.103,802.02 1540.898,797.713 1541.562,783.672 
				1538.863,772.938 1530.13,761.29 1536.349,753.274 1542.06,732.668 1541.447,717.268 1527.689,709.973 1506.238,711.158 
				1498.787,717.906 1493.119,749.762 1487.613,759.581 1475.796,768.403 1472.554,782.721 1480.619,787.661 1478.042,804.938 
				1480.505,808.303 1474.292,819.391 1489.062,830.61 1493.207,843.985 1500.103,848.274 1494.244,862.27 1486.66,859.309 
				1478.185,848.223 1462.542,840.629 1449.324,828.848 1437.347,822.403 1421.558,819.729 1409.589,815.895 1406.447,822.067 
				1401.042,823.293 1409.57,840.428 1409.394,846.079 1403.488,852.278 1396.628,854.262 1398.91,859.512 1394.99,863.391 
				1388.972,860.711 1392.845,850.387 1387.447,843.137 1376.767,847.854 1369.859,856.438 1354.648,853.592 1346.32,857.793 
				1342.23,864.028 1335.453,867.231 1329.664,854.426 1332.958,848.09 1330.242,844.159 1300.22,862.963 1296.902,862.338 
				1285.558,873.17 1276.67,877.909 1275.763,882.305 1266.22,883.608 1262.678,897.063 1262.873,902.76 1254.273,906.85 
				1244.402,907.325 1239.67,897.586 1232.138,892.452 1237.183,881.178 1251.958,875.674 1242.958,858.971 1235.868,856.178 
				1224.265,857.34 1216.154,853.024 1214.704,855.452 1224.57,865.518 1223.114,882.022 1219.09,895.178 1227.357,904.993 
				1227.212,911.559 1222.395,928.047 1214.015,918.52 1207.104,919.292 1201.261,916.077 1192.532,928.477 1184.812,931.575 
				1175.423,941.172 1174.221,946.209 1182.495,962.432 1183.311,968.866 1175.48,965.686 1172.47,968.29 1144.699,951.463 
				1142.39,957.133 1138.028,958.551 1145.845,972.262 1155.09,974.625 1156.216,982.147 1148.225,987.596 1136.077,982.184 
				1136.23,979.036 1128.681,972.387 1125.663,974.374 1119.712,968.69 1121.355,961.153 1118.015,950.565 1121.673,937.741 
				1117.259,928.051 1104.63,913.936 1094.545,905.708 1098.8,903.948 1105.253,910.233 1120.354,913.491 1127.708,919.534 
				1143.956,922.721 1151.708,926.874 1162.068,928.754 1169.483,926.926 1182.418,919.168 1191.029,906.961 1192.922,898.983 
				1189.814,895.213 1188.507,881.747 1182.645,880.608 1181.517,876.348 1172.747,871.583 1153.381,853.624 1132.878,837.762 
				1106.999,832.987 1098.723,824.862 1101.334,820.29 1088.097,812.62 1085.781,821.737 1076.104,818.168 1076.204,826.325 
				1067.711,827.379 1059.02,833.282 1055.064,841.536 1049.547,857.375 1052.158,867.586 1059.496,870.95 1066.945,882.372 
				1066.18,886.917 1056.537,903.141 1062.543,921.145 1065.561,926.522 1068.124,938.073 1064.617,939.569 1065.189,951.604 
				1062.701,955.032 1064.506,962.305 1068.206,962.877 1067.305,972.354 1072.874,976.563 1073.229,981.493 1066.615,989.342 
				1071.93,995.69 1080.401,1002.522 1084.167,1009.778 1080.576,1019.444 1063.115,1042.473 1042.321,1065.086 1046.077,1065.471 
				1055.577,1072.915 1065.296,1074.079 1068.349,1080.317 1057.691,1077.155 1044.626,1088.78 1042.121,1097.84 1038.038,1103.774 
				1038.639,1115.905 1042.457,1123.147 1039.446,1124.163 1037.489,1130.028 1042.511,1134.391 1041.145,1142.747 
				1043.824,1146.637 1047.066,1155.604 1046.312,1158.122 1060.085,1161.938 1060.917,1167.182 1066.32,1163.946 
				1072.072,1165.079 1076.895,1168.944 1075.673,1174.827 1078.02,1179.745 1075.302,1184.557 1077.808,1186.284 
				1081.355,1195.174 1087.311,1199.663 1086.188,1203.458 1093.861,1204.954 1096.831,1211.752 1090.043,1216.811 
				1082.436,1214.563 1080.672,1217.989 1083.683,1221.09 1084.296,1230.975 1086.406,1234.682 1090.171,1235.831 
				1092.843,1230.868 1098.966,1232.159 1102.173,1229.784 1109.108,1230.067 1111.672,1233.09 1115.29,1241.743 1112.149,1242.465 
				1115.214,1249.788 1123.384,1250.924 1126.153,1253.7 1127.145,1263.413 1129.748,1265.864 1134.798,1264.563 1140.374,1268.081 
				1149.362,1264.321 1152.514,1270.487 1156.474,1272.938 1157.401,1270.745 1165.77,1275.129 1172.931,1276.667 
				1178.111,1280.899 1179.361,1284.684 1175.017,1290.618 1173.738,1295.616 1175.829,1296.407 1177.492,1300.743 
				1174.521,1308.676 1165.274,1307.862 1163.736,1310.809 1159.251,1312.141 1157.942,1320.317 1161.532,1320.28 
				1169.206,1317.805 1169.293,1321.959 1153.618,1328.202 1158.285,1336.112 1154.784,1337.696 1153.222,1342.346 
				1150.793,1344.131 1148.646,1349.047 1143.821,1349.635 1140.085,1352.024 1146.491,1354.338 1149.609,1359.161 
				1153.835,1358.831 1157.52,1363.545 1161.98,1364.479 1166.017,1367.299 1177.532,1379.086 1178.405,1376.465 1185.22,1376.588 
				1189.044,1379.133 1195.214,1381.491 1204.379,1381.233 1209.159,1382.157 1213.064,1385.86 1219.961,1388.647 
				1220.874,1391.151 1227.392,1388.627 1230.816,1389.918 1232.179,1388.469 1237.02,1391.995 1241.373,1392.737 
				1240.017,1396.604 1243.883,1399.467 1249.039,1401.43 1256.874,1406.391 1258.164,1409.967 1261.506,1411.59 1265.266,1411.391 
				1266.98,1407.858 1270.398,1406.221 1274.755,1399.219 1285.728,1389.229 1280.865,1380.295 1277.72,1372.409 1276.9,1365.124 
				1273.812,1357.87 1282.261,1345.668 1288.804,1340.461 1282.416,1336.459 1279.758,1332.657 1271.686,1327.489 
				1272.814,1325.803 1277.595,1325.729 1272.55,1316.131 1266.62,1309.278 1256.72,1308.793 1256.46,1301.163 1249.564,1298.741 
				1252.665,1290.018 1255.599,1287.2 1252.924,1282.756 1254.355,1274.188 1258.947,1270.569 1258.659,1266.754 1262.071,1263.95 
				1271.16,1275.024 1276.345,1271.313 1273.936,1261.604 1282.162,1256.795 1281.945,1252.999 1286.193,1252.481 1291.31,1249.534 
				1297.716,1240.942 1302.519,1242.307 1305.289,1245.713 1308.359,1245.532 1309.638,1242.26 1314.607,1240.959 
				1316.439,1245.866 1326.339,1245.721 1329.134,1250.395 1332.181,1250.983 1338.292,1256.918 1337.15,1261.008 
				1340.343,1261.639 1339.908,1253.793 1351.496,1262.641 1358.537,1256.387 1360.783,1253.129 1367.408,1252.954 
				1369.943,1256.139 1374.349,1255.688 1374.779,1252.391 1383.433,1253.323 1384.464,1257.874 1387.617,1260.024 
				1397.199,1262.401 1399.121,1257.208 1402.781,1259.87 1407.798,1260.389 1414.574,1258.249 1416.341,1250.924 
				1415.789,1246.922 1410.072,1245.584 1409.482,1243.44 1403.435,1242.19 1404.388,1239.946 1399.833,1238.731 1404.361,1234.022 
				1411.009,1230.467 1407.367,1223.018 1411.445,1218.754 1415.318,1217.897 1420.933,1219.53 1422.63,1216.167 1412.958,1213.223 
				1416.318,1207.409 1410.902,1206.495 1411.599,1200.463 1433.74,1197.969 1443.56,1193.883 1454.326,1192.055 1460.261,1187.598 
				1463.312,1188.245 1483.316,1183.489 1490.242,1181.307 1490.171,1177.225 1494.855,1176.786 1498.464,1172.077 
				1506.509,1173.797 1512.785,1177.993 1515.343,1174.926 1521.154,1178.772 1520.884,1182.764 1523.587,1193.606 
				1526.777,1197.635 1529.736,1194.946 1543.126,1197.35 1544.169,1199.985 1549.449,1200.54 1546.214,1207.661 1547.945,1208.754 
				1553.568,1206.272 1557.216,1207.245 1565.951,1203.417 1573.236,1197.694 1582.07,1193.61 1582.677,1200.28 1597.339,1212.758 
				1603.394,1223.071 1615.929,1246.627 1620.574,1256.67 1626.167,1255.032 1625.937,1250.93 1628.605,1248.913 1632.55,1251.243 
				1632.925,1255.297 1636.757,1255.032 1637.24,1258.958 1644.312,1259.36 1654.439,1256.354 1655.806,1254.454 1663.585,1256.569 
				1667.238,1261.497 1668.306,1267.155 1676.582,1270.54 1679.728,1279.038 1683.742,1278.606 1689.576,1280.858 
				1694.449,1275.336 1696.347,1277.069 1699.07,1284.34 1702.49,1287.383 1707.947,1286.022 1711.636,1284.083 1712.16,1281.112 
				1719.156,1281.452 1728.802,1276.649 1727.925,1273.514 1732.427,1270.479 1739.914,1267.881 1743.414,1264.356 
				1748.052,1263.071 1752.064,1259.653 1759.027,1257.774 1761.166,1259.918 1765.089,1258.444 1766.404,1261.526 
				1779.582,1262.358 1780.673,1268.358 1783.214,1271.405 1787.109,1270.979 1793.138,1273.678 1796.486,1271.469 
				1802.927,1273.688 1809.587,1273.786 1813.365,1276.409 1822.082,1270.532 1824.123,1262.735 1821.316,1260.961 
				1818.71,1254.454 1821.234,1246.25 1824.056,1242.024 1827.591,1240.54 1831.902,1235.454 1840.074,1238.872 1843.011,1241.307 
				1848.945,1241.389 1858.386,1246.44 1860.23,1245.803 1867.421,1248.667 1866.808,1252.323 1868.623,1262.057 1874.824,1266.266 
				1878.851,1266.807 1883.222,1269.5 1887.455,1269.301 1891.466,1266.708 1902.21,1263.5 1909.173,1264.762 1912.005,1266.684 
				1917.47,1266.243 1923.205,1271.823 1931.296,1273.104 1930.894,1277.34 1937.32,1283.086 1944.746,1282.844 1948.695,1285.032 
				1962.386,1286.422 1968.355,1283.139 1977.277,1281.53 1987.976,1278.682 1988.978,1275.418 1999.951,1267.579 2005.38,1267.303 
				2009.205,1269.153 2013.406,1273.534 2017.177,1273.928 2022.9,1271.405 2028.058,1274.793 2030.828,1276.756 2040.958,1280.104 
				2049.451,1272.76 2055.833,1271.583 2057.291,1265.883 2055.392,1265.772 2059.207,1256.165 2061.728,1253.092 
				2065.712,1242.657 2071.753,1238.17 2073.191,1233.786 2071.458,1230.409 2072.417,1226.801 2067.498,1221.043 
				2074.128,1213.247 2077.958,1213.399 2084.812,1210.772 2096.017,1210.04 2104.599,1208.338 2114.341,1214.942 
				2121.789,1214.854 2128.023,1218.756 2130.748,1225.069 2134.896,1229.956 2135.939,1236.733 2140.957,1247.387 
				2141.394,1253.418 2145.371,1258.987 2145.835,1266.43 2148.636,1268.27 2147.746,1274.846 2151.21,1278.872 2155.294,1279.874 
				2160.464,1278.877 2165.55,1283.069 2168.978,1281.631 2177.892,1291.237 2182.523,1291.055 2181.205,1295.586 
				2184.615,1300.803 2182.712,1303.885 2186.4,1310.85 2193.339,1311.235 2203.98,1310.09 2209.582,1304.043 2214.031,1304.538 
				2216.996,1301.532 2224.355,1299.174 2227.705,1301.178 2225.929,1305.819 2228.187,1310.639 2225.9,1314.436 2221.404,1318.047 
				2219.966,1327.5 2218.091,1331.1 2218.658,1334.147 2213.941,1341.02 2213.878,1344.18 2210.794,1346.088 2209.964,1352.071 
				2207.9,1353.692 2197.488,1350.231 2195.753,1348.764 2191.687,1354.436 2185.966,1356.586 2187.544,1358.848 2189.791,1368.77 
				2188.605,1376.688 2189.826,1377.903 2187.912,1386.124 2180.195,1388.715 2182.101,1393.579 2183.13,1395.526 
				2185.035,1392.047 2191.724,1386.795 2195.472,1379.907 2201.66,1381.616 2202.697,1385.864 2209.097,1388.323 
				2209.025,1389.631 2218.699,1386.743 2221.81,1383.672 2232.289,1377.194 2236.414,1371.903 2235.931,1370.434 
				2240.728,1363.356 2243.964,1361.62 2251.437,1350.674 2260.373,1341.573 2267.91,1329.399 2270.828,1320.817 2275.671,1315.483 
				2278.335,1308.752 2288.226,1298.19 2290.136,1290.547 2290.046,1284.34 2292.416,1279.485 2290.83,1274.194 2292.845,1270.596 
				2291.146,1262.565 2293.783,1255.385 2293.925,1248.838 2296.347,1243.581 2302.111,1237.641 2302.753,1233.729 
				2298.783,1228.292 2300.832,1224.692 2298.775,1218.696 2302.193,1215.581 2301.964,1212.991 2296.542,1210.346 
				2289.109,1202.364 2288.937,1198.831 2282.238,1194.887 2278.925,1196.313 2272.212,1193.821 2272.73,1198.885 
				2270.433,1203.256 2262.978,1207.786 2257.326,1208.686 2259.636,1203.04 2256.146,1199.063 2254.597,1203.278 2250.48,1204.17 
				2249.175,1201.292 2250.908,1196.854 2250.224,1191.659 2247.865,1188.577 2238.943,1188.917 2233.732,1186.065 
				2232.572,1183.36 2245.238,1172.233 2245.896,1170.276 2256.041,1162.629 2265.699,1151.967 2265.386,1149.778 
				2274.187,1140.469 2277.175,1135.622 2280.412,1134.512 2287.019,1126.172 2291.832,1123.997 2293.873,1115.536 
				2305.099,1105.78 2307.923,1100.26 2314.964,1094.02 2321.878,1091 2337.185,1091.104 2345.169,1090.61 2345.169,754.989 
				2344.085,749.024 2345.169,748.569 2345.169,736.375 2338.556,735.284 2345.169,725.879 2345.169,722.938 2325.626,718.085 
				2311.748,717.579 2301.25,712.023 2297.353,722.52 2281.187,725.315 2276.156,734.979 2283.398,739.811 2282.019,746.127 
				2285.527,761.522 2272.226,755.999 2264.833,758.418 2262.164,764.938 2240.314,756.102 2224.763,765.612 2210.406,758.456 
				2203.228,747.864 2192.425,782.395 2188.794,787.038 2177.271,779.409 2168.574,766.438 2149.873,731.198 2132.462,733.627 
				2116.708,720.35 2101.597,716.666 2085.207,707.622 2075.769,709.062 2062.429,705.76 2047.566,698.721 2047.808,696.816 
				1931.968,696.816 			"/>
			
				<polygon fill="none" stroke="#000000" stroke-width="0.7369" stroke-linecap="square" stroke-linejoin="bevel" stroke-miterlimit="10" points="
				2103.697,698.283 2098.757,709.68 2117.505,719.098 2132.886,732.372 2134.638,709.309 2137.914,698.654 2137.404,696.816 
				2103.001,696.816 			"/>
			
				<polygon fill="none" stroke="#000000" stroke-width="0.7369" stroke-linecap="square" stroke-linejoin="bevel" stroke-miterlimit="10" points="
				2139.605,703.508 2134.992,709.664 2134.414,725 2155.152,713.663 2165.214,704.881 2163.121,698.357 2158.169,696.816 
				2138.673,696.816 			"/>
			
				<polygon fill="none" stroke="#000000" stroke-width="0.7369" stroke-linecap="square" stroke-linejoin="bevel" stroke-miterlimit="10" points="
				1508.728,704.492 1528.728,699.668 1526.929,696.816 1510.687,696.816 			"/>
			<polygon fill="none" stroke="#000000" stroke-miterlimit="10" points="1323.341,700.564 1323.248,708.027 1314.837,716.1 
				1318.679,718.902 1318.828,731.092 1315.025,740.432 1305.835,740.747 1304.111,752.864 1308.306,761.87 1323.671,761.229 
				1333.291,787.024 1348.33,786.77 1356.269,791.918 1360.505,789.403 1369.478,793.045 1372.099,787.583 1355.761,768.815 
				1347.392,745.135 1348.96,727.747 1357.3,712.764 1360.087,698.186 1357.191,696.816 1330.667,696.816 			"/>
			
				<polygon fill="none" stroke="#000000" stroke-width="0.7369" stroke-linecap="square" stroke-linejoin="bevel" stroke-miterlimit="10" points="
				1612.324,702.895 1606.33,710.129 1605.539,713.839 1616.076,716.792 			"/>
			
				<polygon fill="none" stroke="#000000" stroke-width="0.7369" stroke-linecap="square" stroke-linejoin="bevel" stroke-miterlimit="10" points="
				2151.011,719.874 2138.539,727.723 2147.251,727.245 2161.687,740.625 2170.128,734.483 2167.216,726.458 2161.542,726.491 			
				"/>
			
				<polygon fill="none" stroke="#000000" stroke-width="0.7369" stroke-linecap="square" stroke-linejoin="bevel" stroke-miterlimit="10" points="
				1603.076,725.969 1594.183,720.481 1586.291,730.838 1596.64,732.422 			"/>
			<polygon fill="none" stroke="#000000" stroke-miterlimit="10" points="1318.431,764.446 1313.562,766.241 1321.654,779.022 
				1324.06,772.786 			"/>
			
				<polygon fill="none" stroke="#000000" stroke-width="0.7369" stroke-linecap="square" stroke-linejoin="bevel" stroke-miterlimit="10" points="
				1392.951,815.237 1398.277,822.2 1405.322,817.84 1388.212,795.956 1384.087,800.825 1383.472,809.081 1388.365,816.188 			"/>
			<polygon fill="none" stroke="#000000" stroke-miterlimit="10" points="1291.845,838.284 1280.758,827.602 1272.662,829.858 
				1268.778,840.528 1268.631,846.522 1274.913,851.651 1284.812,847.053 			"/>
		</g>
		<g id="georgia">
			
				<polygon fill="#FFFFFF" stroke="#000000" stroke-width="0.7369" stroke-linecap="square" stroke-linejoin="bevel" stroke-miterlimit="10" points="
				1177.532,1379.086 1178.405,1376.465 1185.22,1376.588 1189.044,1379.133 1195.214,1381.491 1204.379,1381.233 
				1209.159,1382.157 1213.064,1385.86 1219.961,1388.647 1220.874,1391.151 1227.392,1388.627 1230.816,1389.918 
				1232.179,1388.469 1237.02,1391.995 1241.373,1392.737 1240.017,1396.604 1243.883,1399.467 1249.039,1401.43 1246.205,1404.694 
				1247.708,1407.571 1251.675,1410.028 1249.735,1413.995 1246.688,1411.69 1241.862,1411.307 1236.729,1407.907 
				1233.198,1410.331 1228.13,1411.973 1224.61,1411.407 1215.878,1413.04 1213.354,1411.903 1208.895,1406.104 1204.729,1408.288 
				1199.215,1407.075 1197.796,1408.36 1194.483,1406.979 1197.171,1402.645 1197.023,1400.469 1193.24,1388.764 1190.354,1388.04 
				1186.786,1383.795 1181.499,1382.375 			"/>
		</g>
		<g id="armenia">
			
				<polygon fill="#FFFFFF" stroke="#000000" stroke-width="0.7369" stroke-linecap="square" stroke-linejoin="bevel" stroke-miterlimit="10" points="
				1250.02,1445.424 1246.005,1445.915 1242.428,1438.672 1242.026,1435.784 1238.095,1436.581 1233.776,1432.571 1230.487,1433.52 
				1224.989,1428.618 1220.881,1429.012 1218.7,1427.002 1217.339,1422.004 1218.983,1419.588 1218.222,1415.782 1215.878,1413.04 
				1224.61,1411.407 1228.13,1411.973 1233.198,1410.331 1234.012,1413.825 1239.812,1416.659 1237.254,1419.629 1238.886,1422.647 
				1244.001,1425.938 1242.039,1431.297 1246.329,1435.1 1249.865,1435.372 1248.445,1438.159 			"/>
		</g>
		<g id="azerbaijan">
			
				<polygon fill="#FFFFFF" stroke="#000000" stroke-width="0.7369" stroke-linecap="square" stroke-linejoin="bevel" stroke-miterlimit="10" points="
				1302.714,1447.713 1291.792,1452.139 1285.216,1454.112 1276.05,1451.579 1273.551,1452.329 1271.001,1448.991 
				1266.479,1446.026 1269.827,1442.874 1267.576,1439.672 1270.175,1438.077 1266.037,1433.391 1264.129,1433.915 
				1255.494,1440.84 1253.443,1441.36 1250.02,1445.424 1248.445,1438.159 1249.865,1435.372 1246.329,1435.1 1242.039,1431.297 
				1244.001,1425.938 1238.886,1422.647 1237.254,1419.629 1239.812,1416.659 1234.012,1413.825 1233.198,1410.331 
				1236.729,1407.907 1241.862,1411.307 1246.688,1411.69 1249.735,1413.995 1251.675,1410.028 1247.708,1407.571 
				1246.205,1404.694 1249.039,1401.43 1256.874,1406.391 1258.164,1409.967 1261.506,1411.59 1265.266,1411.391 1266.98,1407.858 
				1270.398,1406.221 1274.755,1399.219 1285.728,1389.229 1289.771,1395.129 1294.892,1400.827 1297.486,1405.579 
				1302.242,1411.295 1305.384,1415.799 1306.974,1424.987 1306.708,1437.813 1302.73,1444.313 			"/>
		</g>
		<g id="turkey">
			
				<polygon fill="#FFFFFF" stroke="#000000" stroke-width="0.7369" stroke-linecap="square" stroke-linejoin="bevel" stroke-miterlimit="10" points="
				1230.87,1434.61 1230.487,1433.52 1233.776,1432.571 1238.095,1436.581 1242.026,1435.784 1242.428,1438.672 1246.005,1445.915 
				1237.748,1443.604 1234.53,1440.551 			"/>
			
				<polygon fill="#FFFFFF" stroke="#000000" stroke-width="0.7369" stroke-linecap="square" stroke-linejoin="bevel" stroke-miterlimit="10" points="
				1026.936,1438.989 1029.104,1443.452 1025.867,1443.969 1020.77,1441.459 1020.688,1440.04 			"/>
			
				<polygon fill="#FFFFFF" stroke="#000000" stroke-width="0.7369" stroke-linecap="square" stroke-linejoin="bevel" stroke-miterlimit="10" points="
				1022.436,1455.715 1020.345,1450.182 1024.046,1450.163 1024.058,1453.542 			"/>
			
				<polygon fill="#FFFFFF" stroke="#000000" stroke-width="0.7369" stroke-linecap="square" stroke-linejoin="bevel" stroke-miterlimit="10" points="
				1046.748,1479.508 1046.02,1482.702 1042.229,1487.051 1041.343,1483.309 			"/>
			
				<polygon fill="#FFFFFF" stroke="#000000" stroke-width="0.7369" stroke-linecap="square" stroke-linejoin="bevel" stroke-miterlimit="10" points="
				1022.771,1418.575 1026.274,1415.379 1025.878,1411.249 1029.009,1409.829 1028.596,1405.68 1026.279,1404.2 1029.162,1400.297 
				1035.945,1398.252 1039.676,1401.247 1044.597,1400.161 1044.09,1402.45 1047.145,1407.192 1053.709,1410.547 1056.525,1411.079 
				1055.942,1413.901 1051.409,1415.278 1047.145,1413.536 1043.808,1415.161 1038.962,1414.973 1035.32,1420.096 1030.316,1422.34 
				1025.845,1427.709 1024.623,1424.61 1031.431,1420.686 1031.064,1419.817 1023.592,1420.629 			"/>
			
				<polygon fill="#FFFFFF" stroke="#000000" stroke-width="0.7369" stroke-linecap="square" stroke-linejoin="bevel" stroke-miterlimit="10" points="
				1203.619,1470.309 1201.686,1467.756 1200.312,1469.118 1194.665,1470.61 1186.049,1470.155 1175.487,1475.213 
				1168.869,1476.432 1163.37,1475.901 1161.326,1473.956 1157.336,1473.104 1150.151,1476.26 1145.655,1476.522 1140.499,1474.358 
				1139.243,1478.883 1140.729,1482.397 1137.498,1482.661 1137.311,1485.62 1135.175,1487.577 1132.294,1486.592 1130.79,1481.606 
				1135.26,1477.374 1135.439,1475.024 1133.277,1472.86 1129.212,1475.223 1129.094,1477.168 1125.91,1478.092 1120.241,1474.698 
				1117.248,1474.958 1110.854,1481.778 1107.712,1483.127 1096.224,1485.055 1092.883,1483.188 1089.52,1478.489 
				1080.926,1474.344 1074.324,1473.438 1072.987,1474.741 1072.215,1481.188 1063.043,1483.963 1057.18,1480.805 
				1056.119,1476.213 1051.733,1475.813 1049.513,1473.45 1047.473,1475.442 1045.186,1472.696 1039.074,1471.895 
				1039.964,1468.563 1035.526,1466.897 1036.062,1458.137 1032.509,1456.942 1030.735,1454.821 1029.025,1456.375 
				1027.039,1454.795 1026.244,1448.567 1027.612,1448.383 1029.946,1453.436 1032.774,1451.584 1030.411,1448.749 
				1031.659,1441.795 1029.42,1439.889 1032.645,1435.407 1023.729,1437.168 1024.464,1429.243 1030.081,1423.784 
				1036.293,1422.622 1039.033,1424.85 1040.979,1422.122 1051.928,1424.002 1055.323,1419.983 1061.199,1418.637 1056.02,1415.096 
				1057.015,1411.567 1068.385,1412.633 1069.779,1411.637 1075.02,1413.43 1080.301,1413.387 1083.837,1409.356 1090.584,1405.713 
				1091.875,1404.069 1103.645,1399.596 1114.472,1400.776 1120.206,1400.37 1121.832,1398.522 1125.245,1404.165 
				1128.456,1405.444 1132.854,1403.881 1134.521,1407.682 1137.936,1411.135 1142.73,1409.616 1144.817,1412.192 
				1150.223,1414.278 1151.808,1412.709 1154.166,1414.961 1159.274,1416.016 1171.009,1413.129 1179.166,1415.87 
				1192.855,1409.192 1194.483,1406.979 1197.796,1408.36 1199.215,1407.075 1204.729,1408.288 1208.895,1406.104 
				1213.354,1411.903 1215.878,1413.04 1218.222,1415.782 1218.983,1419.588 1217.339,1422.004 1218.7,1427.002 1220.881,1429.012 
				1224.989,1428.618 1230.487,1433.52 1230.87,1434.61 1228.604,1432.471 1226.573,1437.405 1222.241,1438.252 1224.251,1441.7 
				1225.384,1452.432 1227.099,1453.354 1224.334,1459.241 1228.248,1461.096 1228.384,1465.629 1230.74,1467.321 
				1230.581,1469.713 1228.973,1469.176 1224.706,1471.993 1224.41,1467.956 1216.202,1468.305 1212.506,1466.594 
				1208.404,1466.452 1206.104,1469.659 			"/>
		</g>
		<g id="cyprus">
			
				<polygon fill="#FFFFFF" stroke="#000000" stroke-width="0.7369" stroke-linecap="square" stroke-linejoin="bevel" stroke-miterlimit="10" points="
				1102.909,1503.135 1096.714,1504.067 1093.302,1502.586 1091.851,1498.663 1096.071,1496.641 1098.829,1496.813 
				1099.921,1494.249 1103.986,1494.754 1110.64,1493.293 1109.892,1496.999 1106.579,1501.663 			"/>
		</g>
	</g>
</g>
<g id="whole-logo">
	<g id="logo-pixels">
		<g id="poland_pixel">
			<rect x="964.814" y="1230.081" fill="none" width="4" height="4"/>
		</g>
		<g id="czech_republic_pixel">
			<rect x="892.365" y="1268.403" fill="none" width="4" height="4"/>
		</g>
		<g id="slovakia_pixel">
			<rect x="921.781" y="1301.194" fill="none" width="4" height="4"/>
		</g>
		<g id="hungary_pixel">
			<rect x="943.562" y="1311.897" fill="none" width="4" height="4"/>
		</g>
		<g id="slovenia_pixel">
			<rect x="892.932" y="1335.321" fill="none" width="4" height="4"/>
		</g>
		<g id="croatia_pixel">
			<rect x="909.398" y="1339.391" fill="none" width="4" height="4"/>
		</g>
		<g id="bosnia_and_herzegovina_pixel">
			<rect x="935.819" y="1369.879" fill="none" width="4" height="4"/>
		</g>
		<g id="serbia_pixel">
			<rect x="958.916" y="1354.833" fill="none" width="4" height="4"/>
		</g>
		<g id="montenegro_pixel">
			<rect x="945.614" y="1390.917" fill="none" width="4" height="4"/>
		</g>
		<g id="albania_pixel">
			<rect x="951.738" y="1407.875" fill="none" width="4" height="4"/>
		</g>
		<g id="macedonia_pixel">
			<rect x="969.643" y="1397.895" fill="none" width="4" height="4"/>
		</g>
		<g id="greece_pixel">
			<rect x="995.12" y="1456.03" fill="none" width="4" height="4"/>
		</g>
		<g id="bulgaria_pixel">
			<rect x="990.5" y="1387.616" fill="none" width="4" height="4"/>
		</g>
		<g id="romania_pixel">
			<rect x="1021.362" y="1360.834" fill="none" width="4" height="4"/>
		</g>
		<g id="moldova_pixel">
			<rect x="1051.958" y="1320.016" fill="none" width="4" height="4"/>
		</g>
		<g id="ukraine_pixel">
			<rect x="1070.333" y="1262.333" fill="none" width="4" height="4"/>
		</g>
		<g id="belarus_pixel">
			<rect x="1037.622" y="1199.624" fill="none" width="4" height="4"/>
		</g>
		<g id="lithuania_pixel">
			<rect x="1012.698" y="1184.778" fill="none" width="4" height="4"/>
		</g>
		<g id="latvia_pixel">
			<rect x="999.207" y="1140.032" fill="none" width="4" height="4"/>
		</g>
		<g id="estonia_pixel">
			<rect x="1006.172" y="1087.754" fill="none" width="4" height="4"/>
		</g>
		<g id="russia_pixel">
			<rect x="1149.045" y="1163.963" fill="none" width="4" height="4"/>
		</g>
		<g id="georgia_pixel">
			<rect x="1228.599" y="1401.961" fill="none" width="4" height="4"/>
		</g>
		<g id="armenia_pixel">
			<rect x="1225.526" y="1424.627" fill="none" width="4" height="4"/>
		</g>
		<g id="azerbaijan_pixel">
			<rect x="1284.83" y="1421.516" fill="none" width="4" height="4"/>
		</g>
		<g id="turkey_pixel">
			<rect x="1096.364" y="1428.305" fill="none" width="4" height="4"/>
		</g>
		<g id="cyprus_pixel">
			<rect x="1101.954" y="1494.95" fill="none" width="4" height="4"/>
		</g>
	</g>
	<g id="logo-text">
		<path d="M1048.875,1390.579h1.716l-4.951,15.402h-1.936l-4.951-15.402h1.716l4.203,13.048L1048.875,1390.579z"/>
		<path d="M1054.198,1392.712h-1.65v-2.134h1.65V1392.712z M1054.198,1405.981h-1.65v-11.354h1.65V1405.981z"/>
		<path d="M1063.285,1397.95c-0.198-1.32-1.078-2.047-2.486-2.047c-1.232,0-2.134,0.616-2.134,1.65c0,0.946,0.638,1.364,1.562,1.585
			l2.135,0.527c1.716,0.418,2.904,1.276,2.904,3.367c0,2.244-1.694,3.168-4.005,3.168c-2.376,0-4.378-1.1-4.555-3.851h1.694
			c0.154,1.606,1.342,2.267,2.86,2.267c1.584,0,2.311-0.639,2.333-1.628c0-0.727-0.33-1.364-1.584-1.673l-2.222-0.55
			c-1.232-0.286-2.794-1.122-2.794-3.146c0-2.091,1.738-3.301,3.829-3.301c2.289,0,3.982,1.101,4.159,3.631H1063.285z"/>
		<path d="M1067.706,1401.822v-7.194h1.65v7.085c0,2.024,1.386,2.904,2.729,2.904c1.386,0,2.728-0.969,2.728-2.839v-7.15h1.65
			v11.354h-1.65v-1.166c-0.572,0.901-1.76,1.386-2.728,1.386C1070.214,1406.201,1067.706,1405.189,1067.706,1401.822z"/>
		<path d="M1081.037,1398.104h-1.694c0.286-2.839,2.442-3.785,4.422-3.785c2.112,0,4.445,1.101,4.445,4.445v7.217h-1.65v-1.166
			c-0.726,0.945-2.002,1.386-3.542,1.386c-1.937,0-3.763-1.034-3.763-3.366c0-1.145,0.484-2.685,2.464-3.257
			c1.298-0.374,2.927-0.506,4.841-0.638v-0.198c0-1.893-1.32-2.839-2.794-2.839
			C1082.467,1395.903,1081.301,1396.629,1081.037,1398.104z M1086.56,1400.414c-2.486,0.177-3.895,0.33-4.665,0.748
			c-0.836,0.463-0.99,0.969-0.99,1.629c0,1.034,0.792,1.826,2.464,1.826c1.782,0,3.19-0.946,3.19-2.729V1400.414z"/>
		<path d="M1092.961,1403.407c0,0.726,0.264,0.99,1.056,0.99h0.352v1.584h-0.352c-2.112,0-2.706-0.771-2.706-2.707v-12.695h1.65
			V1403.407z"/>
		<path d="M1041.746,1419.113h-1.65v-2.135h1.65V1419.113z M1041.746,1432.38h-1.65v-11.354h1.65V1432.38z"/>
		<path d="M1046.256,1430.796h6.557v1.584h-8.56v-1.584l6.403-8.186h-6.249v-1.584h8.251v1.584L1046.256,1430.796z"/>
		<path d="M1056.948,1419.113h-1.65v-2.135h1.65V1419.113z M1056.948,1432.38h-1.65v-11.354h1.65V1432.38z"/>
		<path d="M1069.137,1425.164v7.217h-1.65v-7.239c0-1.892-1.32-2.838-2.794-2.838c-1.474,0-2.794,0.946-2.794,2.838v7.239h-1.65
			v-11.354h1.65v1.078c0.572-0.924,1.76-1.386,2.794-1.386C1066.804,1420.719,1069.137,1421.819,1069.137,1425.164z"/>
		<path d="M1079.19,1432.227v-1.453c-0.572,0.925-1.76,1.387-2.794,1.387c-2.112,0-4.444-1.101-4.444-4.444v-2.553
			c0-3.345,2.332-4.444,4.444-4.444c1.034,0,2.223,0.462,2.794,1.386v-1.078h1.65v11.178c0,3.366-2.333,4.444-4.445,4.444
			c-2.002,0-4.18-0.968-4.422-3.895h1.672c0.22,1.54,1.43,2.311,2.75,2.311C1077.87,1435.065,1079.19,1434.119,1079.19,1432.227z
			 M1073.601,1427.738c0,1.893,1.32,2.839,2.794,2.839c1.475,0,2.794-0.946,2.794-2.839v-2.597c0-1.892-1.32-2.838-2.794-2.838
			c-1.474,0-2.794,0.946-2.794,2.838V1427.738z"/>
		<path d="M1045.179,1443.378c2.949,0,4.973,1.98,4.973,5.215v4.973c0,3.234-2.024,5.215-4.973,5.215h-4.973v-15.402H1045.179z
			 M1041.9,1445.05v12.058h3.278c1.826,0,3.278-1.21,3.278-3.542v-4.973c0-2.333-1.452-3.521-3.278-3.543H1041.9z"/>
		<path d="M1054.374,1450.904h-1.694c0.286-2.839,2.442-3.785,4.422-3.785c2.112,0,4.445,1.101,4.445,4.445v7.217h-1.65v-1.166
			c-0.726,0.945-2.002,1.386-3.542,1.386c-1.937,0-3.763-1.034-3.763-3.366c0-1.145,0.484-2.685,2.464-3.257
			c1.298-0.374,2.927-0.506,4.841-0.638v-0.198c0-1.893-1.32-2.839-2.794-2.839
			C1055.804,1448.703,1054.638,1449.429,1054.374,1450.904z M1059.897,1453.213c-2.486,0.177-3.895,0.33-4.665,0.748
			c-0.836,0.463-0.99,0.969-0.99,1.629c0,1.034,0.792,1.826,2.464,1.826c1.782,0,3.19-0.946,3.19-2.729V1453.213z"/>
		<path d="M1066.87,1456.207c0,0.726,0.264,0.99,1.056,0.99h1.738v1.584h-1.738c-2.112,0-2.707-0.771-2.707-2.707v-7.062h-1.606
			v-1.584h1.606v-2.575h1.65v2.575h2.794v1.584h-2.794V1456.207z"/>
		<path d="M1073.469,1450.904h-1.694c0.286-2.839,2.442-3.785,4.423-3.785c2.112,0,4.445,1.101,4.445,4.445v7.217h-1.65v-1.166
			c-0.726,0.945-2.002,1.386-3.542,1.386c-1.937,0-3.763-1.034-3.763-3.366c0-1.145,0.484-2.685,2.464-3.257
			c1.298-0.374,2.927-0.506,4.841-0.638v-0.198c0-1.893-1.32-2.839-2.794-2.839
			C1074.899,1448.703,1073.733,1449.429,1073.469,1450.904z M1078.992,1453.213c-2.486,0.177-3.895,0.33-4.665,0.748
			c-0.836,0.463-0.99,0.969-0.99,1.629c0,1.034,0.792,1.826,2.464,1.826c1.782,0,3.19-0.946,3.19-2.729V1453.213z"/>
	</g>
</g>
<g id="fieldsInfo">
	<polygon fill="#FFFFFF" stroke="#CCCCCC" stroke-miterlimit="10" stroke-dasharray="1" points="96.64,192.463 48.32,214.428 
		0,192.463 48.32,166.108 	"/>
	<polygon fill="#FFFFFF" stroke="#CCCCCC" stroke-miterlimit="10" stroke-dasharray="1" points="96.64,168.734 48.32,190.699 
		0,168.734 48.32,142.378 	"/>
	<polygon fill="#FFFFFF" stroke="#CCCCCC" stroke-miterlimit="10" stroke-dasharray="1" points="96.64,145.004 48.32,166.968 
		0,145.004 48.32,118.648 	"/>
	<polygon fill="#FFFFFF" stroke="#CCCCCC" stroke-miterlimit="10" stroke-dasharray="1" points="96.64,121.275 48.32,143.24 
		0,121.275 48.32,94.918 	"/>
	<polygon fill="#FFFFFF" stroke="#CCCCCC" stroke-miterlimit="10" stroke-dasharray="1" points="96.64,97.545 48.32,119.509 
		0,97.545 48.32,71.188 	"/>
	<polygon fill="#FFFFFF" stroke="#CCCCCC" stroke-miterlimit="10" stroke-dasharray="1" points="96.64,73.815 48.32,95.78 0,73.815 
		48.32,47.459 	"/>
	<polygon fill="#FFFFFF" stroke="#CCCCCC" stroke-miterlimit="10" stroke-dasharray="1" points="96.64,50.085 48.32,72.05 0,50.085 
		48.32,23.729 	"/>
	<polygon fill="#FFFFFF" stroke="#CCCCCC" stroke-miterlimit="10" stroke-dasharray="1" points="96.64,26.356 48.32,48.32 0,26.356 
		48.32,0 	"/>
</g>
<g id="fields-relationships">
	
		<line fill="none" stroke="#969696" stroke-width="0.25" stroke-miterlimit="10" x1="410.075" y1="641.993" x2="410.353" y2="641.577"/>
	
		<line fill="none" stroke="#969696" stroke-width="0.25" stroke-miterlimit="10" stroke-dasharray="1.0219,1.0219" x1="410.921" y1="640.729" x2="420.856" y2="625.858"/>
	
		<line fill="none" stroke="#969696" stroke-width="0.25" stroke-miterlimit="10" x1="421.141" y1="625.434" x2="421.418" y2="625.018"/>
	
		<line fill="none" stroke="#969696" stroke-width="0.25" stroke-miterlimit="10" x1="124.857" y1="551.857" x2="125.154" y2="552.26"/>
	
		<line fill="none" stroke="#969696" stroke-width="0.25" stroke-miterlimit="10" stroke-dasharray="1.015,1.015" x1="125.757" y1="553.076" x2="136.305" y2="567.367"/>
	
		<line fill="none" stroke="#969696" stroke-width="0.25" stroke-miterlimit="10" x1="136.606" y1="567.775" x2="136.903" y2="568.178"/>
	
		<line fill="none" stroke="#969696" stroke-width="0.25" stroke-miterlimit="10" x1="150.937" y1="637.854" x2="151.191" y2="637.424"/>
	
		<line fill="none" stroke="#969696" stroke-width="0.25" stroke-miterlimit="10" stroke-dasharray="1.0242,1.0242" x1="151.714" y1="636.543" x2="159.812" y2="622.888"/>
	
		<line fill="none" stroke="#969696" stroke-width="0.25" stroke-miterlimit="10" x1="160.074" y1="622.447" x2="160.329" y2="622.018"/>
	
		<line fill="none" stroke="#969696" stroke-width="0.25" stroke-miterlimit="10" x1="180.501" y1="379.991" x2="180.379" y2="380.476"/>
	
		<line fill="none" stroke="#969696" stroke-width="0.25" stroke-miterlimit="10" stroke-dasharray="1.0051,1.0051" x1="180.134" y1="381.451" x2="149.336" y2="503.771"/>
	
		<line fill="none" stroke="#969696" stroke-width="0.25" stroke-miterlimit="10" x1="149.213" y1="504.26" x2="149.091" y2="504.744"/>
	
		<line fill="none" stroke="#969696" stroke-width="0.25" stroke-miterlimit="10" x1="117.113" y1="609.839" x2="117.259" y2="609.36"/>
	
		<line fill="none" stroke="#969696" stroke-width="0.25" stroke-miterlimit="10" stroke-dasharray="0.9986,0.9986" x1="117.549" y1="608.405" x2="148.8" y2="505.7"/>
	
		<line fill="none" stroke="#969696" stroke-width="0.25" stroke-miterlimit="10" x1="148.946" y1="505.223" x2="149.091" y2="504.744"/>
	
		<line fill="none" stroke="#969696" stroke-width="0.25" stroke-miterlimit="10" x1="103.075" y1="541.154" x2="103.132" y2="540.657"/>
	
		<line fill="none" stroke="#969696" stroke-width="0.25" stroke-miterlimit="10" stroke-dasharray="0.9835,0.9835" x1="103.243" y1="539.681" x2="108.962" y2="489.355"/>
	
		<line fill="none" stroke="#969696" stroke-width="0.25" stroke-miterlimit="10" x1="109.017" y1="488.867" x2="109.074" y2="488.37"/>
	
		<line fill="none" stroke="#969696" stroke-width="0.25" stroke-miterlimit="10" x1="126.908" y1="630.876" x2="126.846" y2="630.38"/>
	
		<line fill="none" stroke="#969696" stroke-width="0.25" stroke-miterlimit="10" stroke-dasharray="0.9973,0.9973" x1="126.722" y1="629.391" x2="109.198" y2="489.361"/>
	
		<line fill="none" stroke="#969696" stroke-width="0.25" stroke-miterlimit="10" x1="109.136" y1="488.866" x2="109.074" y2="488.37"/>
	
		<line fill="none" stroke="#969696" stroke-width="0.25" stroke-miterlimit="10" x1="187.466" y1="327.714" x2="187.247" y2="328.163"/>
	
		<line fill="none" stroke="#969696" stroke-width="0.25" stroke-miterlimit="10" stroke-dasharray="1.0043,1.0043" x1="186.806" y1="329.066" x2="109.513" y2="487.47"/>
	<rect id="estonia-control-pixel" x="184.806" y="328.066" fill="none" width="4" height="4"/>
	
		<line fill="none" stroke="#969696" stroke-width="0.25" stroke-miterlimit="10" x1="109.293" y1="487.921" x2="109.074" y2="488.37"/>
	
		<line fill="none" stroke="#969696" stroke-width="0.25" stroke-miterlimit="10" x1="117.113" y1="609.839" x2="117.08" y2="609.34"/>
	
		<line fill="none" stroke="#969696" stroke-width="0.25" stroke-miterlimit="10" stroke-dasharray="0.9978,0.9978" x1="117.014" y1="608.345" x2="109.14" y2="489.367"/>
	
		<line fill="none" stroke="#969696" stroke-width="0.25" stroke-miterlimit="10" x1="109.107" y1="488.869" x2="109.074" y2="488.37"/>
	
		<line fill="none" stroke="#969696" stroke-width="0.25" stroke-miterlimit="10" x1="73.659" y1="508.362" x2="73.72" y2="508.858"/>
	
		<line fill="none" stroke="#969696" stroke-width="0.25" stroke-miterlimit="10" stroke-dasharray="1.0056,1.0056" x1="73.843" y1="509.856" x2="80.172" y2="561.259"/>
	
		<line fill="none" stroke="#969696" stroke-width="0.25" stroke-miterlimit="10" x1="80.233" y1="561.758" x2="80.294" y2="562.254"/>
	
		<line fill="none" stroke="#969696" stroke-width="0.25" stroke-miterlimit="10" x1="117.113" y1="609.839" x2="116.807" y2="609.443"/>
	
		<line fill="none" stroke="#969696" stroke-width="0.25" stroke-miterlimit="10" stroke-dasharray="1.0028,1.0028" x1="116.194" y1="608.65" x2="80.907" y2="563.046"/>
	
		<line fill="none" stroke="#969696" stroke-width="0.25" stroke-miterlimit="10" x1="80.601" y1="562.649" x2="80.294" y2="562.254"/>
	
		<line fill="none" stroke="#969696" stroke-width="0.25" stroke-miterlimit="10" x1="103.075" y1="541.154" x2="103.241" y2="541.626"/>
	
		<line fill="none" stroke="#969696" stroke-width="0.25" stroke-miterlimit="10" stroke-dasharray="1.0143,1.0143" x1="103.577" y1="542.583" x2="121.558" y2="593.782"/>
	
		<line fill="none" stroke="#969696" stroke-width="0.25" stroke-miterlimit="10" x1="121.726" y1="594.261" x2="121.892" y2="594.732"/>
	
		<line fill="none" stroke="#969696" stroke-width="0.25" stroke-miterlimit="10" x1="126.908" y1="630.876" x2="126.839" y2="630.381"/>
	
		<line fill="none" stroke="#969696" stroke-width="0.25" stroke-miterlimit="10" stroke-dasharray="1.014,1.014" x1="126.7" y1="629.376" x2="122.03" y2="595.729"/>
	
		<line fill="none" stroke="#969696" stroke-width="0.25" stroke-miterlimit="10" x1="121.96" y1="595.229" x2="121.892" y2="594.732"/>
	
		<line fill="none" stroke="#969696" stroke-width="0.25" stroke-miterlimit="10" x1="124.857" y1="551.857" x2="124.823" y2="552.356"/>
	
		<line fill="none" stroke="#969696" stroke-width="0.25" stroke-miterlimit="10" stroke-dasharray="1.0238,1.0238" x1="124.752" y1="553.378" x2="121.961" y2="593.723"/>
	
		<line fill="none" stroke="#969696" stroke-width="0.25" stroke-miterlimit="10" x1="121.926" y1="594.233" x2="121.892" y2="594.732"/>
	
		<line fill="none" stroke="#969696" stroke-width="0.25" stroke-miterlimit="10" x1="103.075" y1="541.154" x2="103.311" y2="540.713"/>
	
		<line fill="none" stroke="#969696" stroke-width="0.25" stroke-miterlimit="10" stroke-dasharray="1.0119,1.0119" x1="103.788" y1="539.821" x2="111.184" y2="525.989"/>
	
		<line fill="none" stroke="#969696" stroke-width="0.25" stroke-miterlimit="10" x1="111.422" y1="525.543" x2="111.658" y2="525.104"/>
	<text transform="matrix(1 0 0 1 111.6562 525.1011)" fill="#343434" font-family="'ArialMT'" font-size="12">Accouontability</text>
	<text transform="matrix(1 0 0 1 121.8896 594.7329)" fill="#343434" font-family="'ArialMT'" font-size="12">Budget</text>
	<text transform="matrix(1 0 0 1 80.2925 562.2524)" fill="#343434" font-family="'ArialMT'" font-size="12">Crime</text>
	<text transform="matrix(1 0 0 1 109.0713 488.3696)" fill="#343434" font-family="'ArialMT'" font-size="12">Municipalities</text>
	<text transform="matrix(1 0 0 1 149.0898 504.7417)" fill="#343434" font-family="'ArialMT'" font-size="12">Parliament/Legislation</text>
	<text transform="matrix(1 0 0 1 160.3281 622.0161)" fill="#343434" font-family="'ArialMT'" font-size="12">Urban Planning</text>
	<text transform="matrix(1 0 0 1 136.9014 568.1763)" fill="#343434" font-family="'ArialMT'" font-size="12">Vulnarable Groups</text>
	<text transform="matrix(1 0 0 1 421.4165 625.0161)" fill="#343434" font-family="'ArialMT'" font-size="12">Water Accesibility</text>
</g>
</svg>
