<?xml version="1.0" encoding="utf-8"?>
<!-- Generator: Adobe Illustrator 16.0.0, SVG Export Plug-In . SVG Version: 6.00 Build 0)  -->
<!DOCTYPE svg PUBLIC "-//W3C//DTD SVG 1.1//EN" "http://www.w3.org/Graphics/SVG/1.1/DTD/svg11.dtd">
<svg version="1.1" id="Layer_1" xmlns="http://www.w3.org/2000/svg" xmlns:xlink="http://www.w3.org/1999/xlink" x="0px" y="0px"
	 width="2560.671px" height="1438.817px" viewBox="-218.5 698 2560.671 1438.817"
	 enable-background="new -218.5 698 2560.671 1438.817" xml:space="preserve">
<g class="countries">

	<g id="europe-countries">
		<g id="poland">
			
				<polygon fill="#FFFFFF" stroke="#000000" stroke-width="0.7369" stroke-linecap="square" stroke-linejoin="bevel" stroke-miterlimit="10" points="
				898.406,1256.805 900.668,1250.217 899.79,1246.121 897.422,1245.114 895.883,1239.868 897.658,1235.371 895.146,1229.466 
				896.314,1226.248 890.873,1220.942 893.072,1217.518 893.803,1212.147 892.275,1205.433 891.646,1202.244 891.723,1201.12 
				909.615,1195.209 913.811,1194.6 917.425,1189.434 925.268,1185.877 937.298,1183.845 939.938,1191.308 942.926,1193.11 
				951.614,1190.986 951.879,1191.131 953.499,1191.478 971.404,1193.606 986.639,1192.881 988.955,1192.465 994.088,1196.485 
				994.602,1200.775 999.357,1218.194 999.446,1223.018 993.417,1227.314 990.846,1231.534 996.34,1236.521 995.716,1245.097 
				996.594,1249.345 1001.549,1257.289 999.594,1258.11 1001.332,1262.039 996.971,1265.228 990.24,1272.654 985.207,1279.945 
				986.338,1284.105 984.111,1287.605 978.252,1285.22 973.626,1281.542 967.627,1281.783 965.875,1283.93 959.747,1282.278 
				956.564,1285.938 954.006,1285.703 953.287,1282.036 949.627,1278.736 946.787,1281.924 943.008,1280.162 939.991,1273.391 
				934.163,1270.909 931.799,1272.059 929.206,1269.065 921.279,1264.274 921.503,1268.033 919.329,1270.18 913.823,1264.769 
				916.357,1261.834 904.518,1258.32 903.362,1254.886 			"/>
		</g>
		<g id="czech_republic">
			
				<polygon fill="#FFFFFF" stroke="#000000" stroke-width="0.7369" stroke-linecap="square" stroke-linejoin="bevel" stroke-miterlimit="10" points="
				921.887,1295.361 921.291,1293.571 916.477,1292.133 912.066,1292.993 904.287,1289.209 900.628,1288.632 899.855,1292.409 
				896.007,1295.202 891.264,1295.745 887.379,1292.769 877.678,1283.268 874.525,1281.737 872.096,1277.109 873.1,1273.432 
				869.993,1270.732 872.764,1265.081 877.518,1264.773 880.9,1261.65 892.678,1256.518 898.406,1256.805 903.362,1254.886 
				904.518,1258.32 916.357,1261.834 913.823,1264.769 919.329,1270.18 921.503,1268.033 921.279,1264.274 929.206,1269.065 
				931.799,1272.059 934.163,1270.909 939.991,1273.391 943.008,1280.162 939.85,1280.564 935.918,1284.094 934.41,1288.242 
				930.385,1291.377 923.73,1291.784 			"/>
		</g>
		<g id="slovakia">
			
				<polygon fill="#FFFFFF" stroke="#000000" stroke-width="0.7369" stroke-linecap="square" stroke-linejoin="bevel" stroke-miterlimit="10" points="
				924.332,1305.475 920.766,1299.665 921.887,1295.361 923.73,1291.784 930.385,1291.377 934.41,1288.242 935.918,1284.094 
				939.85,1280.564 943.008,1280.162 946.787,1281.924 949.627,1278.736 953.287,1282.036 954.006,1285.703 956.564,1285.938 
				959.747,1282.278 965.875,1283.93 967.627,1281.783 973.626,1281.542 978.252,1285.22 984.111,1287.605 979.602,1298.833 
				974.846,1299.775 971.693,1296.098 968.534,1297.173 961.732,1296.742 959.775,1300.619 954.755,1303.519 950.541,1302.217 
				949.898,1304.204 942.944,1304.868 942.997,1308.699 940.633,1309.667 931.215,1309.871 			"/>
		</g>
		<g id="hungary">
			
				<polygon fill="#FFFFFF" stroke="#000000" stroke-width="0.7369" stroke-linecap="square" stroke-linejoin="bevel" stroke-miterlimit="10" points="
				958.645,1336.37 950.93,1335.446 947.812,1338.38 942.631,1339.595 938.382,1342.169 932.252,1341.644 926.801,1339.193 
				924.18,1335.319 918.139,1330.57 914.702,1324.218 912.639,1324.211 916.995,1321.984 916.411,1315.358 919.311,1313.208 
				917.59,1309.713 923.082,1310.486 924.332,1305.475 931.215,1309.871 940.633,1309.667 942.997,1308.699 942.944,1304.868 
				949.898,1304.204 950.541,1302.217 954.755,1303.519 959.775,1300.619 961.732,1296.742 968.534,1297.173 971.693,1296.098 
				974.846,1299.775 979.602,1298.833 987.848,1306.437 985.172,1309.382 980.957,1310.209 978.076,1313.755 972.666,1326.54 
				970.467,1328.242 968.805,1333.445 965.133,1333.735 962.646,1336.117 			"/>
		</g>
		<g id="slovenia">
			
				<polygon fill="#FFFFFF" stroke="#000000" stroke-width="0.7369" stroke-linecap="square" stroke-linejoin="bevel" stroke-miterlimit="10" points="
				886.1,1329.758 895.266,1331.679 898.842,1328.36 911.266,1326.068 912.639,1324.211 914.702,1324.218 918.139,1330.57 
				914.643,1329.692 911.589,1333.435 907.617,1334.673 908.03,1340.707 904.01,1341.928 903.385,1346.737 898.382,1346.696 
				895.547,1343.513 893.573,1346.371 884.697,1346.437 886.083,1344.628 885.516,1335.403 882.387,1333.481 			"/>
		</g>
		<g id="croatia">
			
				<polygon fill="#FFFFFF" stroke="#000000" stroke-width="0.7369" stroke-linecap="square" stroke-linejoin="bevel" stroke-miterlimit="10" points="
				945.102,1356.196 942.962,1356.172 940.604,1352.72 936.467,1351.865 932.023,1353.249 924.516,1351.693 921.533,1349.843 
				916.999,1350.691 915.309,1353.909 911.643,1350.656 909.498,1350.745 908.52,1356.961 910.971,1358.813 913.594,1364.104 
				913.01,1366.505 917.312,1369.327 922.223,1375.928 925.311,1377.798 925.852,1380.667 929.023,1383.307 928.898,1385.706 
				921.172,1378.715 915.32,1376.47 912.539,1377.614 910.741,1374.438 905.385,1370.76 901.989,1366.54 903.311,1363.864 
				899.143,1358.789 898.441,1352.212 892.8,1348.506 891.08,1354.198 888.162,1357.581 884.821,1351.548 884.697,1346.437 
				893.573,1346.371 895.547,1343.513 898.382,1346.696 903.385,1346.737 904.01,1341.928 908.03,1340.707 907.617,1334.673 
				911.589,1333.435 914.643,1329.692 918.139,1330.57 924.18,1335.319 926.801,1339.193 932.252,1341.644 938.382,1342.169 
				942.631,1339.595 944.182,1341.668 944.453,1348.011 946.516,1350.656 			"/>
		</g>
		<g id="bosnia_and_herzegovina">
			
				<polygon fill="#FFFFFF" stroke="#000000" stroke-width="0.7369" stroke-linecap="square" stroke-linejoin="bevel" stroke-miterlimit="10" points="
				929.689,1386.536 928.898,1385.706 929.023,1383.307 925.852,1380.667 925.311,1377.798 922.223,1375.928 917.312,1369.327 
				913.01,1366.505 913.594,1364.104 910.971,1358.813 908.52,1356.961 909.498,1350.745 911.643,1350.656 915.309,1353.909 
				916.999,1350.691 921.533,1349.843 924.516,1351.693 932.023,1353.249 936.467,1351.865 940.604,1352.72 942.962,1356.172 
				945.102,1356.196 948.896,1356.144 945.82,1364.069 951.518,1368.761 949.986,1376.152 947.2,1377.041 944.76,1376.388 
				941.364,1380.95 938.623,1387.449 938.623,1391.416 			"/>
		</g>
		<g id="serbia">
			
				<polygon fill="#FFFFFF" stroke="#000000" stroke-width="0.7369" stroke-linecap="square" stroke-linejoin="bevel" stroke-miterlimit="10" points="
				956.54,1391.487 956.54,1388.286 959.954,1387.251 955.414,1383.483 951.809,1382.062 947.2,1377.041 949.986,1376.152 
				951.518,1368.761 945.82,1364.069 948.896,1356.144 945.102,1356.196 946.516,1350.656 944.453,1348.011 944.182,1341.668 
				942.631,1339.595 947.812,1338.38 950.93,1335.446 958.645,1336.37 962.24,1339.818 964.709,1346.483 972.536,1351.782 
				971.256,1357.416 977.893,1359.763 979.867,1362.09 983.038,1362.09 985.479,1366.098 981.995,1372.231 983.928,1377.62 
				989.066,1381.928 986.145,1386.488 982.832,1387.574 984.116,1392.654 981.973,1395.053 976.266,1394.953 964.566,1398.653 
				962.287,1401.653 961.573,1396.709 958.516,1395.005 			"/>
		</g>
		<g id="montenegro">
			
				<polygon fill="#FFFFFF" stroke="#000000" stroke-width="0.7369" stroke-linecap="square" stroke-linejoin="bevel" stroke-miterlimit="10" points="
				938.623,1391.416 938.623,1387.449 941.364,1380.95 944.76,1376.388 947.2,1377.041 951.809,1382.062 955.414,1383.483 
				959.954,1387.251 956.54,1388.286 956.54,1391.487 951.407,1391.763 947.859,1397.162 948.737,1402.148 943.321,1395.72 
				939.155,1393.167 			"/>
		</g>
		<g id="albania">
			
				<polygon fill="#FFFFFF" stroke="#000000" stroke-width="0.7369" stroke-linecap="square" stroke-linejoin="bevel" stroke-miterlimit="10" points="
				955.857,1433.744 954.165,1428.652 949.663,1425.995 949.691,1421.085 948.064,1419.901 950.357,1410.961 949.568,1408.703 
				951.289,1402.786 948.737,1402.148 947.859,1397.162 951.407,1391.763 956.54,1391.487 958.516,1395.005 961.573,1396.709 
				962.287,1401.653 960.967,1407.335 963.961,1416.028 966.654,1416.817 967.303,1421.085 964.525,1423.019 963.146,1427.885 
				959.245,1429.4 960.307,1431.527 958.184,1434.375 			"/>
		</g>
		<g id="macedonia">
			
				<polygon fill="#FFFFFF" stroke="#000000" stroke-width="0.7369" stroke-linecap="square" stroke-linejoin="bevel" stroke-miterlimit="10" points="
				962.287,1401.653 964.566,1398.653 976.266,1394.953 981.973,1395.053 987.051,1399.484 989.355,1403.987 988.295,1409.663 
				986.104,1412.403 977.669,1412.762 973.491,1416.569 966.654,1416.817 963.961,1416.028 960.967,1407.335 			"/>
		</g>
		<g id="greece">
			
				<polygon fill="#FFFFFF" stroke="#000000" stroke-width="0.7369" stroke-linecap="square" stroke-linejoin="bevel" stroke-miterlimit="10" points="
				955.857,1433.744 958.184,1434.375 960.307,1431.527 959.245,1429.4 963.146,1427.885 964.525,1423.019 967.303,1421.085 
				966.654,1416.817 973.491,1416.569 977.669,1412.762 986.104,1412.403 988.295,1409.663 996.033,1409.133 1001.131,1406.608 
				1005.268,1406.557 1009.077,1409.511 1013.867,1410.965 1023.828,1409.476 1023.139,1404.146 1026.279,1404.2 1028.596,1405.681 
				1029.009,1409.829 1025.878,1411.248 1026.274,1415.379 1022.772,1418.574 1022.525,1417.201 1013.144,1415.551 
				1008.981,1416.871 1004.473,1415.646 1001.102,1418.839 998.337,1417.825 996.653,1419.399 999.075,1423.955 996.175,1425.937 
				992.479,1426.118 987.895,1423.523 987.424,1420.638 984.411,1422.527 984.229,1428.452 987.424,1432.442 988.354,1438.513 
				987.057,1439.849 988.955,1443.039 988.495,1447.187 994.943,1450.769 996.498,1452.904 1000.919,1455.072 1000.477,1462.693 
				995.25,1458.097 991.637,1458.167 990.158,1460.046 990.439,1465.558 986.545,1463.572 985.997,1465.033 990.275,1474.978 
				988.672,1478.412 986.598,1474.581 981.871,1475.961 979.614,1471.541 977.145,1472.159 977.498,1474.598 974.641,1474.339 
				973.278,1470.909 974.039,1465.64 970.002,1460.855 968.062,1460.013 971.098,1454.843 973.532,1455.697 976.303,1453.028 
				983.874,1456.222 987.487,1458.669 991.501,1455.656 985.572,1453.259 977.346,1452.044 972.825,1453.363 970.803,1451.707 
				968.658,1453.588 966.701,1448.331 963.872,1446.438 963.312,1442.578 958.131,1437.368 			"/>
			
				<polygon fill="#FFFFFF" stroke="#000000" stroke-width="0.7369" stroke-linecap="square" stroke-linejoin="bevel" stroke-miterlimit="10" points="
				1000.654,1452.656 996.133,1451.908 995.632,1449.751 991.206,1446.049 992.385,1443.121 995.573,1447.005 1001.803,1448.678 
				1002.174,1452.279 			"/>
			
				<polygon fill="#FFFFFF" stroke="#000000" stroke-width="0.7369" stroke-linecap="square" stroke-linejoin="bevel" stroke-miterlimit="10" points="
				962.08,1451.214 964.756,1456.198 959.534,1455.021 			"/>
			
				<polygon fill="#FFFFFF" stroke="#000000" stroke-width="0.7369" stroke-linecap="square" stroke-linejoin="bevel" stroke-miterlimit="10" points="
				996.57,1496.169 994.784,1495.209 995.32,1492.056 1000.553,1492.016 1003.118,1494.271 1010.779,1493.724 1018.512,1494.565 
				1020.191,1497.695 1025.614,1495.375 1024.93,1498.715 1008.463,1499.937 1008.115,1497.985 1004.45,1496.646 			"/>
		</g>
		<g id="bulgaria">
			
				<polygon fill="#FFFFFF" stroke="#000000" stroke-width="0.7369" stroke-linecap="square" stroke-linejoin="bevel" stroke-miterlimit="10" points="
				1044.597,1400.161 1039.676,1401.247 1035.945,1398.252 1029.162,1400.298 1026.279,1404.2 1023.139,1404.146 1023.828,1409.476 
				1013.867,1410.965 1009.077,1409.511 1005.268,1406.557 1001.131,1406.608 996.033,1409.133 988.295,1409.663 989.355,1403.987 
				987.051,1399.484 981.973,1395.053 984.116,1392.654 982.832,1387.574 986.145,1386.488 989.066,1381.928 983.928,1377.62 
				981.995,1372.231 985.479,1366.098 989.428,1368.792 987.564,1371.95 993.7,1371.79 1002.198,1374.414 1005.664,1373.24 
				1015.388,1375.355 1019.914,1373.983 1023.787,1369.834 1033.764,1367.293 1037.878,1369.232 1043.589,1369.511 
				1044.426,1371.731 1050.914,1373.454 1049.766,1378.874 1046.118,1378.703 1043.199,1384.297 1043.276,1389.349 
				1041.49,1389.223 1038.351,1392.812 1040.89,1393.633 			"/>
		</g>
		<g id="romania">
			
				<polygon fill="#FFFFFF" stroke="#000000" stroke-width="0.7369" stroke-linecap="square" stroke-linejoin="bevel" stroke-miterlimit="10" points="
				985.479,1366.098 983.038,1362.09 979.867,1362.09 977.893,1359.763 971.256,1357.416 972.536,1351.782 964.709,1346.483 
				962.24,1339.818 958.645,1336.37 962.646,1336.117 965.133,1333.735 968.805,1333.445 970.467,1328.242 972.666,1326.54 
				978.076,1313.755 980.957,1310.209 985.172,1309.382 987.848,1306.437 990.405,1304.204 994.59,1305.978 1002.834,1307.272 
				1006.27,1306.46 1010.065,1310.344 1014.888,1307.062 1024.034,1305.93 1025.795,1302.759 1029.315,1301.409 1033.369,1303.101 
				1036.682,1311.322 1042.21,1319.614 1045.327,1322.384 1047.201,1331.36 1045.487,1338.339 1046.831,1346.96 1052.223,1350.569 
				1057.994,1347.321 1061.978,1347.903 1062.901,1350.697 1062.284,1356.443 1053.271,1358.46 1051.593,1364.506 
				1050.914,1373.454 1044.426,1371.731 1043.589,1369.511 1037.878,1369.232 1033.764,1367.293 1023.787,1369.834 
				1019.914,1373.983 1015.388,1375.355 1005.664,1373.24 1002.198,1374.414 993.7,1371.79 987.564,1371.95 989.428,1368.792 			"/>
		</g>
		<g id="moldova">
			
				<polygon fill="#FFFFFF" stroke="#000000" stroke-width="0.7369" stroke-linecap="square" stroke-linejoin="bevel" stroke-miterlimit="10" points="
				1029.315,1301.409 1030.058,1300.03 1041.826,1298.203 1045.404,1301.657 1053.402,1303.601 1057.486,1306.437 
				1058.394,1309.549 1057.038,1313.125 1060.126,1317.351 1062.183,1317.545 1061.906,1322.95 1066.31,1326.28 1065.514,1329.622 
				1062.213,1332.168 1057.792,1329.463 1054.805,1331.313 1055.187,1338.11 1049.889,1343.523 1050.331,1345.647 1046.831,1346.96 
				1045.487,1338.339 1047.201,1331.36 1045.327,1322.384 1042.21,1319.614 1036.682,1311.322 1033.369,1303.101 			"/>
		</g>
		<g id="ukraine">
			
				<polygon fill="#FFFFFF" stroke="#000000" stroke-width="0.7369" stroke-linecap="square" stroke-linejoin="bevel" stroke-miterlimit="10" points="
				1062.901,1350.697 1061.978,1347.903 1057.994,1347.321 1052.223,1350.569 1046.831,1346.96 1050.331,1345.647 
				1049.889,1343.523 1055.187,1338.11 1054.805,1331.313 1057.792,1329.463 1062.213,1332.168 1065.514,1329.622 1066.31,1326.28 
				1061.906,1322.95 1062.183,1317.545 1060.126,1317.351 1057.038,1313.125 1058.394,1309.549 1057.486,1306.437 
				1053.402,1303.601 1045.404,1301.657 1041.826,1298.203 1030.058,1300.03 1029.315,1301.409 1025.795,1302.759 1024.034,1305.93 
				1014.888,1307.062 1010.065,1310.344 1006.27,1306.46 1002.834,1307.272 994.59,1305.978 990.405,1304.204 987.848,1306.437 
				979.602,1298.833 984.111,1287.605 986.338,1284.105 985.207,1279.945 990.24,1272.654 996.971,1265.228 1001.332,1262.039 
				999.594,1258.11 1001.549,1257.289 996.594,1249.345 995.716,1245.097 999.693,1244.065 1004.467,1238.706 1013.108,1237.363 
				1020.263,1237.787 1032.785,1241.14 1036.492,1243.833 1042.964,1243.417 1051.415,1244.431 1056.467,1243.128 
				1059.331,1247.842 1072.769,1244.842 1073.964,1239.838 1077.266,1235.199 1086.406,1234.682 1090.171,1235.83 
				1092.843,1230.867 1098.966,1232.158 1102.173,1229.784 1109.108,1230.066 1111.672,1233.09 1115.29,1241.742 1112.149,1242.466 
				1115.214,1249.788 1123.384,1250.924 1126.153,1253.699 1127.144,1263.413 1129.748,1265.864 1134.798,1264.562 
				1140.374,1268.08 1149.362,1264.32 1152.514,1270.486 1156.474,1272.937 1157.401,1270.745 1165.769,1275.13 1172.931,1276.667 
				1178.111,1280.899 1179.361,1284.684 1175.017,1290.618 1173.738,1295.615 1175.829,1296.406 1177.492,1300.743 
				1174.521,1308.676 1165.274,1307.861 1163.736,1310.809 1159.251,1312.142 1157.942,1320.316 1150.217,1320.817 
				1141.624,1326.133 1135.8,1328.025 1132.122,1327.748 1125.924,1332.603 1116.034,1335.733 1112.703,1333.699 1109.869,1337.591 
				1114.949,1337.943 1114.949,1340.06 1121.915,1344.062 1122.718,1348.274 1125.816,1349.524 1133.072,1348.387 
				1134.662,1346.807 1139.854,1347.439 1135.683,1353.933 1131.563,1354.241 1127.902,1352.166 1123.212,1357.062 
				1119.003,1357.01 1114.706,1361.064 1110.204,1363.704 1107.769,1363.469 1105.649,1357.451 1106.167,1352.654 
				1099.166,1348.636 1094.451,1348.682 1094.662,1346.82 1099.126,1343.654 1108.419,1339.394 1101.978,1335.646 
				1094.769,1336.966 1087.896,1333.665 1090.373,1329.216 1087.784,1327.713 1079.676,1328.161 1075.855,1329.409 
				1075.107,1332.133 1069.356,1340.22 1064.428,1342.423 1062.401,1346.342 			"/>
		</g>
		<g id="belarus">
			
				<polygon fill="#FFFFFF" stroke="#000000" stroke-width="0.7369" stroke-linecap="square" stroke-linejoin="bevel" stroke-miterlimit="10" points="
				995.716,1245.097 996.34,1236.521 990.846,1231.534 993.417,1227.314 999.446,1223.018 999.357,1218.194 994.602,1200.775 
				1002.395,1200.475 1004.443,1201.842 1009.265,1200.071 1017.346,1192.905 1019.644,1188.711 1019.361,1184.766 
				1027.954,1177.771 1029.073,1167.523 1033.205,1164.42 1040.017,1165.208 1043.589,1159.017 1046.312,1158.121 
				1060.085,1161.938 1060.917,1167.182 1066.32,1163.946 1072.072,1165.078 1076.894,1168.944 1075.673,1174.826 
				1078.019,1179.745 1075.302,1184.557 1077.808,1186.283 1081.355,1195.175 1087.31,1199.662 1086.188,1203.458 
				1093.861,1204.954 1096.831,1211.752 1090.043,1216.81 1082.435,1214.562 1080.672,1217.988 1083.683,1221.091 
				1084.296,1230.975 1086.406,1234.682 1077.266,1235.199 1073.964,1239.838 1072.769,1244.842 1059.331,1247.842 
				1056.467,1243.128 1051.415,1244.431 1042.964,1243.417 1036.492,1243.833 1032.785,1241.14 1020.263,1237.787 
				1013.108,1237.363 1004.467,1238.706 999.693,1244.065 			"/>
		</g>
		<g id="lithuania">
			
				<polygon fill="#FFFFFF" stroke="#000000" stroke-width="0.7369" stroke-linecap="square" stroke-linejoin="bevel" stroke-miterlimit="10" points="
				986.639,1192.881 985.59,1190.409 987.223,1182.626 984.605,1179.812 978.588,1180.13 970.944,1175.117 969.76,1175.853 
				967.691,1166.385 967.408,1159.57 970.82,1156.345 978.405,1152.843 985.59,1153.998 988.473,1152.728 1005.387,1155.742 
				1010.015,1152.133 1012.041,1156.833 1017.651,1158.097 1029.073,1167.523 1027.954,1177.771 1019.361,1184.766 
				1019.644,1188.711 1017.346,1192.905 1009.265,1200.071 1004.443,1201.842 1002.395,1200.475 994.602,1200.775 994.088,1196.485 
				988.955,1192.465 			"/>
		</g>
		<g id="latvia">
			
				<polygon fill="#FFFFFF" stroke="#000000" stroke-width="0.7369" stroke-linecap="square" stroke-linejoin="bevel" stroke-miterlimit="10" points="
				1003.589,1123.053 1014.486,1118.633 1022.661,1124.065 1029.003,1130.209 1032.015,1128.037 1037.489,1130.027 
				1042.511,1134.392 1041.144,1142.747 1043.824,1146.638 1047.066,1155.604 1046.312,1158.121 1043.589,1159.017 
				1040.017,1165.208 1033.205,1164.42 1029.073,1167.523 1017.651,1158.097 1012.041,1156.833 1010.015,1152.133 
				1005.387,1155.742 988.473,1152.728 985.59,1153.998 978.405,1152.843 970.82,1156.345 967.408,1159.57 966.542,1156.372 
				967.525,1144.226 971.445,1139.601 971.463,1135.254 974.917,1129.222 984.653,1125.609 985.053,1129.004 990.518,1133.559 
				991.85,1138.954 995.51,1141.488 999.936,1140.562 1004.237,1136.542 			"/>
		</g>
		<g id="estonia">
			
				<polygon fill="#FFFFFF" stroke="#000000" stroke-width="0.7369" stroke-linecap="square" stroke-linejoin="bevel" stroke-miterlimit="10" points="
				1037.489,1130.027 1032.015,1128.037 1029.003,1130.209 1022.661,1124.065 1014.486,1118.633 1003.589,1123.053 
				1006.283,1114.062 1003.766,1112.243 1001.249,1115.43 994.564,1108.207 993.564,1098.815 994.613,1094.255 1000.4,1092.934 
				1004.566,1088.876 1008.115,1089.342 1022.054,1085.405 1033.062,1089.524 1042.764,1090.347 1044.626,1088.779 
				1042.121,1097.84 1038.038,1103.773 1038.639,1115.904 1042.457,1123.146 1039.446,1124.163 			"/>
			
				<polygon fill="#FFFFFF" stroke="#000000" stroke-width="0.7369" stroke-linecap="square" stroke-linejoin="bevel" stroke-miterlimit="10" points="
				984.194,1105.87 982.089,1100.195 984.311,1097.676 989.521,1102.423 			"/>
			
				<polygon fill="#FFFFFF" stroke="#000000" stroke-width="0.7369" stroke-linecap="square" stroke-linejoin="bevel" stroke-miterlimit="10" points="
				980.073,1117.33 976.561,1114.971 976.938,1110.656 988.03,1107.36 991.926,1109.923 986.314,1115.333 980.993,1116.592 			"/>
		</g>
		<g id="russia">
			<polygon fill="none" stroke="#000000" stroke-miterlimit="10" points="984.605,1179.812 978.588,1180.13 970.944,1175.117 
				969.76,1175.853 967.868,1182.694 961.645,1181.37 960.436,1181.692 955.098,1182.074 956.145,1189.065 953.499,1191.478 
				971.404,1193.606 986.639,1192.881 985.59,1190.409 987.223,1182.626 			"/>
			
				<polygon fill="none" stroke="#000000" stroke-width="0.7369" stroke-linecap="square" stroke-linejoin="bevel" stroke-miterlimit="10" points="
				2304.45,1230.969 2304.551,1238.672 2309.271,1246.062 2311.263,1251.756 2308.93,1262.47 2310.38,1270.251 2309.795,1281.164 
				2308.063,1291.242 2306.826,1293.047 2310.185,1301.644 2310.533,1306.448 2308.039,1312.289 2308.999,1321.43 
				2306.382,1328.731 2307.639,1337.478 2309.426,1339.929 2314.287,1327.241 2317.104,1328.601 2321.473,1326.857 
				2319.732,1318.047 2315.449,1312.673 2314.387,1305.593 2319.443,1290.376 2319.915,1286.287 2323.981,1282.202 
				2332.256,1285.554 2333.683,1284.518 2330.56,1271.341 2328.351,1266.796 2325.867,1253.346 2324.528,1245.615 2320.924,1237.34 
				2321.23,1229.73 2323.281,1223.337 2322.728,1215.802 2318.226,1203.39 2314.098,1208.245 2305.899,1211.614 2307.604,1218.174 
				2306.661,1226.1 			"/>
			
				<polygon fill="none" stroke="#000000" stroke-width="0.7369" stroke-linecap="square" stroke-linejoin="bevel" stroke-miterlimit="10" points="
				1927.942,700.051 1911.406,701.357 1914.009,696.816 1625.099,696.816 1630.004,707.421 1628.849,723.405 1634.47,730.445 
				1645.392,733.156 1645.325,739.907 1651.315,747.336 1658.735,749.811 1661.221,756.602 1655.94,770.088 1662.543,796.389 
				1653.738,800.997 1655.494,781.958 1645.402,777.895 1646.041,769.446 1652.7,764.723 1657.81,754.939 1651.763,751.29 
				1639.34,753.689 1615.245,729.968 1605.256,728.773 1595.949,735.716 1600.317,747.489 1593.274,748.833 1587.305,741.816 
				1577.338,747.645 1579.482,757.193 1595.025,768.468 1594.129,772.661 1580.851,771.229 1568.54,765.83 1571.066,755.404 
				1567.942,750.734 1574.003,732.669 1571.427,716.018 1563.517,714.9 1566.789,729.102 1565.292,738.895 1549.226,749.871 
				1543.779,764.462 1549.668,770.04 1558.113,794.055 1551.023,807.091 1549.113,819.754 1552.773,827.699 1551.694,837.818 
				1562.492,840.623 1570.931,835.243 1583.608,838.592 1595.425,847.111 1596.387,857.936 1600.488,865.895 1593.327,870.684 
				1592.779,879.936 1589.107,880.357 1591.735,866.6 1591.305,857.877 1584.151,850.836 1583.433,844.398 1570.743,846.266 
				1559.917,851.77 1558.606,862.954 1562.532,868.959 1562.691,882.459 1553.414,894.1 1553.582,900.398 1549.195,907.118 
				1536.242,915.504 1536.119,922.004 1514.842,921.145 1500.313,913.43 1500.32,909.362 1508.935,907.123 1517.747,916.17 
				1527.332,912.393 1525.71,904.441 1529.806,903.915 1536.873,892.882 1538.476,885.084 1545.665,877.686 1544.534,866.884 
				1550.621,858.65 1540.298,847.948 1537.626,837.477 1539.925,816.523 1537.103,802.02 1540.898,797.714 1541.563,783.673 
				1538.863,772.938 1530.13,761.289 1536.349,753.273 1542.06,732.669 1541.446,717.268 1527.69,709.973 1506.238,711.158 
				1498.787,717.906 1493.118,749.762 1487.613,759.58 1475.796,768.402 1472.555,782.721 1480.618,787.661 1478.042,804.938 
				1480.506,808.303 1474.293,819.391 1489.063,830.609 1493.206,843.984 1500.103,848.273 1494.244,862.27 1486.66,859.309 
				1478.185,848.223 1462.543,840.629 1449.324,828.848 1437.347,822.402 1421.558,819.729 1409.589,815.895 1406.446,822.066 
				1401.043,823.293 1409.57,840.428 1409.394,846.078 1403.487,852.277 1396.629,854.262 1398.909,859.512 1394.989,863.391 
				1388.973,860.712 1392.845,850.387 1387.447,843.137 1376.767,847.854 1369.858,856.438 1354.648,853.592 1346.32,857.794 
				1342.23,864.027 1335.452,867.23 1329.664,854.426 1332.958,848.091 1330.242,844.159 1300.221,862.963 1296.902,862.338 
				1285.558,873.17 1276.67,877.909 1275.763,882.305 1266.22,883.607 1262.678,897.062 1262.873,902.76 1254.273,906.85 
				1244.402,907.324 1239.67,897.587 1232.138,892.451 1237.183,881.178 1251.958,875.675 1242.958,858.971 1235.868,856.178 
				1224.265,857.34 1216.154,853.023 1214.704,855.451 1224.57,865.518 1223.114,882.021 1219.09,895.178 1227.357,904.993 
				1227.212,911.559 1222.394,928.048 1214.015,918.52 1207.103,919.291 1201.261,916.076 1192.532,928.477 1184.812,931.574 
				1175.423,941.173 1174.221,946.21 1182.495,962.432 1183.31,968.865 1175.481,965.686 1172.47,968.29 1144.699,951.464 
				1142.39,957.134 1138.028,958.551 1145.845,972.262 1155.09,974.626 1156.216,982.146 1148.225,987.596 1136.077,982.184 
				1136.231,979.035 1128.681,972.387 1125.663,974.373 1119.712,968.689 1121.355,961.153 1118.015,950.564 1121.673,937.741 
				1117.259,928.052 1104.63,913.936 1094.545,905.707 1098.8,903.947 1105.253,910.232 1120.353,913.491 1127.708,919.533 
				1143.956,922.721 1151.708,926.873 1162.068,928.755 1169.483,926.926 1182.418,919.169 1191.029,906.962 1192.922,898.982 
				1189.815,895.213 1188.507,881.746 1182.644,880.607 1181.517,876.348 1172.747,871.582 1153.381,853.624 1132.878,837.762 
				1106.999,832.987 1098.723,824.861 1101.334,820.29 1088.097,812.619 1085.781,821.737 1076.104,818.169 1076.204,826.325 
				1067.711,827.38 1059.019,833.282 1055.064,841.536 1049.547,857.375 1052.158,867.587 1059.496,870.949 1066.945,882.371 
				1066.18,886.917 1056.537,903.141 1062.543,921.145 1065.56,926.521 1068.124,938.073 1064.617,939.568 1065.189,951.604 
				1062.701,955.032 1064.506,962.305 1068.206,962.877 1067.305,972.354 1072.874,976.562 1073.228,981.492 1066.615,989.342 
				1071.93,995.689 1080.401,1002.521 1084.167,1009.777 1080.576,1019.443 1063.115,1042.473 1042.321,1065.086 1046.077,1065.471 
				1055.577,1072.914 1065.296,1074.079 1068.349,1080.317 1057.691,1077.154 1044.626,1088.779 1042.121,1097.84 
				1038.038,1103.773 1038.639,1115.904 1042.457,1123.146 1039.446,1124.163 1037.489,1130.027 1042.511,1134.392 
				1041.144,1142.747 1043.824,1146.638 1047.066,1155.604 1046.312,1158.121 1060.085,1161.938 1060.917,1167.182 
				1066.32,1163.946 1072.072,1165.078 1076.894,1168.944 1075.673,1174.826 1078.019,1179.745 1075.302,1184.557 
				1077.808,1186.283 1081.355,1195.175 1087.31,1199.662 1086.188,1203.458 1093.861,1204.954 1096.831,1211.752 1090.043,1216.81 
				1082.435,1214.562 1080.672,1217.988 1083.683,1221.091 1084.296,1230.975 1086.406,1234.682 1090.171,1235.83 
				1092.843,1230.867 1098.966,1232.158 1102.173,1229.784 1109.108,1230.066 1111.672,1233.09 1115.29,1241.742 1112.149,1242.466 
				1115.214,1249.788 1123.384,1250.924 1126.153,1253.699 1127.144,1263.413 1129.748,1265.864 1134.798,1264.562 
				1140.374,1268.08 1149.362,1264.32 1152.514,1270.486 1156.474,1272.937 1157.401,1270.745 1165.769,1275.13 1172.931,1276.667 
				1178.111,1280.899 1179.361,1284.684 1175.017,1290.618 1173.738,1295.615 1175.829,1296.406 1177.492,1300.743 
				1174.521,1308.676 1165.274,1307.861 1163.736,1310.809 1159.251,1312.142 1157.942,1320.316 1161.532,1320.28 
				1169.206,1317.805 1169.293,1321.96 1153.618,1328.201 1158.285,1336.111 1154.784,1337.696 1153.222,1342.347 
				1150.793,1344.132 1148.647,1349.048 1143.821,1349.636 1140.085,1352.023 1146.491,1354.339 1149.609,1359.161 
				1153.835,1358.831 1157.519,1363.546 1161.98,1364.478 1166.017,1367.299 1177.532,1379.087 1178.405,1376.465 1185.22,1376.588 
				1189.044,1379.134 1195.214,1381.491 1204.379,1381.232 1209.159,1382.157 1213.065,1385.859 1219.961,1388.646 
				1220.874,1391.151 1227.392,1388.628 1230.816,1389.919 1232.179,1388.47 1237.019,1391.995 1241.373,1392.737 
				1240.017,1396.603 1243.883,1399.467 1249.039,1401.43 1256.874,1406.392 1258.164,1409.968 1261.506,1411.59 1265.266,1411.392 
				1266.98,1407.858 1270.398,1406.221 1274.755,1399.22 1285.728,1389.228 1280.865,1380.295 1277.72,1372.408 1276.9,1365.124 
				1273.812,1357.87 1282.262,1345.669 1288.804,1340.461 1282.415,1336.459 1279.758,1332.657 1271.685,1327.488 
				1272.815,1325.804 1277.595,1325.728 1272.55,1316.131 1266.62,1309.277 1256.72,1308.793 1256.46,1301.162 1249.564,1298.74 
				1252.665,1290.018 1255.599,1287.2 1252.924,1282.757 1254.356,1274.187 1258.947,1270.569 1258.659,1266.755 1262.071,1263.949 
				1271.16,1275.023 1276.345,1271.312 1273.935,1261.604 1282.161,1256.795 1281.944,1252.999 1286.193,1252.48 1291.31,1249.534 
				1297.716,1240.941 1302.519,1242.308 1305.288,1245.714 1308.359,1245.532 1309.639,1242.26 1314.607,1240.96 1316.439,1245.866 
				1326.34,1245.721 1329.134,1250.394 1332.181,1250.982 1338.292,1256.918 1337.149,1261.008 1340.344,1261.639 
				1339.908,1253.794 1351.495,1262.642 1358.537,1256.388 1360.782,1253.129 1367.408,1252.953 1369.942,1256.14 
				1374.349,1255.688 1374.779,1252.392 1383.433,1253.323 1384.464,1257.873 1387.617,1260.024 1397.199,1262.4 1399.121,1257.208 
				1402.781,1259.87 1407.798,1260.39 1414.574,1258.249 1416.342,1250.924 1415.788,1246.923 1410.071,1245.585 1409.482,1243.44 
				1403.435,1242.19 1404.389,1239.945 1399.833,1238.73 1404.361,1234.021 1411.009,1230.468 1407.366,1223.018 1411.444,1218.754 
				1415.317,1217.896 1420.933,1219.529 1422.63,1216.166 1412.958,1213.224 1416.317,1207.408 1410.902,1206.495 
				1411.599,1200.463 1433.739,1197.97 1443.56,1193.884 1454.326,1192.056 1460.262,1187.598 1463.313,1188.245 1483.316,1183.489 
				1490.242,1181.307 1490.171,1177.225 1494.856,1176.785 1498.465,1172.076 1506.51,1173.798 1512.785,1177.992 
				1515.344,1174.926 1521.154,1178.772 1520.884,1182.765 1523.588,1193.606 1526.777,1197.635 1529.735,1194.946 
				1543.126,1197.351 1544.169,1199.985 1549.449,1200.54 1546.215,1207.66 1547.945,1208.755 1553.567,1206.272 1557.217,1207.245 
				1565.95,1203.417 1573.235,1197.693 1582.07,1193.61 1582.678,1200.28 1597.34,1212.758 1603.394,1223.071 1615.93,1246.627 
				1620.574,1256.671 1626.167,1255.032 1625.937,1250.93 1628.605,1248.913 1632.55,1251.242 1632.926,1255.298 1636.758,1255.032 
				1637.239,1258.958 1644.313,1259.359 1654.439,1256.353 1655.807,1254.454 1663.585,1256.569 1667.238,1261.497 
				1668.307,1267.155 1676.581,1270.539 1679.728,1279.037 1683.741,1278.606 1689.576,1280.858 1694.449,1275.336 
				1696.347,1277.068 1699.07,1284.34 1702.489,1287.383 1707.946,1286.021 1711.636,1284.082 1712.16,1281.112 1719.155,1281.452 
				1728.803,1276.648 1727.925,1273.515 1732.428,1270.478 1739.913,1267.881 1743.413,1264.356 1748.053,1263.071 
				1752.065,1259.652 1759.027,1257.773 1761.165,1259.919 1765.09,1258.444 1766.403,1261.526 1779.582,1262.358 
				1780.673,1268.357 1783.214,1271.404 1787.109,1270.979 1793.139,1273.679 1796.485,1271.47 1802.928,1273.687 
				1809.587,1273.786 1813.365,1276.409 1822.082,1270.532 1824.122,1262.735 1821.316,1260.961 1818.711,1254.454 
				1821.233,1246.251 1824.056,1242.024 1827.592,1240.54 1831.901,1235.454 1840.074,1238.871 1843.012,1241.307 
				1848.945,1241.389 1858.387,1246.439 1860.23,1245.804 1867.422,1248.666 1866.808,1252.322 1868.623,1262.057 
				1874.823,1266.267 1878.851,1266.807 1883.222,1269.501 1887.454,1269.301 1891.467,1266.707 1902.211,1263.501 
				1909.173,1264.763 1912.006,1266.684 1917.47,1266.242 1923.204,1271.822 1931.297,1273.103 1930.894,1277.34 1937.319,1283.086 
				1944.746,1282.844 1948.694,1285.031 1962.386,1286.423 1968.355,1283.139 1977.277,1281.529 1987.976,1278.683 
				1988.978,1275.418 1999.951,1267.579 2005.38,1267.303 2009.205,1269.153 2013.406,1273.533 2017.178,1273.929 
				2022.901,1271.404 2028.058,1274.793 2030.828,1276.756 2040.959,1280.103 2049.45,1272.76 2055.833,1271.582 2057.291,1265.883 
				2055.392,1265.771 2059.207,1256.164 2061.728,1253.093 2065.712,1242.656 2071.753,1238.17 2073.191,1233.786 
				2071.458,1230.409 2072.418,1226.802 2067.497,1221.043 2074.129,1213.246 2077.959,1213.399 2084.813,1210.771 
				2096.017,1210.04 2104.599,1208.338 2114.341,1214.941 2121.789,1214.853 2128.024,1218.756 2130.748,1225.069 
				2134.896,1229.955 2135.94,1236.732 2140.957,1247.388 2141.394,1253.418 2145.371,1258.987 2145.835,1266.431 
				2148.636,1268.269 2147.745,1274.847 2151.211,1278.871 2155.295,1279.874 2160.464,1278.877 2165.55,1283.069 
				2168.979,1281.631 2177.892,1291.236 2182.523,1291.055 2181.204,1295.586 2184.615,1300.804 2182.712,1303.885 
				2186.401,1310.851 2193.339,1311.235 2203.981,1310.091 2209.582,1304.044 2214.031,1304.538 2216.995,1301.532 
				2224.356,1299.175 2227.704,1301.179 2225.93,1305.818 2228.188,1310.639 2225.9,1314.435 2221.403,1318.047 2219.966,1327.5 
				2218.092,1331.101 2218.658,1334.147 2213.941,1341.019 2213.879,1344.18 2210.794,1346.088 2209.964,1352.07 2207.901,1353.692 
				2197.488,1350.231 2195.754,1348.765 2191.688,1354.435 2185.966,1356.586 2187.545,1358.849 2189.791,1368.769 
				2188.605,1376.687 2189.826,1377.903 2187.911,1386.124 2180.195,1388.716 2182.101,1393.579 2183.131,1395.525 
				2185.034,1392.048 2191.724,1386.796 2195.472,1379.907 2201.66,1381.615 2202.697,1385.863 2209.098,1388.323 
				2209.026,1389.632 2218.699,1386.742 2221.81,1383.672 2232.289,1377.194 2236.414,1371.902 2235.931,1370.434 
				2240.729,1363.356 2243.965,1361.619 2251.438,1350.674 2260.372,1341.573 2267.91,1329.398 2270.828,1320.817 
				2275.672,1315.483 2278.335,1308.753 2288.226,1298.19 2290.136,1290.547 2290.047,1284.34 2292.415,1279.484 2290.829,1274.193 
				2292.846,1270.597 2291.147,1262.564 2293.782,1255.385 2293.926,1248.838 2296.348,1243.58 2302.11,1237.642 2302.754,1233.728 
				2298.782,1228.292 2300.832,1224.691 2298.775,1218.695 2302.193,1215.58 2301.964,1212.991 2296.542,1210.347 
				2289.109,1202.364 2288.938,1198.831 2282.238,1194.887 2278.926,1196.312 2272.213,1193.821 2272.73,1198.885 
				2270.433,1203.257 2262.978,1207.786 2257.325,1208.685 2259.637,1203.039 2256.146,1199.063 2254.598,1203.278 
				2250.481,1204.171 2249.175,1201.292 2250.907,1196.854 2250.224,1191.659 2247.864,1188.576 2238.943,1188.917 
				2233.732,1186.064 2232.571,1183.359 2245.237,1172.232 2245.897,1170.276 2256.041,1162.63 2265.699,1151.968 
				2265.387,1149.778 2274.187,1140.469 2277.176,1135.622 2280.411,1134.512 2287.019,1126.172 2291.832,1123.997 
				2293.872,1115.535 2305.099,1105.779 2307.923,1100.26 2314.964,1094.019 2321.878,1091.001 2337.185,1091.103 2345.169,1090.61 
				2345.169,754.989 2344.085,749.023 2345.169,748.568 2345.169,736.375 2338.557,735.283 2345.169,725.88 2345.169,722.938 
				2325.626,718.085 2311.747,717.579 2301.25,712.023 2297.354,722.52 2281.188,725.314 2276.155,734.979 2283.398,739.811 
				2282.019,746.128 2285.527,761.521 2272.226,755.999 2264.834,758.419 2262.163,764.938 2240.315,756.102 2224.763,765.612 
				2210.405,758.455 2203.228,747.864 2192.425,782.395 2188.795,787.038 2177.271,779.409 2168.574,766.438 2149.873,731.197 
				2132.463,733.627 2116.709,720.35 2101.598,716.666 2085.207,707.622 2075.769,709.062 2062.43,705.76 2047.566,698.721 
				2047.808,696.816 1931.968,696.816 			"/>
			
				<polygon fill="none" stroke="#000000" stroke-width="0.7369" stroke-linecap="square" stroke-linejoin="bevel" stroke-miterlimit="10" points="
				2103.697,698.283 2098.758,709.68 2117.506,719.098 2132.887,732.372 2134.638,709.309 2137.914,698.654 2137.403,696.816 
				2103.002,696.816 			"/>
			
				<polygon fill="none" stroke="#000000" stroke-width="0.7369" stroke-linecap="square" stroke-linejoin="bevel" stroke-miterlimit="10" points="
				2139.605,703.508 2134.992,709.664 2134.414,725.001 2155.152,713.663 2165.215,704.881 2163.121,698.357 2158.17,696.816 
				2138.673,696.816 			"/>
			
				<polygon fill="none" stroke="#000000" stroke-width="0.7369" stroke-linecap="square" stroke-linejoin="bevel" stroke-miterlimit="10" points="
				1508.729,704.492 1528.728,699.668 1526.93,696.816 1510.688,696.816 			"/>
			<polygon fill="none" stroke="#000000" stroke-miterlimit="10" points="1323.342,700.564 1323.247,708.027 1314.837,716.1 
				1318.68,718.902 1318.827,731.093 1315.025,740.432 1305.836,740.747 1304.11,752.864 1308.307,761.87 1323.671,761.229 
				1333.29,787.023 1348.329,786.77 1356.269,791.919 1360.506,789.402 1369.478,793.046 1372.099,787.583 1355.762,768.814 
				1347.392,745.135 1348.96,727.746 1357.3,712.764 1360.087,698.186 1357.191,696.816 1330.668,696.816 			"/>
			
				<polygon fill="none" stroke="#000000" stroke-width="0.7369" stroke-linecap="square" stroke-linejoin="bevel" stroke-miterlimit="10" points="
				1612.323,702.895 1606.329,710.129 1605.539,713.839 1616.076,716.792 			"/>
			
				<polygon fill="none" stroke="#000000" stroke-width="0.7369" stroke-linecap="square" stroke-linejoin="bevel" stroke-miterlimit="10" points="
				2151.011,719.874 2138.539,727.723 2147.251,727.245 2161.688,740.626 2170.129,734.482 2167.217,726.457 2161.543,726.49 			"/>
			
				<polygon fill="none" stroke="#000000" stroke-width="0.7369" stroke-linecap="square" stroke-linejoin="bevel" stroke-miterlimit="10" points="
				1603.075,725.969 1594.183,720.48 1586.29,730.839 1596.64,732.422 			"/>
			<polygon fill="none" stroke="#000000" stroke-miterlimit="10" points="1318.432,764.445 1313.563,766.24 1321.654,779.021 
				1324.06,772.785 			"/>
			
				<polygon fill="none" stroke="#000000" stroke-width="0.7369" stroke-linecap="square" stroke-linejoin="bevel" stroke-miterlimit="10" points="
				1392.951,815.236 1398.277,822.2 1405.321,817.841 1388.212,795.955 1384.088,800.824 1383.473,809.081 1388.365,816.188 			"/>
			<polygon fill="none" stroke="#000000" stroke-miterlimit="10" points="1291.845,838.283 1280.758,827.602 1272.662,829.857 
				1268.778,840.527 1268.631,846.521 1274.913,851.65 1284.813,847.053 			"/>
		</g>
		<g id="georgia">
			
				<polygon fill="#FFFFFF" stroke="#000000" stroke-width="0.7369" stroke-linecap="square" stroke-linejoin="bevel" stroke-miterlimit="10" points="
				1177.532,1379.087 1178.405,1376.465 1185.22,1376.588 1189.044,1379.134 1195.214,1381.491 1204.379,1381.232 
				1209.159,1382.157 1213.065,1385.859 1219.961,1388.646 1220.874,1391.151 1227.392,1388.628 1230.816,1389.919 
				1232.179,1388.47 1237.019,1391.995 1241.373,1392.737 1240.017,1396.603 1243.883,1399.467 1249.039,1401.43 1246.205,1404.694 
				1247.708,1407.57 1251.675,1410.027 1249.735,1413.994 1246.688,1411.689 1241.862,1411.308 1236.729,1407.907 1233.198,1410.33 
				1228.13,1411.974 1224.61,1411.407 1215.878,1413.04 1213.354,1411.902 1208.894,1406.103 1204.728,1408.288 1199.215,1407.074 
				1197.796,1408.36 1194.483,1406.978 1197.171,1402.644 1197.023,1400.469 1193.24,1388.765 1190.353,1388.039 1186.786,1383.795 
				1181.499,1382.375 			"/>
		</g>
		<g id="armenia">
			
				<polygon fill="#FFFFFF" stroke="#000000" stroke-width="0.7369" stroke-linecap="square" stroke-linejoin="bevel" stroke-miterlimit="10" points="
				1250.019,1445.425 1246.005,1445.915 1242.428,1438.672 1242.026,1435.784 1238.095,1436.58 1233.776,1432.571 
				1230.487,1433.519 1224.989,1428.617 1220.881,1429.012 1218.7,1427.002 1217.339,1422.005 1218.983,1419.589 1218.222,1415.781 
				1215.878,1413.04 1224.61,1411.407 1228.13,1411.974 1233.198,1410.33 1234.012,1413.824 1239.812,1416.659 1237.254,1419.63 
				1238.886,1422.646 1244.001,1425.937 1242.039,1431.298 1246.329,1435.101 1249.865,1435.371 1248.445,1438.158 			"/>
		</g>
		<g id="azerbaijan">
			
				<polygon fill="#FFFFFF" stroke="#000000" stroke-width="0.7369" stroke-linecap="square" stroke-linejoin="bevel" stroke-miterlimit="10" points="
				1302.714,1447.713 1291.792,1452.139 1285.216,1454.112 1276.05,1451.579 1273.551,1452.328 1271.001,1448.99 1266.479,1446.026 
				1269.827,1442.873 1267.576,1439.673 1270.175,1438.076 1266.037,1433.391 1264.129,1433.914 1255.494,1440.841 
				1253.443,1441.359 1250.019,1445.425 1248.445,1438.158 1249.865,1435.371 1246.329,1435.101 1242.039,1431.298 
				1244.001,1425.937 1238.886,1422.646 1237.254,1419.63 1239.812,1416.659 1234.012,1413.824 1233.198,1410.33 1236.729,1407.907 
				1241.862,1411.308 1246.688,1411.689 1249.735,1413.994 1251.675,1410.027 1247.708,1407.57 1246.205,1404.694 1249.039,1401.43 
				1256.874,1406.392 1258.164,1409.968 1261.506,1411.59 1265.266,1411.392 1266.98,1407.858 1270.398,1406.221 1274.755,1399.22 
				1285.728,1389.228 1289.771,1395.13 1294.892,1400.827 1297.486,1405.578 1302.241,1411.295 1305.384,1415.799 
				1306.975,1424.986 1306.708,1437.812 1302.73,1444.312 			"/>
		</g>
		<g id="turkey">
			
				<polygon fill="#FFFFFF" stroke="#000000" stroke-width="0.7369" stroke-linecap="square" stroke-linejoin="bevel" stroke-miterlimit="10" points="
				1230.87,1434.61 1230.487,1433.519 1233.776,1432.571 1238.095,1436.58 1242.026,1435.784 1242.428,1438.672 1246.005,1445.915 
				1237.748,1443.604 1234.53,1440.551 			"/>
			
				<polygon fill="#FFFFFF" stroke="#000000" stroke-width="0.7369" stroke-linecap="square" stroke-linejoin="bevel" stroke-miterlimit="10" points="
				1026.935,1438.988 1029.103,1443.451 1025.867,1443.97 1020.769,1441.459 1020.687,1440.039 			"/>
			
				<polygon fill="#FFFFFF" stroke="#000000" stroke-width="0.7369" stroke-linecap="square" stroke-linejoin="bevel" stroke-miterlimit="10" points="
				1022.435,1455.716 1020.345,1450.182 1024.046,1450.163 1024.058,1453.541 			"/>
			
				<polygon fill="#FFFFFF" stroke="#000000" stroke-width="0.7369" stroke-linecap="square" stroke-linejoin="bevel" stroke-miterlimit="10" points="
				1046.748,1479.509 1046.019,1482.701 1042.228,1487.052 1041.343,1483.309 			"/>
			
				<polygon fill="#FFFFFF" stroke="#000000" stroke-width="0.7369" stroke-linecap="square" stroke-linejoin="bevel" stroke-miterlimit="10" points="
				1022.772,1418.574 1026.274,1415.379 1025.878,1411.248 1029.009,1409.829 1028.596,1405.681 1026.279,1404.2 1029.162,1400.298 
				1035.945,1398.252 1039.676,1401.247 1044.597,1400.161 1044.09,1402.449 1047.144,1407.192 1053.709,1410.547 
				1056.525,1411.079 1055.942,1413.9 1051.409,1415.278 1047.144,1413.535 1043.808,1415.161 1038.962,1414.974 1035.32,1420.096 
				1030.316,1422.341 1025.845,1427.709 1024.623,1424.609 1031.431,1420.685 1031.065,1419.817 1023.592,1420.63 			"/>
			
				<polygon fill="#FFFFFF" stroke="#000000" stroke-width="0.7369" stroke-linecap="square" stroke-linejoin="bevel" stroke-miterlimit="10" points="
				1203.619,1470.309 1201.685,1467.757 1200.312,1469.118 1194.665,1470.609 1186.049,1470.155 1175.487,1475.213 
				1168.869,1476.432 1163.37,1475.901 1161.326,1473.956 1157.336,1473.103 1150.151,1476.261 1145.655,1476.521 
				1140.499,1474.357 1139.243,1478.884 1140.728,1482.396 1137.498,1482.66 1137.31,1485.619 1135.175,1487.576 1132.294,1486.592 
				1130.79,1481.605 1135.26,1477.374 1135.44,1475.023 1133.277,1472.86 1129.212,1475.223 1129.094,1477.169 1125.91,1478.092 
				1120.241,1474.698 1117.248,1474.958 1110.853,1481.777 1107.712,1483.128 1096.224,1485.056 1092.883,1483.187 
				1089.519,1478.489 1080.926,1474.345 1074.324,1473.437 1072.987,1474.74 1072.215,1481.188 1063.043,1483.964 1057.18,1480.805 
				1056.119,1476.214 1051.733,1475.812 1049.513,1473.45 1047.473,1475.442 1045.185,1472.695 1039.074,1471.894 
				1039.964,1468.563 1035.526,1466.896 1036.062,1458.138 1032.509,1456.941 1030.735,1454.821 1029.025,1456.376 
				1027.039,1454.796 1026.244,1448.567 1027.612,1448.384 1029.946,1453.435 1032.774,1451.585 1030.411,1448.749 
				1031.659,1441.795 1029.42,1439.89 1032.644,1435.407 1023.728,1437.169 1024.464,1429.242 1030.081,1423.783 1036.293,1422.622 
				1039.033,1424.851 1040.978,1422.122 1051.928,1424.003 1055.323,1419.982 1061.199,1418.638 1056.019,1415.097 
				1057.015,1411.566 1068.385,1412.634 1069.779,1411.638 1075.019,1413.43 1080.301,1413.387 1083.837,1409.356 
				1090.584,1405.714 1091.875,1404.069 1103.644,1399.596 1114.472,1400.775 1120.206,1400.369 1121.832,1398.522 
				1125.245,1404.164 1128.456,1405.443 1132.853,1403.881 1134.521,1407.682 1137.935,1411.136 1142.73,1409.615 
				1144.817,1412.191 1150.223,1414.278 1151.808,1412.71 1154.166,1414.961 1159.274,1416.016 1171.009,1413.129 
				1179.166,1415.869 1192.856,1409.192 1194.483,1406.978 1197.796,1408.36 1199.215,1407.074 1204.728,1408.288 
				1208.894,1406.103 1213.354,1411.902 1215.878,1413.04 1218.222,1415.781 1218.983,1419.589 1217.339,1422.005 1218.7,1427.002 
				1220.881,1429.012 1224.989,1428.617 1230.487,1433.519 1230.87,1434.61 1228.603,1432.472 1226.573,1437.404 1222.241,1438.253 
				1224.251,1441.7 1225.384,1452.433 1227.099,1453.353 1224.334,1459.241 1228.248,1461.097 1228.384,1465.629 1230.74,1467.321 
				1230.581,1469.713 1228.973,1469.177 1224.706,1471.993 1224.41,1467.956 1216.202,1468.305 1212.506,1466.595 
				1208.404,1466.452 1206.104,1469.659 			"/>
		</g>
		<g id="cyprus">
			
				<polygon fill="#FFFFFF" stroke="#000000" stroke-width="0.7369" stroke-linecap="square" stroke-linejoin="bevel" stroke-miterlimit="10" points="
				1102.909,1503.136 1096.714,1504.066 1093.302,1502.586 1091.851,1498.662 1096.071,1496.641 1098.829,1496.812 
				1099.921,1494.248 1103.986,1494.754 1110.64,1493.294 1109.892,1496.999 1106.579,1501.663 			"/>
		</g>
	</g>
</g>
<g id="whole-logo">
	<g id="logo-pixels">
		<g id="poland_pixel">
			<rect x="964.814" y="1230.081" fill="none" width="4" height="4"/>
		</g>
		<g id="czech_republic_pixel">
			<rect x="892.365" y="1268.402" fill="none" width="4" height="4"/>
		</g>
		<g id="slovakia_pixel">
			<rect x="921.781" y="1301.194" fill="none" width="4" height="4"/>
		</g>
		<g id="hungary_pixel">
			<rect x="943.562" y="1311.897" fill="none" width="4" height="4"/>
		</g>
		<g id="slovenia_pixel">
			<rect x="892.932" y="1335.321" fill="none" width="4" height="4"/>
		</g>
		<g id="croatia_pixel">
			<rect x="909.398" y="1339.392" fill="none" width="4" height="4"/>
		</g>
		<g id="bosnia_and_herzegovina_pixel">
			<rect x="935.819" y="1369.879" fill="none" width="4" height="4"/>
		</g>
		<g id="serbia_pixel">
			<rect x="958.916" y="1354.833" fill="none" width="4" height="4"/>
		</g>
		<g id="montenegro_pixel">
			<rect x="945.614" y="1390.916" fill="none" width="4" height="4"/>
		</g>
		<g id="albania_pixel">
			<rect x="951.738" y="1407.875" fill="none" width="4" height="4"/>
		</g>
		<g id="macedonia_pixel">
			<rect x="969.643" y="1397.894" fill="none" width="4" height="4"/>
		</g>
		<g id="greece_pixel">
			<rect x="995.12" y="1456.029" fill="none" width="4" height="4"/>
		</g>
		<g id="bulgaria_pixel">
			<rect x="990.5" y="1387.616" fill="none" width="4" height="4"/>
		</g>
		<g id="romania_pixel">
			<rect x="1021.362" y="1360.835" fill="none" width="4" height="4"/>
		</g>
		<g id="moldova_pixel">
			<rect x="1051.958" y="1320.016" fill="none" width="4" height="4"/>
		</g>
		<g id="ukraine_pixel">
			<rect x="1070.333" y="1262.333" fill="none" width="4" height="4"/>
		</g>
		<g id="belarus_pixel">
			<rect x="1037.622" y="1199.623" fill="none" width="4" height="4"/>
		</g>
		<g id="lithuania_pixel">
			<rect x="1012.698" y="1184.777" fill="none" width="4" height="4"/>
		</g>
		<g id="latvia_pixel">
			<rect x="999.207" y="1140.031" fill="none" width="4" height="4"/>
		</g>
		<g id="estonia_pixel">
			<rect x="1006.172" y="1087.754" fill="none" width="4" height="4"/>
		</g>
		<g id="russia_pixel">
			<rect x="1149.045" y="1163.964" fill="none" width="4" height="4"/>
		</g>
		<g id="georgia_pixel">
			<rect x="1228.599" y="1401.961" fill="none" width="4" height="4"/>
		</g>
		<g id="armenia_pixel">
			<rect x="1225.526" y="1424.628" fill="none" width="4" height="4"/>
		</g>
		<g id="azerbaijan_pixel">
			<rect x="1284.83" y="1421.517" fill="none" width="4" height="4"/>
		</g>
		<g id="turkey_pixel">
			<rect x="1096.364" y="1428.305" fill="none" width="4" height="4"/>
		</g>
		<g id="cyprus_pixel">
			<rect x="1101.954" y="1494.95" fill="none" width="4" height="4"/>
		</g>
	</g>
	<g id="logo-text">
		<polygon points="1038.438,1390.178 1038.438,1388.287 1048.515,1388.287 1048.515,1390.178 1044.343,1390.178 1044.343,1405.695 
			1042.617,1405.695 1042.617,1390.178 		"/>
		<path d="M1059.532,1397.537v8.158h-1.678v-8.186c0-2.131-1.348-3.203-2.844-3.203c-1.486,0-2.832,1.072-2.832,3.203v8.186h-1.68
			v-17.408h1.68v5.799c0.582-1.049,1.783-1.57,2.832-1.57C1057.167,1392.516,1059.532,1393.762,1059.532,1397.537z"/>
		<path d="M1069.753,1397.512c0-2.131-1.332-3.203-2.83-3.203c-1.5,0-2.834,1.072-2.834,3.203v0.479h5.664V1397.512z
			 M1069.69,1401.662h1.715c-0.283,3.215-2.475,4.285-4.482,4.285c-2.145,0-4.512-1.248-4.512-5.021v-3.391
			c0-3.775,2.367-5.021,4.512-5.021c2.143,0,4.51,1.246,4.51,5.021v2.16h-7.344v1.256c0,2.139,1.334,3.191,2.834,3.191
			C1068.241,1404.146,1069.419,1403.33,1069.69,1401.662"/>
		<path d="M1041.638,1420.019v13.623h3.334c1.846,0,3.318-1.365,3.318-3.998v-5.621c0-2.639-1.475-3.979-3.318-4.004H1041.638z
			 M1044.972,1418.129c2.986,0,5.045,2.236,5.045,5.895v5.622c0,3.653-2.059,5.89-5.045,5.89h-5.06v-17.405L1044.972,1418.129"/>
		<path d="M1059.911,1429.246c-2.529,0.199-3.961,0.377-4.746,0.84c-0.844,0.525-1,1.094-1,1.844c0,1.168,0.811,2.07,2.498,2.07
			c1.814,0,3.248-1.068,3.248-3.092V1429.246z M1054.3,1426.637h-1.717c0.285-3.215,2.479-4.284,4.486-4.284
			c2.141,0,4.512,1.247,4.512,5.03v8.15h-1.682v-1.316c-0.736,1.07-2.021,1.568-3.594,1.568c-1.963,0-3.814-1.166-3.814-3.807
			c0-1.289,0.488-3.037,2.498-3.68c1.316-0.426,2.977-0.57,4.91-0.727v-0.219c0-2.137-1.326-3.212-2.83-3.212
			C1055.751,1424.144,1054.571,1424.975,1054.3,1426.637"/>
		<path d="M1066.993,1432.635c0,0.82,0.26,1.115,1.068,1.115h1.764v1.783h-1.764c-2.152,0-2.746-0.865-2.746-3.057v-7.984h-1.627
			v-1.783h1.627v-2.912h1.678v2.912h2.832v1.783h-2.832V1432.635z"/>
		<path d="M1079.296,1429.246c-2.521,0.199-3.951,0.377-4.734,0.84c-0.846,0.525-1.014,1.094-1.014,1.844
			c0,1.168,0.812,2.07,2.514,2.07c1.809,0,3.234-1.068,3.234-3.092V1429.246z M1073.692,1426.637h-1.727
			c0.297-3.215,2.486-4.284,4.494-4.284c2.145,0,4.51,1.247,4.51,5.03v8.15h-1.676v-1.316c-0.738,1.07-2.037,1.568-3.596,1.568
			c-1.959,0-3.816-1.166-3.816-3.807c0-1.289,0.486-3.037,2.5-3.68c1.316-0.426,2.975-0.57,4.912-0.727v-0.219
			c0-2.137-1.348-3.212-2.834-3.212C1075.144,1424.144,1073.954,1424.975,1073.692,1426.637"/>
		<polygon points="1050.657,1447.969 1052.384,1447.969 1052.384,1465.377 1050.683,1465.377 1050.683,1452.004 1046.958,1460.697 
			1045.339,1460.697 1041.614,1452.004 1041.614,1465.377 1039.912,1465.377 1039.912,1447.969 1041.638,1447.969 1046.149,1458.51 
					"/>
		<path d="M1062.745,1459.078c-2.523,0.205-3.953,0.385-4.736,0.848c-0.842,0.527-1.012,1.094-1.012,1.848
			c0,1.161,0.811,2.068,2.514,2.068c1.809,0,3.234-1.073,3.234-3.096V1459.078L1062.745,1459.078z M1057.142,1456.475h-1.727
			c0.287-3.206,2.477-4.281,4.484-4.281c2.154,0,4.523,1.25,4.523,5.034v8.149h-1.68v-1.324c-0.736,1.072-2.033,1.574-3.594,1.574
			c-1.975,0-3.818-1.166-3.818-3.811c0-1.283,0.486-3.033,2.5-3.675c1.318-0.435,2.977-0.567,4.912-0.729v-0.227
			c0-2.128-1.344-3.201-2.846-3.201C1058.593,1453.986,1057.403,1454.812,1057.142,1456.475"/>
		<path d="M1077.44,1462.473c0,0.822,0.273,1.119,1.066,1.119h1.773v1.785h-1.773c-2.141,0-2.746-0.869-2.746-3.062v-7.982h-1.631
			v-1.783h1.631v-2.916h1.68v2.916h2.842v1.783h-2.842V1462.473z M1069.825,1462.473c0,0.822,0.262,1.119,1.064,1.119h1.77v1.785
			h-1.77c-2.141,0-2.742-0.869-2.742-3.062v-7.982h-1.633v-1.783h1.633v-2.916h1.678v2.916h2.834v1.783h-2.834V1462.473"/>
		<path d="M1089.886,1457.187c0-2.128-1.35-3.2-2.846-3.2c-1.486,0-2.832,1.072-2.832,3.2v0.478h5.678V1457.187z M1089.813,1461.353
			h1.725c-0.295,3.196-2.484,4.272-4.498,4.272c-2.141,0-4.508-1.25-4.508-5.021v-3.381c0-3.783,2.367-5.033,4.508-5.033
			c2.158,0,4.521,1.25,4.521,5.033v2.152h-7.354v1.246c0,2.143,1.346,3.217,2.832,3.217
			C1088.362,1463.842,1089.554,1463.019,1089.813,1461.353"/>
		<path d="M1096.153,1453.896c0.584-1.051,1.799-1.572,2.846-1.572h0.738v1.787h-0.738c-1.5,0-2.846,1.062-2.846,3.209v8.057h-1.664
			v-12.828h1.664V1453.896z"/>
		<path d="M1107.81,1456.299c-0.199-1.484-1.09-2.312-2.518-2.312c-1.248,0-2.164,0.688-2.164,1.869c0,1.061,0.654,1.535,1.58,1.789
			l2.166,0.594c1.75,0.475,2.951,1.434,2.951,3.805c0,2.535-1.715,3.584-4.062,3.584c-2.41,0-4.443-1.25-4.625-4.357h1.717
			c0.164,1.818,1.363,2.572,2.908,2.572c1.609,0,2.348-0.729,2.371-1.844c0-0.824-0.346-1.545-1.616-1.891l-2.25-0.623
			c-1.25-0.318-2.847-1.275-2.847-3.557c0-2.37,1.777-3.736,3.893-3.736c2.32,0,4.049,1.25,4.229,4.105L1107.81,1456.299
			L1107.81,1456.299z"/>
	</g>
</g>

<g id="fieldsInfo">
	<polygon class="fieldInfo7" fill="#FFFFFF" stroke="#CCCCCC" stroke-miterlimit="10" stroke-dasharray="1" points="96.64,192.463 48.32,214.428 
	0,192.463 48.32,166.108 "/>
	<polygon class="fieldInfo6" fill="#FFFFFF" stroke="#CCCCCC" stroke-miterlimit="10" stroke-dasharray="1" points="96.64,168.734 48.32,190.699 
		0,168.734 48.32,142.378 "/>
	<polygon class="fieldInfo5" fill="#FFFFFF" stroke="#CCCCCC" stroke-miterlimit="10" stroke-dasharray="1" points="96.64,145.004 48.32,166.968 
		0,145.004 48.32,118.648 "/>
	<polygon class="fieldInfo4" fill="#FFFFFF" stroke="#CCCCCC" stroke-miterlimit="10" stroke-dasharray="1" points="96.64,121.275 48.32,143.24 
		0,121.275 48.32,94.918 "/>
	<polygon class="fieldInfo3" fill="#FFFFFF" stroke="#CCCCCC" stroke-miterlimit="10" stroke-dasharray="1" points="96.64,97.545 48.32,119.509 
		0,97.545 48.32,71.188 "/>
	<polygon class="fieldInfo2" fill="#FFFFFF" stroke="#CCCCCC" stroke-miterlimit="10" stroke-dasharray="1" points="96.64,73.815 48.32,95.78 0,73.815 
		48.32,47.459 "/>
	<polygon class="fieldInfo1" fill="#FFFFFF" stroke="#CCCCCC" stroke-miterlimit="10" stroke-dasharray="1" points="96.64,50.085 48.32,72.05 0,50.085 48.32,23.729 "/>
</g>

<g id="fields-relationships">
	
	<line fill="none" stroke="#969696" stroke-width="0.25" stroke-miterlimit="10" x1="339.792" y1="311.871" x2="340.07" y2="311.455"/>
	<line fill="none" stroke="#969696" stroke-width="0.25" stroke-miterlimit="10" stroke-dasharray="1.0045,1.0045" x1="340.628" y1="310.62" x2="350.395" y2="296.003"/>
	<line fill="none" stroke="#969696" stroke-width="0.25" stroke-miterlimit="10" x1="350.674" y1="295.586" x2="350.952" y2="295.17"/>
			
	<line fill="none" stroke="#969696" stroke-width="0.25" stroke-miterlimit="10" x1="52.055" y1="221.566" x2="52.349" y2="221.971"/>		
	<line fill="none" stroke="#969696" stroke-width="0.25" stroke-miterlimit="10" stroke-dasharray="1.0327,1.0327" x1="52.955" y1="222.808" x2="63.558" y2="237.443"/>	
	<line fill="none" stroke="#969696" stroke-width="0.25" stroke-miterlimit="10" x1="63.86" y1="237.862" x2="64.154" y2="238.267"/>
			
	<line fill="none" stroke="#969696" stroke-width="0.25" stroke-miterlimit="10" x1="87.413" y1="310.247" x2="87.682" y2="309.825"/>
	<line fill="none" stroke="#969696" stroke-width="0.25" stroke-miterlimit="10" stroke-dasharray="0.9934,0.9934" x1="88.216" y1="308.988" x2="96.503" y2="296.01"/>
	<line fill="none" stroke="#969696" stroke-width="0.25" stroke-miterlimit="10" x1="96.77" y1="295.592" x2="97.039" y2="295.17"/>
			
	<line fill="none" stroke="#969696" stroke-width="0.25" stroke-miterlimit="10" x1="106.82" y1="53.358" x2="106.698" y2="53.843"/>		
	<line fill="none" stroke="#969696" stroke-width="0.25" stroke-miterlimit="10" stroke-dasharray="1.0023,1.0023" x1="106.455" y1="54.815" x2="76.388" y2="174.888"/>
	<line fill="none" stroke="#969696" stroke-width="0.25" stroke-miterlimit="10" x1="76.267" y1="175.375" x2="76.145" y2="175.859"/>
			
	<line fill="none" stroke="#969696" stroke-width="0.25" stroke-miterlimit="10" x1="44.232" y1="278.287" x2="44.381" y2="277.81"/>		
	<line fill="none" stroke="#969696" stroke-width="0.25" stroke-miterlimit="10" stroke-dasharray="0.9933,0.9933" x1="44.676" y1="276.861" x2="75.849" y2="176.811"/>
	<line fill="none" stroke="#969696" stroke-width="0.25" stroke-miterlimit="10" x1="75.996" y1="176.337" x2="76.145" y2="175.859"/>
			
	<line fill="none" stroke="#969696" stroke-width="0.25" stroke-miterlimit="10" x1="30.541" y1="211.134" x2="30.601" y2="210.637"/>		
	<line fill="none" stroke="#969696" stroke-width="0.25" stroke-miterlimit="10" stroke-dasharray="0.9953,0.9953" x1="30.721" y1="209.649" x2="36.654" y2="160.74"/>		
	<line fill="none" stroke="#969696" stroke-width="0.25" stroke-miterlimit="10" x1="36.714" y1="160.247" x2="36.774" y2="159.75"/>
			
	<line fill="none" stroke="#969696" stroke-width="0.25" stroke-miterlimit="10" x1="54.011" y1="299.149" x2="53.95" y2="298.653"/>
	<line fill="none" stroke="#969696" stroke-width="0.25" stroke-miterlimit="10" stroke-dasharray="1.0033,1.0033" x1="53.827" y1="297.657" x2="36.897" y2="160.744"/>	
	<line fill="none" stroke="#969696" stroke-width="0.25" stroke-miterlimit="10" x1="36.836" y1="160.246" x2="36.774" y2="159.75"/>
			
	<line fill="none" stroke="#969696" stroke-width="0.25" stroke-miterlimit="10" x1="113.339" y1="1.852" x2="113.121" y2="2.301"/>		
	<line fill="none" stroke="#969696" stroke-width="0.25" stroke-miterlimit="10" stroke-dasharray="0.997,0.997" x1="112.686" y1="3.199" x2="37.21" y2="158.852"/>
	<line fill="none" stroke="#969696" stroke-width="0.25" stroke-miterlimit="10" x1="36.993" y1="159.3" x2="36.774" y2="159.75"/>
			
	<line fill="none" stroke="#969696" stroke-width="0.25" stroke-miterlimit="10" x1="44.232" y1="278.287" x2="44.201" y2="277.788"/>
	<line fill="none" stroke="#969696" stroke-width="0.25" stroke-miterlimit="10" stroke-dasharray="1.0066,1.0066" x1="44.137" y1="276.784" x2="36.837" y2="160.751"/>
	<line fill="none" stroke="#969696" stroke-width="0.25" stroke-miterlimit="10" x1="36.806" y1="160.249" x2="36.774" y2="159.75"/>
				
	<line fill="none" stroke="#969696" stroke-width="0.25" stroke-miterlimit="10" x1="1.854" y1="179.188" x2="1.916" y2="179.684"/>		
	<line fill="none" stroke="#969696" stroke-width="0.25" stroke-miterlimit="10" stroke-dasharray="0.9936,0.9936" x1="2.038" y1="180.67" x2="8.339" y2="231.449"/>
	<line fill="none" stroke="#969696" stroke-width="0.25" stroke-miterlimit="10" x1="8.4" y1="231.942" x2="8.461" y2="232.438"/>
			
	<line fill="none" stroke="#969696" stroke-width="0.25" stroke-miterlimit="10" x1="44.232" y1="278.287" x2="43.924" y2="277.893"/>		
	<line fill="none" stroke="#969696" stroke-width="0.25" stroke-miterlimit="10" stroke-dasharray="1.0027,1.0027" x1="43.308" y1="277.103" x2="9.077" y2="233.228"/>
	<line fill="none" stroke="#969696" stroke-width="0.25" stroke-miterlimit="10" x1="8.769" y1="232.833" x2="8.461" y2="232.438"/>

	<line fill="none" stroke="#969696" stroke-width="0.25" stroke-miterlimit="10" x1="30.541" y1="211.134" x2="30.708" y2="211.605"/>		
	<line fill="none" stroke="#969696" stroke-width="0.25" stroke-miterlimit="10" stroke-dasharray="1.009,1.009" x1="31.044" y1="212.556" x2="49.05" y2="263.445"/>		
	<line fill="none" stroke="#969696" stroke-width="0.25" stroke-miterlimit="10" x1="49.218" y1="263.92" x2="49.385" y2="264.392"/>
			
	<line fill="none" stroke="#969696" stroke-width="0.25" stroke-miterlimit="10" x1="54.011" y1="299.149" x2="53.945" y2="298.653"/>		
	<line fill="none" stroke="#969696" stroke-width="0.25" stroke-miterlimit="10" stroke-dasharray="0.9733,0.9733" x1="53.817" y1="297.689" x2="49.516" y2="265.37"/>		
	<line fill="none" stroke="#969696" stroke-width="0.25" stroke-miterlimit="10" x1="49.451" y1="264.887" x2="49.385" y2="264.392"/>
			
	<line fill="none" stroke="#969696" stroke-width="0.25" stroke-miterlimit="10" x1="52.055" y1="221.566" x2="52.024" y2="222.065"/>		
	<line fill="none" stroke="#969696" stroke-width="0.25" stroke-miterlimit="10" stroke-dasharray="1.0222,1.0222" x1="51.96" y1="223.085" x2="49.448" y2="263.382"/>		
	<line fill="none" stroke="#969696" stroke-width="0.25" stroke-miterlimit="10" x1="49.417" y1="263.893" x2="49.385" y2="264.392"/>
			
	<line fill="none" stroke="#969696" stroke-width="0.25" stroke-miterlimit="10" x1="30.541" y1="211.134" x2="30.79" y2="210.701"/>
	<line fill="none" stroke="#969696" stroke-width="0.25" stroke-miterlimit="10" stroke-dasharray="0.976,0.976" x1="31.277" y1="209.854" x2="38.825" y2="196.745"/>
	<line fill="none" stroke="#969696" stroke-width="0.25" stroke-miterlimit="10" x1="39.068" y1="196.322" x2="39.318" y2="195.889"/>

	<text id="accountability-text" transform="matrix(1 0 0 1 39.3164 195.8867)" fill="#343434">Accountability</text>
	<text id="budget-text" transform="matrix(1 0 0 1 49.3843 264.3916)" fill="#343434">Budget</text>
	<text id="crime-text" transform="matrix(1 0 0 1 8.46 232.4375)" fill="#343434">Crime</text>
	<text id="municipalities-text" transform="matrix(1 0 0 1 36.7729 159.75)" fill="#343434">Municipalities</text>
	<text id="parliament-text" transform="matrix(1 0 0 1 76.144 175.8574)" fill="#343434">Parliament/Legislation</text>
	<text id="urban-text" transform="matrix(1 0 0 1 97.0381 295.1689)" fill="#343434">Urban Planning</text>
	<text id="vulnarable-text" transform="matrix(1 0 0 1 64.1528 238.2656)" fill="#343434">Vulnarable Groups</text>
	<text id="water-text" transform="matrix(1 0 0 1 350.9507 295.1689)" fill="#343434">Water Accesibility</text>
	<rect x="28.688" y="209.281" fill="#FF0000" width="4" height="4"/>
	<rect x="85.167" y="308.395" fill="#FF0000" width="4" height="4"/>
	<rect x="50.203" y="219.714" fill="#FF0000" width="4" height="4"/>
	<rect x="52.159" y="297.294" fill="#FF0000" width="4" height="4"/>
	<rect x="42.379" y="276.436" fill="#FF0000" width="4" height="4"/>
	<rect y="177.335" fill="#FF0000" width="4" height="4"/>
	<rect x="104.967" y="51.506" fill="#FF0000" width="4" height="4"/>
	<rect x="337.94" y="310.021" fill="#FF0000" width="4" height="4"/>
	<rect id="estonia-control-pixel" x="111.486" fill="#FF0000" width="4" height="4"/>

</g>
</svg>
