<?xml version="1.0" encoding="utf-8"?>
<!-- Generator: Adobe Illustrator 16.0.0, SVG Export Plug-In . SVG Version: 6.00 Build 0)  -->
<!DOCTYPE svg PUBLIC "-//W3C//DTD SVG 1.1//EN" "http://www.w3.org/Graphics/SVG/1.1/DTD/svg11.dtd">
<svg version="1.1" id="Layer_1" xmlns="http://www.w3.org/2000/svg" xmlns:xlink="http://www.w3.org/1999/xlink" x="0px" y="0px"
	 width="595.279px" height="841.891px" viewBox="0 0 595.279 841.891" enable-background="new 0 0 595.279 841.891"
	 xml:space="preserve">
<g class="countries" xmlns:inkscape="http://www.inkscape.org/namespaces/inkscape">
	<g id="selection" inkscape:label="selection" inkscape:groupmode="layer">
		<g>
			<g id="selection_1">
				<path fill="#EDEDED" stroke="#FFFFFF" stroke-width="0.5" stroke-linejoin="round" d="M577.916,551.114l-2.265,1.51l-3.397,1.51
					l-1.51-0.377l-7.172,0.377l-6.04,3.021l-3.021,3.02l1.511,1.511l1.51,5.284l-4.151,4.907l0.377,3.774l-3.773,0.755l-2.644-0.755
					l-1.133,1.133l2.643,3.773l-2.265,2.266l-2.643,0.378l-1.511,4.529l0.378,3.774l-2.643,2.266l-1.888-1.511h-2.644l-3.773,2.266
					l-1.889,2.265l-2.265-0.755l-3.02,3.02l-1.511,7.928l-6.795,1.888h-3.773l-2.644,1.133l-3.396-0.755l-6.795,0.755l-10.191-3.396
					l1.51-1.889l4.53-5.283l-0.755-3.775l-5.285-1.132v-5.285l-1.888-6.794l2.266-2.644l-2.266-1.133l-0.377-3.396l1.51-3.396
					l1.51-0.755l1.888-7.55l1.888,1.132h2.643l1.888,2.266l4.907-2.266l0.377-2.642l4.53-1.511l4.152-2.643l1.887-6.04l4.907-1.132
					l1.133-2.644l4.907,1.889h3.396l4.152,1.51l1.887,1.51l5.662-2.643l1.888,1.51l1.511-3.396l4.906-1.133l-0.377-1.888
					l2.643-3.396l1.511-0.756l2.642,1.134v3.02h1.889l-0.755,6.417l1.888,3.397l9.059-5.662h3.397v1.133l3.396-1.133h2.266
					L577.916,551.114"/>
			</g>
			<g id="selection_2">
				<path fill="#EDEDED" stroke="#FFFFFF" stroke-width="0.5" stroke-linejoin="round" d="M232.904,507.327l2.643,2.643l0.755,3.021
					l-0.755,4.907l1.887,3.396l1.133,0.377l0.755,1.51l-2.643,4.53l-1.887,1.133l0.377,1.511l-2.643,0.755l-0.755-3.021l-3.02-1.888
					l-0.378-2.644l0.756-2.643v-4.152l0.755-3.02l-1.511-0.755l-0.377-2.644l2.643-3.773l0.755,1.51L232.904,507.327"/>
			</g>
			<g id="selection_3">
				<path fill="#EDEDED" stroke="#FFFFFF" stroke-width="0.5" stroke-linejoin="round" d="M232.526,324.628l1.888,1.132l-1.51,1.888
					h-1.888L232.526,324.628"/>
			</g>
			<g id="selection_4">
				<path fill="#EDEDED" stroke="#FFFFFF" stroke-width="0.5" stroke-linejoin="round" d="M232.526,324.628l1.888,1.132l-1.51,1.888
					h-1.888L232.526,324.628"/>
			</g>
			<g id="selection_5">
				<path fill="#EDEDED" stroke="#FFFFFF" stroke-width="0.5" stroke-linejoin="round" d="M460.899,636.424l0.755,4.907l-2.266,1.51
					l-1.51-0.755l-0.378,4.152l-1.887,2.265l0.377,1.511l-1.887,4.529v2.265l-0.756,0.756l-15.854-2.266l-6.039-7.927l-0.378-1.51
					l2.265,2.265l4.53-1.133l7.927,0.378l3.397-1.133l1.887-3.774l2.266-1.51l2.643-3.397l2.643-1.888l1.133-1.887L460.899,636.424"
					/>
			</g>
			<g id="selection_6">
				<path fill="#EDEDED" stroke="#FFFFFF" stroke-width="0.5" stroke-linejoin="round" d="M399.37,537.525l-2.265,0.377
					l-2.266-4.151l-4.529-3.021l-1.889,0.378l-3.02-2.644l-3.774-1.133l-0.755-2.642l1.132-1.889l-1.887-3.396l9.813-1.51
					l3.774,3.773l-1.511,1.51l3.774,3.397l-1.888,2.266l4.529,4.907L399.37,537.525"/>
			</g>
			<g id="selection_7">
				<path fill="#EDEDED" stroke="#FFFFFF" stroke-width="0.5" stroke-linejoin="round" d="M213.653,452.971l-0.755,1.511
					l1.887,4.151l-0.755,2.644h-1.888l-1.887,3.02v3.397l-2.265,1.51l-0.756,1.51l-6.039,0.378l-3.02,1.888l-5.285-0.756
					l-8.305-1.51l-1.132-2.265l-6.04-0.378l-1.132,1.51l-3.775-0.377h-1.51l-3.774-1.888l-0.378-1.888v-2.643l1.133-0.378
					l3.774,2.643l0.755-2.265l2.643,0.377l0.755,1.133l4.529-1.888l6.04-0.755l1.888-2.266l-0.755-2.265l5.284-3.397l0.755-2.643
					l1.51,1.888h4.152l1.888-3.773h1.888l4.907,2.265l2.642-0.378L213.653,452.971"/>
			</g>
			<g id="selection_8">
				<path fill="#EDEDED" stroke="#FFFFFF" stroke-width="0.5" stroke-linejoin="round" d="M397.105,537.902l-4.151-1.132
					l-2.265-1.889l-1.889-3.396l-0.378-0.377l1.888-0.378l4.53,3.021L397.105,537.902"/>
				<path fill="#EDEDED" stroke="#FFFFFF" stroke-width="0.5" stroke-linejoin="round" d="M412.582,513.367l3.02,4.529l0.756,2.265
					l3.773,3.775l0.755,2.265l-2.265,0.755l-2.266,9.06l-1.133-0.378l-1.132,2.644v3.02l-1.51,0.378l-3.775-3.396l1.511-1.51
					l-0.756-2.644l1.133-0.755l-1.888-2.265l-1.51,0.377l-7.927,6.04l-0.756-3.774l-4.529-4.907l1.888-2.266l-3.774-3.397
					l1.511-1.51l-3.774-3.773l1.887-1.134l3.021,1.889l4.151,1.133l1.511-1.888l-3.021-3.021l1.511-1.888l1.888,0.378l3.396,4.529
					l3.774,0.755l1.134-2.266l2.264-1.133L412.582,513.367"/>
			</g>
			<g id="selection_9">
				<path fill="#EDEDED" stroke="#FFFFFF" stroke-width="0.5" stroke-linejoin="round" d="M142.687,431.832h1.888l1.51,1.51
					l0.755,3.021l-1.51,1.887l-0.755-0.755l-1.511,2.642v3.775h-1.51l-1.51-1.51l-4.529-2.644h-2.266v-3.02l-3.396-0.755
					l-2.266-1.889l-1.132-2.642l-1.888,0.755l-1.888-3.775l5.285-2.643l3.397,1.51l1.887-1.887l1.888-0.755l8.305,3.396
					L142.687,431.832"/>
			</g>
			<g id="selection_10">
				<path fill="#EDEDED" stroke="#FFFFFF" stroke-width="0.5" stroke-linejoin="round" d="M286.505,497.136l-0.755,3.021h-1.888
					l-1.51,1.51v3.774l-2.643,2.643l3.397,4.152l-3.02,0.378l-1.51-1.511l-4.152,1.133l-1.888,2.265l-1.888,0.378l0.756,1.887
					l-5.662,1.512l-4.53-2.644l-3.02,0.377l-2.643,1.134l-4.529,0.377l0.377-3.021l-0.755-2.643l-3.397-2.643l1.133-1.133
					L248,504.686l1.51-0.378l1.888-2.643l-2.643-2.265l-1.132-2.266l0.377-2.266l1.51-2.265l3.397,3.396l6.417,0.755l1.133-0.378
					l6.795,1.133l4.529-2.643l5.285-1.51l2.265,1.133l3.02,0.377l1.133,1.51L286.505,497.136"/>
			</g>
			<g id="selection_11">
				<path fill="#EDEDED" stroke="#FFFFFF" stroke-width="0.5" stroke-linejoin="round" d="M286.505,497.136l-0.755,3.021h-1.888
					l-1.51,1.51v3.774l-2.643,2.643l3.397,4.152l-3.02,0.378l-1.51-1.511l-4.152,1.133l-1.888,2.265l-1.888,0.378l0.756,1.887
					l-5.662,1.512l-4.53-2.644l-3.02,0.377l-2.643,1.134l-4.529,0.377l0.377-3.021l-0.755-2.643l-3.397-2.643l1.133-1.133
					L248,504.686l1.51-0.378l1.888-2.643l-2.643-2.265l-1.132-2.266l0.377-2.266l1.51-2.265l3.397,3.396l6.417,0.755l1.133-0.378
					l6.795,1.133l4.529-2.643l5.285-1.51l2.265,1.133l3.02,0.377l1.133,1.51L286.505,497.136"/>
			</g>
			<g id="selection_12">
				<path fill="#EDEDED" stroke="#FFFFFF" stroke-width="0.5" stroke-linejoin="round" d="M226.487,486.943h1.887l-1.132,5.285
					l2.643,2.265l-1.888,0.377l1.51,2.643l-1.888,1.134l-1.51,0.377l-3.397,4.529v3.774l-4.907-3.02l-0.377-0.379l0.377-0.755
					l-2.265-3.773l-3.397-2.644l-3.396-3.773l-0.378-2.267l-2.643-2.642l0.378-3.775l3.397,1.511l1.51-1.888l2.265-0.378
					l1.133,0.755l4.529,0.756l1.133-0.378l4.152,0.378L226.487,486.943"/>
			</g>
			<g id="selection_13">
				<path fill="#EDEDED" stroke="#FFFFFF" stroke-width="0.5" stroke-linejoin="round" d="M283.863,374.833l2.643,0.755l1.51,1.51
					l1.888-0.755l1.887,0.755l0.378,3.021l3.02-1.887h1.888l4.152,3.02l-0.379,3.397l0.756,2.265l-1.133,3.02l2.266,1.511
					l1.51,4.907l2.643,1.51l-0.377,2.643l4.529,1.132l1.51,3.775l-3.396,2.642l-4.529-1.132l-1.133,1.887l1.888,2.266v4.907
					l1.132,2.265l-4.906,0.755l-2.643,4.53l-2.266,1.132l-5.284,0.755l-1.133-2.265l-2.265,1.132l-3.774-1.132h-5.662l-1.133-1.132
					l-7.55-1.889h-4.151l-5.663,0.378l-2.642,3.021l-2.265,0.755l0.377-5.285l-2.643-2.265l1.51-3.021l2.266-1.132l0.377-3.774
					l-2.643-9.814l8.305-0.377l4.907-3.397l1.888-6.795l2.643-2.265h1.887l1.133-1.51l-1.888-0.755l0.755-3.775l3.021-1.887
					l3.396,0.377l1.888-3.021L283.863,374.833"/>
			</g>
			<g id="selection_14">
				<path fill="#EDEDED" stroke="#FFFFFF" stroke-width="0.5" stroke-linejoin="round" d="M166.845,462.785v2.643l0.378,1.888
					l3.774,1.888h1.51v2.643l-2.265-0.378l-0.755,2.266l-4.53,0.755l-1.887,4.151l-3.021-3.773l-2.265,0.755l-1.887,1.888h-4.907
					l-1.511-1.888v-2.265l-2.265-0.378l-1.51-1.511l1.51-1.51l3.775-5.285l0.377-1.51l2.265,0.378l1.133-1.133h4.907l1.51-1.887
					l3.397,1.132L166.845,462.785"/>
			</g>
			<g id="selection_15">
				<path fill="#EDEDED" stroke="#FFFFFF" stroke-width="0.5" stroke-linejoin="round" d="M320.856,567.724l-3.021,0.377
					l-1.132-1.132h-4.152l1.511-1.51l6.416,0.755L320.856,567.724"/>
			</g>
			<g id="selection_16">
				<path fill="#EDEDED" stroke="#FFFFFF" stroke-width="0.5" stroke-linejoin="round" d="M312.551,566.969h4.152l1.132,1.132
					l3.021-0.377l-6.795,3.774l-3.021-1.132l-0.755-1.889L312.551,566.969"/>
			</g>
			<g id="selection_17">
				<path fill="#EDEDED" stroke="#FFFFFF" stroke-width="0.5" stroke-linejoin="round" d="M200.063,430.699l1.133-1.51l2.265,2.265
					l4.152,1.887l4.152,4.907l3.02-2.643l4.53,4.151l0.755-0.755l3.397,1.51l1.887,3.397l-1.51,0.378l-2.643,2.265l-0.755,1.888
					l-1.887,1.511l-3.775,0.377l-1.132,2.643l-3.021-1.888l-2.642,0.378l-4.907-2.265h-1.888l-1.888,3.773h-4.152l-1.51-1.888
					l-7.172-6.417l-1.51-2.642l0.755-1.511l-1.51-1.51l1.132-3.02l6.418-2.644v-0.755l5.284-2.265L200.063,430.699"/>
			</g>
			<g id="selection_18">
				<path fill="#EDEDED" stroke="#FFFFFF" stroke-width="0.5" stroke-linejoin="round" d="M192.891,394.462l-1.888,1.132
					l-1.132-3.02l1.51-1.887L192.891,394.462"/>
				<path fill="#EDEDED" stroke="#FFFFFF" stroke-width="0.5" stroke-linejoin="round" d="M167.978,389.555l1.887,1.511l1.133,3.02
					l3.397,0.755l1.888-0.377l-0.756,4.152l3.021,0.377l2.643-2.265h1.887l3.02-3.397l2.643,0.755l2.643,2.644h1.888l0.755,3.396
					l2.642,1.132l0.756,4.907l-1.888,4.152l3.397,3.396l-0.378,1.889l1.133,3.02l-1.133,2.265l0.755,3.397l1.888,2.643l-1.133,3.774
					l-3.02-0.377l-5.284,2.265v0.755l-6.418,2.644l-1.132,3.02l1.51,1.511l-0.755,1.51l1.51,2.642l7.172,6.417l-0.755,2.644
					l-5.284,3.396l0.755,2.265l-1.888,2.266l-6.04,0.755l-4.529,1.888l-0.755-1.133l-2.643-0.377l-0.755,2.265l-3.774-2.643
					l-1.133,0.378l-2.265-1.133l-3.397-1.132l-1.51,1.887h-4.907l-0.755-0.755l2.265-9.061l1.888-3.396l-4.53-1.511l-4.529-0.377
					l-2.265-2.644l0.755-3.396l-2.265-1.888v-1.132l1.51-1.887l-0.755-3.021l-1.51-1.51l-0.756-2.265l1.511-1.51l0.377-3.397
					l-1.51-3.02l4.907-1.511v-1.887l1.888-2.642l-1.888-1.134v-1.51h1.888l1.132-4.151v-2.643l-0.755-1.132l1.133-3.397h4.529
					l3.397,1.511l0.755-3.397l1.51,0.377l0.378-6.795l-1.51-4.529l4.152,0.756h2.262"/>
			</g>
			<g id="selection_19">
				<path fill="#EDEDED" stroke="#FFFFFF" stroke-width="0.5" stroke-linejoin="round" d="M178.169,388.8l2.643,0.755v1.511
					l-1.888,0.377l-2.642-1.511v-1.888L178.169,388.8"/>
				<path fill="#EDEDED" stroke="#FFFFFF" stroke-width="0.5" stroke-linejoin="round" d="M201.573,387.289l-2.265-0.755
					l0.378-2.266l2.265,1.888L201.573,387.289"/>
				<path fill="#EDEDED" stroke="#FFFFFF" stroke-width="0.5" stroke-linejoin="round" d="M173.64,380.872l1.132,3.02v2.266
					l-2.265,0.755l-3.02-1.132l-0.755-3.775L173.64,380.872"/>
				<path fill="#EDEDED" stroke="#FFFFFF" stroke-width="0.5" stroke-linejoin="round" d="M185.719,378.985l-1.888,3.396
					l1.133,1.889l-2.265,1.132v4.151l-1.133,0.377l-1.51-4.529h-2.265l-1.888-5.662l2.265-0.377l0.755-2.266l2.643-0.377l2.265-1.51
					l2.265,0.377L185.719,378.985"/>
				<path fill="#EDEDED" stroke="#FFFFFF" stroke-width="0.5" stroke-linejoin="round" d="M167.978,389.555h-2.265l-4.152-0.755
					l-0.378-5.663l-3.02-2.265l0.377-4.152l-0.755-1.887l0.378-5.285l1.887-0.755l-1.132-1.888l2.265-3.021l4.152-0.377l1.51-1.133
					l2.643-4.152l1.888-0.377l1.887,1.888l-0.377,2.642l-1.133,2.643l-0.377,4.53l3.774,1.132v2.266l-3.397,1.133l-0.755,3.773
					l-3.774,4.152l0.377,2.644l-1.132,2.642L167.978,389.555"/>
			</g>
			<g id="selection_20">
				<path fill="#EDEDED" stroke="#FFFFFF" stroke-width="0.5" stroke-linejoin="round" d="M160.806,553.379l-2.266,3.397
					l0.755,0.755l-0.755,4.151l1.133,4.907l-1.133,3.775l-4.529,4.906v1.888l1.51,4.152l3.02,2.643l0.755,3.02l4.53,3.397
					l3.02,13.589l-1.51,0.755l2.265,4.152l1.133,4.151v3.021l0.377,5.662l-1.132,3.021l0.755,5.662l-2.265,1.51l-0.378,1.889
					l3.774,4.906l1.511,5.284l2.642,0.378l5.285,1.511l2.643,5.661l-27.934,17.741l-10.569,9.438l-10.192,2.265l-4.907,1.133
					l-1.887-1.133l0.755-1.887l-0.378-2.644l-4.907-1.51l-1.132-1.51l-3.397-0.755l-3.397-3.021v-1.887l-37.37-26.801
					l-24.536-15.854v-2.643l0.378-7.549l6.039-4.53l3.775-1.887l2.642,0.377l1.133-1.889l6.417-1.132l3.02-3.774l4.152-1.511
					l4.53-2.642l-1.51-1.133v-3.397l5.284-1.132l0.378-1.511l3.02-0.755l7.55,0.378l1.132-3.021l-2.642-3.021l-1.133-3.397v-6.417
					l-0.755-4.151l-2.643-3.021l1.888,0.378l3.774-2.265l2.643-2.267l3.02-1.51l3.02-0.377l3.021-2.643l4.529-2.266l8.305-0.378
					l2.643-1.51l4.907-0.755h6.039l4.152,1.51l5.285-1.888l1.51-1.132l2.643,1.132l4.529-0.755l1.888,1.133L160.806,553.379"/>
			</g>
			<g id="selection_21">
				<path fill="#EDEDED" stroke="#FFFFFF" stroke-width="0.5" stroke-linejoin="round" d="M321.987,596.034l0.379,0.755
					l4.151,12.457l-1.133,1.51l-2.265,9.061l-1.133,1.887l-2.643-1.887l-3.396-3.775l-1.133-3.774l-2.266-3.02l-0.755,0.755
					l0.377,3.021l1.511,3.02l4.151,4.53v2.265l2.267,3.774l0.377,3.021l3.774,6.794l4.15,8.306l2.644,3.02l-0.755,4.152l1.133,3.396
					l3.396,2.266l4.151,4.151h-75.117v-50.204l-1.51-7.55l1.51-4.151l-0.755-3.774l1.887-2.643l1.511,1.133l3.396-0.755l8.305,1.887
					l4.53,1.888l3.396,0.378l3.775,1.511l8.305-4.53l4.151-0.755l2.643,0.755l3.775,2.643l1.51-1.133l1.51,1.511l8.305-0.755
					L321.987,596.034"/>
			</g>
			<g id="selection_22">
				<path fill="#EDEDED" stroke="#FFFFFF" stroke-width="0.5" stroke-linejoin="round" d="M126.455,530.354l1.887,0.377
					l-2.265,3.774l-2.642-2.266l0.755-2.266L126.455,530.354"/>
				<path fill="#EDEDED" stroke="#FFFFFF" stroke-width="0.5" stroke-linejoin="round" d="M95.502,499.777l2.265,1.51l-0.377,1.511
					l7.549,2.266l1.51,1.132h4.53l0.377-1.511l4.53,2.266l1.51,0.756l2.265,1.132l3.775,0.378l3.774-0.755v4.152l-5.662,3.773
					l-1.51,1.511l-6.795,1.888l-1.888,1.887l-2.265,4.152l-4.152,6.795l0.755,3.774l2.266,2.265l-3.397,2.643l-1.888,2.266
					l-1.133,4.529l-3.02,0.377l-3.02,2.267l-2.265,4.152h-3.775l-6.794-0.379l-3.397,0.379l-1.888,1.887l-3.02,0.378l-1.133,2.265
					l-1.887,1.133l-2.643-1.511l-2.643-6.039l-2.643-1.888l-3.02,0.378l-0.755-3.397l1.888-3.396l1.132-0.378l-1.887-3.021
					l1.887-4.906l-1.132-0.756l-2.266-4.151l3.397-0.377l0.755-2.644l-0.755-1.51l1.133-1.133l-0.378-5.662l4.152-4.152
					l-1.887-1.132l-0.378-2.265l-3.397-0.378l-1.51,1.133l-5.284-0.378v-2.266l-3.397,1.889l-0.755-1.511l0.755-2.643l-0.378-1.888
					l-2.643-3.021l0.378-1.511l1.888-1.51l4.152-0.755l-0.378-1.511l3.774-1.51l2.643,1.51h7.55l1.51-0.377l8.305,1.888l5.662-0.755
					l3.397,1.133l1.132-0.755l3.397,1.132L95.502,499.777"/>
			</g>
			<g id="selection_23">
				<path fill="#EDEDED" stroke="#FFFFFF" stroke-width="0.5" stroke-linejoin="round" d="M249.135,345.767l2.265,0.378l1.888,1.51
					l-3.397,3.02l-3.397,0.755l-1.887-1.132l1.132-2.642L249.135,345.767"/>
				<path fill="#EDEDED" stroke="#FFFFFF" stroke-width="0.5" stroke-linejoin="round" d="M251.023,343.502l-2.266,1.51
					l-0.755-1.887l0.755-2.643l2.266,0.755V343.502"/>
				<path fill="#EDEDED" stroke="#FFFFFF" stroke-width="0.5" stroke-linejoin="round" d="M283.108,335.198l0.755,1.51l-1.51,1.132
					l-0.755,3.02l-1.888,2.265v7.172l1.888,4.907l-1.51,0.377l-1.133,3.397l-3.02-1.133l-2.265,1.133l-3.397-3.775l-5.285-2.642
					l-5.284,2.265l1.51-5.662l-2.643,1.132l-2.265-1.132l-1.51-3.775l-0.378-3.02l0.378-3.397l3.397-1.132l1.887-2.265l6.795-0.755
					l0.378-1.51l7.172,1.132l2.265,1.51l5.662,0.377L283.108,335.198"/>
			</g>
			<g id="selection_24">
				<path fill="#EDEDED" stroke="#FFFFFF" stroke-width="0.5" stroke-linejoin="round" d="M289.148,195.909l-1.888,3.02l0.378,1.51
					l-1.511,4.907l1.133,4.907l4.152,2.265l4.152,6.417l-0.378,2.265l-5.284,9.437v1.888l4.907,11.702l1.51,6.417l-1.888,1.888
					l-1.132,5.285l1.132,1.51l-1.51,2.265l1.133,2.265l1.887,0.755l-0.377,3.02l0.755,2.642l2.265,1.887v3.02l-3.02,4.152
					l2.643,3.397l4.907,4.152l2.265,4.53l-1.888,3.775l-9.814,13.966l-2.643,3.397l-5.662,4.907l-3.774,4.53l-1.888,1.132
					l-1.51-1.132l-4.529,1.887h-1.888l-3.02,1.51l-0.378-0.755l-3.396,1.888l-9.059,3.02l-4.53-1.887l-3.397,0.755l0.755-4.152
					l-1.887-0.377l-5.285-2.642l-0.377-4.53l0.755-2.643v-5.285l0.755-0.377l-2.265-5.285l0.755-3.02l-1.51-5.662l0.377-1.888
					l3.02-3.397l-0.755-2.265h2.266l2.642-1.51l-0.377-1.888l6.039-6.417l4.53-5.285l2.265-3.774l1.51-4.152l2.643-1.132
					l1.888,0.377v-4.152l0.377-5.285l-4.529-4.152l-2.643-0.755l-1.888-5.285l-0.755-0.755l-0.377-4.53l1.887-5.285l-2.265-5.662
					l0.755-4.152l-1.888-0.377l0.378-7.172l0.755-1.133l-5.284-7.549l-4.907-2.265l-6.795-6.417l-1.888-2.265l2.643-0.377v-2.265
					l1.133-1.51h2.265l4.529,7.172l0.755,2.265l5.662,1.51l2.266-1.132l1.132-1.887l6.795,3.774l2.643-4.53l2.265-2.265v-4.152
					l1.887-7.549l3.021-4.907h3.774l3.02-2.265l1.888-0.377l3.397,4.152l4.529,3.02l1.133,3.397l-3.02,5.285L289.148,195.909"/>
			</g>
			<g id="selection_25">
				<path fill="#EDEDED" stroke="#FFFFFF" stroke-width="0.5" stroke-linejoin="round" d="M166.468,505.062l0.377,5.661
					l-2.265,6.417l-2.265-1.888l-1.51-6.417l0.755-1.51L166.468,505.062"/>
				<path fill="#EDEDED" stroke="#FFFFFF" stroke-width="0.5" stroke-linejoin="round" d="M143.064,443.911l3.775,0.755l2.265,2.644
					l4.529,0.377l4.53,1.511l-1.888,3.396l-2.265,9.061l0.755,0.755l-1.133,1.133l-2.265-0.378l-0.377,1.51l-3.775,5.285l-1.51,1.51
					l1.51,1.511l2.265,0.378v2.265l1.511,1.888l-1.511,1.888l2.266,3.021l-0.378,1.51l-3.02,1.133l2.643,3.396l-1.133,1.888
					l0.755,1.889l4.53,1.887l-1.133,2.643h-0.378l-0.377,0.378l-4.152,3.021l-1.51,1.887l-2.265,0.756l-4.53-1.511l-2.265-1.887
					l-2.643,0.755l-3.397-1.888l-5.284,3.396l-1.133,2.644l1.133,4.151l-3.774,0.755l-3.775-0.378l-2.265-1.132l-1.51-0.756
					l-4.53-2.265l-0.377,1.51h-4.53l-1.51-1.132l-7.549-2.266l0.377-1.511l-2.265-1.51l1.888-1.132l2.265-10.569l-0.378-3.396
					l0.755-6.04l-0.377-4.529l-4.152-1.888l-1.51-2.644v-2.265l-3.021-2.266l0.756-1.51l-2.266-1.133l-7.172-2.265h-2.643
					l-0.377-3.021l-2.265-1.888v-1.889l4.152-1.51l5.284-1.132l3.397,2.642l1.51-1.132l6.417,0.377l-0.755-1.887v-3.775
					l-1.888-4.528h3.775l0.755,3.02l6.039,0.755l3.021-1.51l-0.755-2.265l6.794-3.021l2.265-2.642l-0.377-4.53l2.265-2.643
					l3.774-1.132l1.888,3.774l1.888-0.755l1.132,2.642l2.266,1.889l3.396,0.755v3.02h2.266l4.529,2.644l1.51,1.51h1.512"/>
			</g>
			<g id="selection_26">
				<path fill="#EDEDED" stroke="#FFFFFF" stroke-width="0.5" stroke-linejoin="round" d="M64.926,299.715v1.887h-2.265
					l-1.132-2.643L64.926,299.715"/>
			</g>
			<g id="selection_27">
				<path fill="#EDEDED" stroke="#FFFFFF" stroke-width="0.5" stroke-linejoin="round" d="M67.569,397.481l-2.643,0.377
					l-1.887-3.397l-2.643,2.643l-3.02-1.133l-1.51-1.888l3.396-4.152l2.266-3.396l4.529-1.51h2.265l3.397,6.04v4.529l-2.643,2.266
					L67.569,397.481"/>
				<path fill="#EDEDED" stroke="#FFFFFF" stroke-width="0.5" stroke-linejoin="round" d="M70.589,372.568l-2.643,0.755l0.377-4.152
					l2.266,1.887V372.568"/>
				<path fill="#EDEDED" stroke="#FFFFFF" stroke-width="0.5" stroke-linejoin="round" d="M68.324,359.356l-1.132,3.396
					l-3.021-2.643l3.397-2.643L68.324,359.356"/>
				<path fill="#EDEDED" stroke="#FFFFFF" stroke-width="0.5" stroke-linejoin="round" d="M67.947,349.164l-1.51,3.775l-2.643,1.51
					l-1.51-3.397l5.284-3.773L67.947,349.164"/>
				<path fill="#EDEDED" stroke="#FFFFFF" stroke-width="0.5" stroke-linejoin="round" d="M87.198,347.277l-0.755,2.265
					l-4.907,4.152l1.133,1.887l2.642,1.132h8.305l1.888,2.644l-1.51,2.642l-1.51,4.53l-3.775,5.285l1.51,1.132l-4.529,3.02
					l1.888,1.132l3.02-0.755l2.643,1.132l3.02,3.775l2.265,8.682l4.152,3.021l3.774,4.151l-0.755,1.133l3.397,9.06l-1.888,2.644
					l1.511,1.132l1.51-1.889l3.397,0.377l3.774,1.889l0.377,3.02l-1.132,3.775l-1.888,2.643l-1.887,0.377l-1.888,4.152l4.907,0.377
					l-0.378,1.888l-2.642,2.643l-4.907,1.51l-2.266-0.377l-3.774,0.377l-3.02-1.133l-4.907,2.643h-3.021l-3.02-1.132l-2.643,0.755
					l-1.132,3.021l-1.133,1.132l-2.643-1.51l-3.396,0.755l-3.021,2.642l-0.755-2.265l4.907-4.907l0.378-2.265l1.887-1.888
					l6.795-0.377l-1.133-1.887h-1.51l-5.284-3.397l-3.397,1.133l-1.133-0.756v-3.02l4.53-1.887l2.643-3.775l-0.755-3.773
					l-3.021,1.132l-0.377-1.132l3.02-3.397l6.795-1.888l0.755-3.397l-1.51-4.151l-2.266-3.775l0.755-5.285l-3.396,1.888
					l-3.397,0.377l-4.152-1.132l3.02-7.172l-1.51-2.265l0.378-3.775l-2.266,1.132l-2.265,6.04l-1.132,0.377l1.51-9.813l1.132-4.152
					l-3.397,0.377l-1.132-2.265l3.02-3.775v-1.51l-1.51-2.265l1.51-5.285l2.643-0.377l-1.51-1.888l0.377-1.888l2.265-0.377
					l-0.377-3.02h1.888l10.569-1.511L87.198,347.277"/>
				<path fill="#EDEDED" stroke="#FFFFFF" stroke-width="0.5" stroke-linejoin="round" d="M98.522,321.986l1.51,2.265l-1.132,3.397
					l-1.51-0.755L98.522,321.986"/>
			</g>
			<g id="selection_28">
				<path fill="#EDEDED" stroke="#FFFFFF" stroke-width="0.5" stroke-linejoin="round" d="M398.992,512.989l-1.51,1.888l3.021,3.021
					l-1.511,1.888l-4.151-1.133l-3.021-1.889l-1.887,1.134l-9.814,1.51l-4.152-3.774l-1.888,1.132l-6.039-0.755l1.51-3.773
					l-1.888-6.04l-3.774-3.396l-2.266-0.378l-3.396-2.643l1.131-1.132h3.021l6.04,3.02h5.285l8.682,3.774l1.133,1.888l3.396-1.888
					h2.266l3.021,1.888l2.265,0.755l-0.378,2.265L398.992,512.989"/>
			</g>
			<g id="selection_29">
				<path fill="#EDEDED" stroke="#FFFFFF" stroke-width="0.5" stroke-linejoin="round" d="M398.992,512.989l-1.51,1.888l3.021,3.021
					l-1.511,1.888l-4.151-1.133l-3.021-1.889l-1.887,1.134l-9.814,1.51l-4.152-3.774l-1.888,1.132l-6.039-0.755l1.51-3.773
					l-1.888-6.04l-3.774-3.396l-2.266-0.378l-3.396-2.643l1.131-1.132h3.021l6.04,3.02h5.285l8.682,3.774l1.133,1.888l3.396-1.888
					h2.266l3.021,1.888l2.265,0.755l-0.378,2.265L398.992,512.989"/>
			</g>
			<g id="selection_30">
				<path fill="#EDEDED" stroke="#FFFFFF" stroke-width="0.5" stroke-linejoin="round" d="M257.062,564.326l2.643,1.133l2.643-0.378
					l4.907,0.755l1.51,1.51l3.397-1.132l-0.378,1.887l-9.06,0.756l-0.377-1.133l-7.172-1.51v-1.888H257.062"/>
				<path fill="#EDEDED" stroke="#FFFFFF" stroke-width="0.5" stroke-linejoin="round" d="M254.042,537.147l0.377,0.755l4.152,1.511
					l-0.377,2.265h-1.888l-3.02-3.396L254.042,537.147"/>
				<path fill="#EDEDED" stroke="#FFFFFF" stroke-width="0.5" stroke-linejoin="round" d="M272.916,534.128l1.132,1.888
					l-1.132,1.133l-3.397-1.888l1.888-1.51L272.916,534.128"/>
				<path fill="#EDEDED" stroke="#FFFFFF" stroke-width="0.5" stroke-linejoin="round" d="M270.651,522.804l-1.132-1.133
					l-4.907-1.132l-1.888,1.132l-1.887-0.755l-3.775,3.397l-1.51,2.643h-1.888l-4.529-2.265v3.773l1.51,1.889l0.755,3.773
					l-1.132,4.152l3.02,1.133l2.643,2.642l1.51,0.755l0.755,4.152l-3.02-2.265l-3.397,1.133l1.132,1.887l-0.377,2.267l-2.643-1.512
					l2.265,6.04h-3.02l-0.755,1.511l-2.643-3.397l-1.132,2.266l-1.888-2.643v-3.775l-3.02-2.642l1.887-2.643l2.643-1.134l6.04,3.021
					l1.887-0.756l-4.152-3.021l-6.039,1.133l-2.265-0.755l-2.266-4.906l-3.02-2.644l-1.888-3.02l2.643-0.756l-0.377-1.51
					l1.887-1.133l2.643-4.53l-0.755-1.51l4.152-0.377l1.888-1.888h3.774l2.643-1.889l4.529-0.377l2.643-1.133l3.02-0.377l4.53,2.644
					l5.662-1.512l-0.756-1.887l1.888-0.378l1.888,2.643l-1.888,1.134v2.642L270.651,522.804"/>
			</g>
			<g id="selection_31">
				<path fill="#EDEDED" stroke="#FFFFFF" stroke-width="0.5" stroke-linejoin="round" d="M217.804,504.308l4.907,3.021l0.756,1.133
					L217.804,504.308"/>
				<path fill="#EDEDED" stroke="#FFFFFF" stroke-width="0.5" stroke-linejoin="round" d="M225.732,477.507l-0.378,0.755l1.51,6.417
					l-0.377,2.266l-2.265-1.889l-4.152-0.377l-1.133,0.377l-4.529-0.755l-1.133-0.755l-2.265,0.378l-1.51,1.888l-3.397-1.511
					l-0.378,3.775l2.643,2.642l0.378,2.267l3.396,3.773l3.397,2.644l2.265,3.773l-0.377,0.755l-4.152-3.773l-3.397-1.51
					l-2.643,0.377l-5.284-6.417l1.51-0.377l-3.02-3.775v-3.397l-3.397-2.265l-2.265,4.53l-2.265-2.267l-0.378-3.773l1.888,0.755
					l3.02-0.377l1.133-1.511l1.887,1.511h3.397l-0.377-2.267l1.887-0.755l0.378-3.396l5.284-3.021l1.51,1.134l3.775,3.773
					l3.02,1.888h3.397L225.732,477.507"/>
			</g>
			<g id="selection_32">
				<path fill="#EDEDED" stroke="#FFFFFF" stroke-width="0.5" stroke-linejoin="round" d="M246.116,454.858l3.774,2.642l0.755,1.51
					l-3.397,1.889l-1.887,2.265l-3.397,7.55l-2.643,4.152l-5.284,1.133l-4.152-0.378l-4.152,1.888l-3.397,1.511h-3.397l-3.02-1.889
					l-3.775-3.773l-1.51-1.134l-1.51-3.02h-1.132l2.265-1.51v-3.397l1.887-3.02h1.888l0.755-2.644l3.775,1.889h6.039l0.378-1.889
					l7.172-1.51l2.643-1.51l1.132-2.267h6.04l1.887,1.889L246.116,454.858"/>
			</g>
			<g id="selection_33">
				<path class="has-project" fill="#EDEDED" stroke="#FFFFFF" stroke-width="0.5" stroke-linejoin="round" d="M246.116,454.858l3.774,2.642l0.755,1.51
					l-3.397,1.889l-1.887,2.265l-3.397,7.55l-2.643,4.152l-5.284,1.133l-4.152-0.378l-4.152,1.888l-3.397,1.511h-3.397l-3.02-1.889
					l-3.775-3.773l-1.51-1.134l-1.51-3.02h-1.132l2.265-1.51v-3.397l1.887-3.02h1.888l0.755-2.644l3.775,1.889h6.039l0.378-1.889
					l7.172-1.51l2.643-1.51l1.132-2.267h6.04l1.887,1.889L246.116,454.858"/>
			</g>
			<g id="selection_34">
				<path fill="#EDEDED" stroke="#FFFFFF" stroke-width="0.5" stroke-linejoin="round" d="M602.075,591.882l0.377,4.152l1.888-0.755
					l3.021,3.396l4.151,1.511v1.132l4.907,2.643l-3.02,2.265l-1.511,3.397l-1.133,4.53l6.795,3.396l4.152,3.397l0.755-0.377
					l4.907,3.02l3.396,0.755l5.285-0.755l3.02,1.51l0.379,1.889l4.151,1.888l1.51-0.756l1.133,1.511l3.774,0.377l2.266,1.133
					l1.888-0.755l1.887,1.132l4.907-0.377l0.378-2.265l-1.133-2.643l0.755-5.662l3.396-1.133l1.511,1.51l-0.755,2.643l0.755,3.774
					l5.662,1.888l3.774-1.51l2.266,1.133l6.039-0.378l2.643-0.755l-0.755-3.774l-2.266-0.756v-1.51l2.266,0.378l4.151-1.888
					l0.379-1.133l3.02-3.396l4.529-1.51l4.529-3.397l0.756,0.755l4.151,1.134l4.152-3.021l2.265,3.021l1.132,4.15l4.53,1.511v2.266
					l-2.643,1.887l-1.511,2.266l-3.773,0.756l-1.133,1.132l-4.907,3.396l0.377,3.775l-3.774,5.662l0.756,1.51l-2.266,4.907
					l-1.133,3.02l-5.284-1.133l0.755,2.644l-0.378,3.396l-1.887,3.021l0.755,2.265l-1.51,2.643l-2.266-0.377l-0.378-4.151
					l-1.133-1.889l-0.755-5.283l-1.887,1.51l-1.889,3.396l-1.51-1.511l-1.51-3.02l1.51-3.021l3.021-0.755l1.133-1.133l1.51-3.774
					l-1.51-1.888L675.68,640.2l-3.773-1.133v-4.529l-3.397-0.755l-1.133-1.133l-4.152-1.133l-2.265,3.396l2.265,2.265l1.889,0.379
					l1.133,2.265h-3.021l-2.642,3.773l4.529,3.021l-1.133,3.774l1.133,1.51l1.888,7.927v4.152l-2.265-0.377l-2.644,0.755
					l-1.888-1.511l-5.284,2.266l-1.51,1.888l0.755,3.397l-1.51,2.642l-3.021,2.643l-5.284,1.889l-4.151,3.396l-4.152,5.663
					l-3.02,1.51l-2.644,3.021l-3.773,2.265l-2.267,1.889v2.643l-3.02,1.51h-3.021l-1.888,3.774l-2.265-0.755l-2.266,1.133
					l-1.51,4.152l0.755,3.02l-0.378,2.644l0.755,2.642l-1.132,1.133l1.887,1.51l-0.755,4.529l-2.265,4.53l-0.755,2.643l0.755,2.266
					v5.662h-3.021l-2.266,4.151l-0.377,2.644l-3.397,1.132l-1.51,1.133l-0.755,3.396l-3.397,1.888l-3.396-2.266l-2.644-3.02
					l-1.51-3.397v-3.02l-2.643-5.662l-1.132-3.775l-3.397-4.151l-2.643-6.794l-0.377-3.775l-1.889-5.284l-3.02-3.773v-2.267
					l-2.644-4.151l-1.132-2.643l-1.133-7.55l-0.755-3.396l-1.133-7.928l-1.133-3.396l1.511-4.907l-0.378-3.773l-1.889-4.152v-3.021
					l-1.132-0.756l-1.888,3.021l1.133,1.887l-1.51,2.644l-6.04,3.021l-1.888-0.378l-3.774-2.265l-7.172-7.551l7.55-2.265l0.377-3.02
					l-3.773,1.51l-2.644-0.378l-3.774-2.644l-3.021-4.528l3.397-0.756v-1.888h5.284l1.132,0.755l5.285-1.887l1.133,1.132
					l1.888-1.132v-1.888l-2.266-4.907l-0.378-1.888l-2.265-0.377l-1.132-1.134l0.377-4.151l-4.152-2.266l0.378-2.643l3.774-4.907
					l1.51-1.132l2.266,2.265l7.173-1.888l3.02-5.662l3.397-1.887l3.02-6.418l2.644-1.132l0.755-2.644l3.773-5.662v-3.773l1.51-1.511
					l3.775-2.643l-4.53-1.888v-1.511l-1.887-0.378l-2.266-3.396l1.133-1.888l-2.265-6.417l1.132-2.266l1.888-1.133l9.06,2.265
					l1.889-1.51l3.773-0.377l2.644-3.021l4.906-3.021l1.133,1.888l1.888,4.907l2.265,0.755l1.889,2.266l-1.133,1.132v4.53
					l2.265,1.888l0.378,5.662l-1.888,0.755l-1.133-1.51l-2.266,0.377L602.075,591.882"/>
			</g>
			<g id="selection_35">
				<path fill="#EDEDED" stroke="#FFFFFF" stroke-width="0.5" stroke-linejoin="round" d="M67.569,397.481l-0.755,1.132l1.51,4.151
					l0.755,6.795l-1.51,4.151l-1.51,1.888l1.133,1.133l-7.55,1.51l-1.133,1.132l-7.172,4.152l-6.417,1.132l-1.51-3.021l-1.888-1.132
					l2.643-2.643l0.378-2.644l1.887-1.51l1.888-5.662l-3.02-3.396l-0.378-6.417l-1.51-2.643l4.907-0.377l1.133,0.755l5.662-3.02
					l-3.397-1.887l2.265-2.266l0.755-3.02l3.02-0.377l3.397-1.889l1.888,1.511l-1.51,1.51l-2.266,3.396l-3.396,4.152l1.51,1.888
					l3.02,1.133l2.643-2.643l1.887,3.397L67.569,397.481"/>
			</g>
			<g id="selection_36">
				<path fill="#EDEDED" stroke="#FFFFFF" stroke-width="0.5" stroke-linejoin="round" d="M397.105,537.902l2.266-0.377l7.927-6.04
					l1.511-0.377l1.887,2.265l-1.133,0.755l0.756,2.644l-1.51,1.51l3.774,3.396l1.51-0.378l1.511,6.04l2.643,1.511l4.152,0.755
					l2.265,3.02l3.774,2.266l4.151,0.756h2.644l7.55-1.889l3.774-0.755l-0.379-3.02l4.907-1.133l2.266-3.397l3.021-1.51l4.152,0.377
					l1.51-1.51l4.528,0.378l1.134,1.888l4.528,1.51l1.134,0.755h3.396l3.021,1.511l1.888,2.643l3.02,1.51l1.889,2.644h4.907
					l0.755,7.927l-1.889,7.55l-1.51,0.755l-1.51,3.396l0.377,3.396l2.266,1.133l-2.266,2.644l1.888,6.794v5.285l5.285,1.132
					l0.755,3.775l-4.53,5.283l-1.51,1.889l3.021,3.396l1.888,4.529l1.51,1.51l5.662,2.643v6.418l3.397,1.133l-0.755,3.396
					l-4.53,0.755l-3.774,1.888l-1.132,3.396l-0.756,4.152l-0.755,0.755l-6.417-1.51l-8.683-0.755l-10.568-2.644l-2.266-7.927
					l-1.133-1.133l-3.02-0.756l-4.152,1.511l-4.907,3.021h-1.51l-2.643-1.133l-3.397-0.377l-1.51-1.511l-4.907-2.643l-1.132-1.888
					l-3.021-1.51l-2.266-0.378l-2.266-1.888l-2.643-6.795l-4.529-6.04l-0.377-1.887l-3.397,1.132l-4.152-2.642v1.887l-2.265,1.133
					l-1.133-2.265l-2.266-1.511v-3.774h-1.887v-3.02l0.755-2.644l-2.643-4.907l-1.888-0.377l-4.529-3.396h-1.51v-2.266l-1.511-2.643
					l-3.021-3.02v-3.397l1.51-2.643l3.021-2.644l-1.134-3.02l1.134-2.266l-2.644-0.378l-2.265-1.132l-1.889-4.152l-1.888-4.906
					l-1.132-2.266v-2.266l-2.266-1.51l0.756-3.774l-0.379-3.396l-1.51-4.529l2.266-0.378l1.133-3.021l1.51,1.132l1.889,3.397
					l2.265,1.888L397.105,537.902"/>
			</g>
			<g id="selection_37">
				<path fill="#EDEDED" stroke="#FFFFFF" stroke-width="0.5" stroke-linejoin="round" d="M388.423,551.492l1.888,4.907l1.889,4.151
					l2.265,1.132l2.644,0.379l-1.133,2.265l1.133,3.02l-3.021,2.644l-1.51,2.643v3.397l3.021,3.02l1.511,2.644v2.265h1.51
					l4.529,3.397l1.888,0.377l2.643,4.906l-0.755,2.644v3.02h1.887v3.774l2.267,1.511l1.132,2.266h-3.396l-1.888-0.756l-3.774,0.756
					l-1.133,3.02l-2.266,3.397h-1.132l-10.569-0.756l-11.701-9.438l-4.908-4.151l-10.568-6.417l-7.928-1.511l-2.265-9.437
					l12.079-7.173l1.889-0.755l1.51-2.643v-3.774l0.755-3.021l-0.755-3.021l1.132-3.773l2.266-0.378l3.774-4.152l2.643-1.887
					l6.795,1.132l1.133-0.755l1.51,2.643L388.423,551.492"/>
			</g>
			<g id="selection_38">
				<path fill="#EDEDED" stroke="#FFFFFF" stroke-width="0.5" stroke-linejoin="round" d="M331.802,585.465l-1.132,2.644
					l-2.266-1.133l-1.51,2.643v1.888l3.021,3.396v2.266l-1.888,5.284l-1.133,6.417l-0.377,0.378l-4.153-12.457l1.511-2.643
					l1.133-2.266l2.643-9.06h1.888l3.021-2.644l0.377,3.775L331.802,585.465"/>
			</g>
			<g id="selection_39">
				<path fill="#EDEDED" stroke="#FFFFFF" stroke-width="0.5" stroke-linejoin="round" d="M204.97,543.188l-3.02,6.04l1.133,3.396
					l-1.133,2.643l-3.774-0.755l-2.266-2.643h-1.51l-6.417-3.774h-1.132l-1.888-1.888l1.888-3.02l1.132,1.51l1.51-1.51l3.397,1.51
					l5.285-0.378l1.887-0.755L204.97,543.188"/>
				<path fill="#EDEDED" stroke="#FFFFFF" stroke-width="0.5" stroke-linejoin="round" d="M167.6,521.294l0.755,3.397l-1.132,9.06
					l-0.755,1.887l-2.643-0.755l-1.133,2.644h-1.51l-1.51-2.266l0.755-5.285l-0.755-0.755l0.377-3.02l-1.887-3.021l1.132-1.51
					l3.021-0.755l2.642-2.642L167.6,521.294"/>
				<path fill="#EDEDED" stroke="#FFFFFF" stroke-width="0.5" stroke-linejoin="round" d="M192.891,472.222l-1.888,2.266
					l1.511,0.755l0.755,5.285l-0.755-1.511h-2.643l-1.133,1.133l-4.529,1.888l-0.378,1.888l1.888,2.266l-1.888,2.265l1.133,4.152
					l1.888,2.265l5.284,3.775l3.02,7.549l5.285,5.285l1.888,1.133h4.906l1.133,1.51l-1.51,1.132l0.755,1.511l6.795,3.021
					l5.284,3.396l2.265,2.266l1.133,2.265l-0.755,2.266l-1.888-0.755l-1.132-3.021h-2.643l-1.51-1.51h-1.888l-2.643,4.907
					l0.755,1.887l3.021,2.266l0.377,3.021l-3.774,2.265v2.644l-3.02,3.773h-2.266l1.51-6.417l1.511-0.378l-1.133-4.906l-1.888-4.906
					l-4.907-2.267l-1.132-3.396l-1.888,0.378l-2.265-1.889l-2.265-3.396h-4.152l-2.643-1.888l-6.417-6.796l-3.02-1.51l-3.775-6.04
					l-1.887-6.039l-1.511-1.51l-4.529-2.643l-3.397-0.756l-1.132,0.756l-3.021,3.773l-3.774,1.133l1.133-2.643l-4.53-1.887
					l-0.755-1.889l1.133-1.888l-2.643-3.397l3.02-1.132l0.378-1.51l-2.266-3.021l1.511-1.888h4.907l1.887-1.888l2.265-0.755
					l3.021,3.773l1.887-4.151l4.53-0.755l0.755-2.266l2.265,0.378v-2.643l3.775,0.377l1.132-1.51l6.04,0.378l1.132,2.265
					L192.891,472.222"/>
			</g>
			<g id="selection_40">
				<path fill="#EDEDED" stroke="#FFFFFF" stroke-width="0.5" stroke-linejoin="round" d="M204.97,543.188l-3.02,6.04l1.133,3.396
					l-1.133,2.643l-3.774-0.755l-2.266-2.643h-1.51l-6.417-3.774h-1.132l-1.888-1.888l1.888-3.02l1.132,1.51l1.51-1.51l3.397,1.51
					l5.285-0.378l1.887-0.755L204.97,543.188"/>
				<path fill="#EDEDED" stroke="#FFFFFF" stroke-width="0.5" stroke-linejoin="round" d="M167.6,521.294l0.755,3.397l-1.132,9.06
					l-0.755,1.887l-2.643-0.755l-1.133,2.644h-1.51l-1.51-2.266l0.755-5.285l-0.755-0.755l0.377-3.02l-1.887-3.021l1.132-1.51
					l3.021-0.755l2.642-2.642L167.6,521.294"/>
				<path fill="#EDEDED" stroke="#FFFFFF" stroke-width="0.5" stroke-linejoin="round" d="M192.891,472.222l-1.888,2.266
					l1.511,0.755l0.755,5.285l-0.755-1.511h-2.643l-1.133,1.133l-4.529,1.888l-0.378,1.888l1.888,2.266l-1.888,2.265l1.133,4.152
					l1.888,2.265l5.284,3.775l3.02,7.549l5.285,5.285l1.888,1.133h4.906l1.133,1.51l-1.51,1.132l0.755,1.511l6.795,3.021
					l5.284,3.396l2.265,2.266l1.133,2.265l-0.755,2.266l-1.888-0.755l-1.132-3.021h-2.643l-1.51-1.51h-1.888l-2.643,4.907
					l0.755,1.887l3.021,2.266l0.377,3.021l-3.774,2.265v2.644l-3.02,3.773h-2.266l1.51-6.417l1.511-0.378l-1.133-4.906l-1.888-4.906
					l-4.907-2.267l-1.132-3.396l-1.888,0.378l-2.265-1.889l-2.265-3.396h-4.152l-2.643-1.888l-6.417-6.796l-3.02-1.51l-3.775-6.04
					l-1.887-6.039l-1.511-1.51l-4.529-2.643l-3.397-0.756l-1.132,0.756l-3.021,3.773l-3.774,1.133l1.133-2.643l-4.53-1.887
					l-0.755-1.889l1.133-1.888l-2.643-3.397l3.02-1.132l0.378-1.51l-2.266-3.021l1.511-1.888h4.907l1.887-1.888l2.265-0.755
					l3.021,3.773l1.887-4.151l4.53-0.755l0.755-2.266l2.265,0.378v-2.643l3.775,0.377l1.132-1.51l6.04,0.378l1.132,2.265
					L192.891,472.222"/>
			</g>
			<g id="selection_41">
				<path fill="#EDEDED" stroke="#FFFFFF" stroke-width="0.5" stroke-linejoin="round" d="M352.941,589.994l-1.133,1.133
					l-12.457,3.397l6.418,7.549l-2.266,1.133l-1.133,2.643l-4.152,0.756l-1.888,2.643l-3.021,2.265l-6.416-1.133v-1.51l1.133-6.417
					l1.888-5.284v-2.266l0.755-2.266v-4.528l1.132-2.644l3.774,2.644l3.021,0.377l12.079-7.928L352.941,589.994"/>
			</g>
			<g id="selection_42">
				<path fill="#EDEDED" stroke="#FFFFFF" stroke-width="0.5" stroke-linejoin="round" d="M656.054,448.063l-3.396,0.755
					l-0.378,3.02l-1.133,1.51l-4.907,1.512l-1.511,4.528l1.134,6.04l-1.134,1.888l-4.528,1.888l-0.755-1.133h-4.152l-4.907-1.888
					l-1.51,1.511l-2.643,7.927l-1.511,5.662l1.511,0.755l-0.378,2.643l-3.396-0.378l-1.511-1.51l-5.284,1.888l-5.284,1.133
					l-0.378,1.888l3.021,0.378l-0.755,5.662l2.643,8.304l-2.265,1.133l0.755,1.511l-2.266,1.51l0.377,4.151l-1.888-1.887
					l-2.642-0.378l-2.267-2.643l-3.773-0.755l-17.364-0.756l-0.755,1.134l-3.774-0.756l-5.284-3.021l-4.151,2.266l-1.889,4.152
					l-9.06-2.643l-3.396,0.755l-2.266,3.396v0.755l-3.02,1.511l-2.266,1.888l-6.418,3.773l-3.02,4.152v1.887l-3.397-1.132
					l-0.755-3.396l-7.549,0.378l-1.511-7.173h-3.021l0.755-8.305l-1.888,0.755l-1.887-3.396l-3.775-3.774l-3.02,1.511l-7.928-0.756
					l-7.55,1.133l-5.284-5.662l-0.755-1.887l-14.722-10.192l-1.51-0.378l-15.478,4.907v31.708l-2.643,0.756l-1.889-1.889
					l-2.265-3.773l-4.907-3.397l-5.284,1.133l-2.643,1.133l-2.265,2.265l-0.378-2.643l1.133-2.643v-3.021l-4.152-0.755l-2.265-2.644
					h-1.884v-2.642l-3.02-6.417l-3.021-1.133l-0.377-2.266l3.774-0.378l1.134-3.02l2.264-3.397l7.173-0.377l1.51-1.511l2.265-5.662
					v-4.529l-1.51-2.643h-2.642l-2.644,1.133l-5.662-2.265l-4.906,1.887l-2.644,2.266l-4.151,1.132l-0.377,1.511l-4.152-1.888
					l2.265-1.888l-2.643-5.285l-2.644-3.773l-4.15-0.377l-1.133,0.377l-1.133-1.889l-0.756-3.02l-1.887-1.51v-3.774l2.266-2.643
					l-1.511-2.644l1.132-4.529l1.889-2.266l0.377-1.887l2.266-1.133l4.529,5.285l2.643-1.888l-1.133-5.285l4.152-2.642l1.133-2.643
					l4.529-1.888l3.774-4.529l2.265,0.755l1.133,1.887h1.511l2.642-1.887l1.889-0.377l1.51,2.265h4.906l4.529,3.775l2.267,3.02
					l1.887-1.888l5.285,3.774h1.51l4.529-4.151l3.021-0.377l2.644,1.887l2.642-2.265l3.397,0.377l3.02,3.774l6.04,1.132l0.755-2.265
					l2.266,0.755l4.151,0.377l2.644-1.888l1.132-3.397l-1.132-2.265l-5.662-2.265l-2.644-3.397l5.662-3.02l-1.132-4.53l1.51-2.644
					l6.039,0.377l0.378-1.887l-5.285-1.887l0.378-2.644l-1.888-0.755l1.133-3.774l1.132-0.755l3.775,1.132l7.172-1.887l0.755-0.378
					l5.284-1.132l2.644-1.132h4.529l1.888-2.643l4.906-0.755l9.061-2.266l8.305-5.663l3.021,0.377l4.529,2.266l3.396-1.511
					l1.133,1.888l1.51,5.662l-0.377,4.151l1.511,0.755l5.661-1.132l4.152,1.51l3.021,3.397v3.774l3.02-1.888l2.266,0.377
					l3.774-2.642h1.51l3.774-3.02l6.795-3.397l-1.133,5.285l7.173,6.04l4.907,7.549l6.039,11.702l3.396,7.55l2.643-1.888
					l0.377-2.266l2.644-1.132l1.51,1.132l-0.377,1.888l1.887,0.377l0.756,1.888l6.417,0.377l1.511-1.888l3.773-0.755l3.774,2.265
					l2.266,5.285l4.151,1.51l0.378,1.887l1.888,2.644l5.284,1.133l3.021-1.133L656.054,448.063"/>
			</g>
			<g id="selection_43">
				<path fill="#EDEDED" stroke="#FFFFFF" stroke-width="0.5" stroke-linejoin="round" d="M611.512,510.347v1.511l-5.662,1.888
					l-6.04,3.396l-1.51,2.644l-3.396,0.755h-4.907l-1.888,4.529l-5.285,1.133l-0.377-2.643l-4.53,1.133l-0.377,1.132l-5.285,2.266
					l-0.377,3.774l-1.888,1.132l-6.039,0.756l-2.644,1.51l-2.643-0.755l-2.265-2.643l-4.53,1.51l-0.755-1.133l-8.305,0.378
					l-0.378-1.888l1.889-3.021l2.643-0.755l3.021,1.133l3.396-1.511l1.887-0.377l2.644,1.132l2.643-2.265l1.51,0.378l4.907-3.397
					l-3.396-0.755l-2.644-2.265l-1.887-0.378l-1.888-2.644l-1.134,3.397l-3.773-1.132l-3.774-2.644l4.152-3.774l0.377-1.888v-0.755
					l2.265-3.396l3.397-0.756l9.06,2.644l1.889-4.152l4.151-2.266l5.284,3.021l3.774,0.755l0.755-1.133l17.364,0.755l3.773,0.756
					l2.267,2.643l2.642,0.378L611.512,510.347"/>
			</g>
			<g id="selection_44">
				<path fill="#EDEDED" stroke="#FFFFFF" stroke-width="0.5" stroke-linejoin="round" d="M242.34,509.97l-1.51,1.133l-1.51-0.756
					l-3.02,2.644l-0.755-3.021l-2.643-2.643v-1.51l1.888-0.755l2.642-3.775l4.152,4.152l2.265,0.755L242.34,509.97"/>
			</g>
			<g id="selection_45">
				<path fill="#EDEDED" stroke="#FFFFFF" stroke-width="0.5" stroke-linejoin="round" d="M411.45,616.04h-4.529l-1.51-3.02
					l-5.663-0.756l2.266-3.396l1.133-3.021l3.774-0.755l1.888,0.755l0.377,4.529L411.45,616.04"/>
			</g>
			<g id="selection_46">
				<path fill="#EDEDED" stroke="#FFFFFF" stroke-width="0.5" stroke-linejoin="round" d="M332.557,580.18l-3.02,2.644h-1.889
					l3.397-7.172v-1.511l2.265-3.02l3.021,1.51l0.756,1.51l-4.151,4.152L332.557,580.18"/>
			</g>
			<g id="selection_47">
				<path fill="#EDEDED" stroke="#FFFFFF" stroke-width="0.5" stroke-linejoin="round" d="M264.989,593.392l-1.887,2.644
					l0.755,3.774l-1.51,4.151l1.51,7.55v50.204v13.589h-6.04v3.397l-21.139-11.324L207.235,651.9l-10.946,5.661l-4.529-3.773
					l-9.814-2.265l-2.643-5.662l-5.285-1.511l-2.642-0.378l-1.511-5.284l-3.774-4.906l0.378-1.889l2.265-1.51l-0.755-5.662
					l1.132-3.021l-0.377-5.662v-3.021l-1.133-4.151l-2.265-4.152l1.51-0.755l2.265-1.132l1.888-3.021l-0.378-4.906l4.152-4.529
					l4.53-2.643v-5.662l4.907,2.643l3.02,0.377l3.02-1.132l6.04,1.887l1.888,1.133l4.152,1.134l1.132,1.51l0.755,3.774l1.51,1.888
					l2.643,1.132l4.152,0.378l3.397,0.755l5.284,2.266l4.907,3.774h2.265l2.643-1.511l2.643-4.151l-1.51-5.662l1.132-3.021
					l3.397-2.643l6.417-2.643h3.397l5.662,2.265l1.133,3.021l5.284,1.51h3.396l2.265,1.133L264.989,593.392"/>
			</g>
			<g id="selection_48">
				<path fill="#EDEDED" stroke="#FFFFFF" stroke-width="0.5" stroke-linejoin="round" d="M264.989,593.392l-1.887,2.644
					l0.755,3.774l-1.51,4.151l1.51,7.55v50.204v13.589h-6.04v3.397l-21.139-11.324L207.235,651.9l-10.946,5.661l-4.529-3.773
					l-9.814-2.265l-2.643-5.662l-5.285-1.511l-2.642-0.378l-1.511-5.284l-3.774-4.906l0.378-1.889l2.265-1.51l-0.755-5.662
					l1.132-3.021l-0.377-5.662v-3.021l-1.133-4.151l-2.265-4.152l1.51-0.755l2.265-1.132l1.888-3.021l-0.378-4.906l4.152-4.529
					l4.53-2.643v-5.662l4.907,2.643l3.02,0.377l3.02-1.132l6.04,1.887l1.888,1.133l4.152,1.134l1.132,1.51l0.755,3.774l1.51,1.888
					l2.643,1.132l4.152,0.378l3.397,0.755l5.284,2.266l4.907,3.774h2.265l2.643-1.511l2.643-4.151l-1.51-5.662l1.132-3.021
					l3.397-2.643l6.417-2.643h3.397l5.662,2.265l1.133,3.021l5.284,1.51h3.396l2.265,1.133L264.989,593.392"/>
			</g>
			<g id="selection_49">
				<path fill="#EDEDED" stroke="#FFFFFF" stroke-width="0.5" stroke-linejoin="round" d="M274.048,380.118l-0.755,3.775
					l1.888,0.755l-1.133,1.51h-1.887l-2.643,2.265l-1.888,6.795l-4.907,3.397l-8.305,0.377v-2.265l-2.642-1.888l-1.888-0.377
					l-0.378-1.51l1.133-3.774l-1.888-2.265h-3.02l-5.284-2.265l-1.133-9.061l3.774-2.643l2.643-1.132l10.947,0.755l1.887,0.755
					l4.907-1.51l1.133,2.265l3.02,0.755l4.53,4.53L274.048,380.118"/>
			</g>
			<g id="selection_50">
				<path fill="#EDEDED" stroke="#FFFFFF" stroke-width="0.5" stroke-linejoin="round" d="M145.329,438.249v1.132l2.265,1.888
					l-0.755,3.396l-3.775-0.755v-3.775l1.511-2.642L145.329,438.249"/>
			</g>
			<g id="selection_51">
				<path fill="#EDEDED" stroke="#FFFFFF" stroke-width="0.5" stroke-linejoin="round" d="M278.955,358.979l2.643,2.265v5.285
					l1.888,3.774l0.377,4.53l-1.51,0.755l-1.888,3.021l-3.396-0.377l-3.021,1.887l-1.887-0.755l-4.53-4.53l-3.02-0.755l-1.133-2.265
					l-4.907,1.51l-1.887-0.755l-10.947-0.755l-2.643,1.132l-3.774,2.643v-8.305l1.888-2.266l0.755-3.774l1.51-2.643l5.284-1.888
					l0.378,1.51l3.397,3.021l0.755,2.643l2.265,1.511l4.152-2.266l0.755-1.888l-0.755-6.417l5.284-2.266l5.285,2.643l3.397,3.775
					l2.265-1.133L278.955,358.979"/>
			</g>
			<g id="selection_52">
				<path fill="#EDEDED" stroke="#FFFFFF" stroke-width="0.5" stroke-linejoin="round" d="M92.86,567.346l2.643,3.021l0.755,4.151
					v6.416l1.133,3.397l2.642,3.021l-1.132,3.021l-7.55-0.378l-3.02,0.755l-0.378,1.511l-5.284,1.133v3.396l1.51,1.133l-4.53,2.643
					l-4.152,1.51l-3.02,3.775l-6.417,1.132l-1.133,1.888l-2.642-0.377l-3.775,1.887l-6.039,4.53l-0.378,7.549h-0.755v3.775
					l-3.774,0.377l-1.888,1.51h-3.397l-4.152-1.132l-3.02,0.755l0.378,1.888l-2.266,3.774l-2.265,0.378l-2.265,8.682l-3.774,2.644
					l-1.51,3.02l-3.021,1.511l-1.51,2.265l-1.133,7.55l-2.642,3.021l-1.133,3.021l-6.039-0.378l-7.55,0.378l0.377-3.021l3.397-4.907
					l1.133-3.397l2.643-4.528l-0.756-0.378l5.285-4.906l1.133-2.267l0.377-3.773l2.643-6.04l5.284-3.396l2.266-6.419l1.51-1.893
					l5.662-1.511l3.397-1.888l2.265-2.265l3.774-2.644l5.285-7.55v-2.265l-1.51-1.888l0.755-5.284l2.642-4.907l0.755-3.774
					l4.152-4.529l1.888-1.511l4.529-1.888l4.152-2.642l3.397-6.04l2.643-7.928l3.397-0.755l1.887,3.396l1.511,1.511l3.396,0.755
					l3.775-0.755l1.887,0.377l3.021-0.755l0.755,1.51h3.776"/>
			</g>
			<g id="selection_53">
				<path fill="#EDEDED" stroke="#FFFFFF" stroke-width="0.5" stroke-linejoin="round" d="M92.86,567.346l2.643,3.021l0.755,4.151
					v6.416l1.133,3.397l2.642,3.021l-1.132,3.021l-7.55-0.378l-3.02,0.755l-0.378,1.511l-5.284,1.133v3.396l1.51,1.133l-4.53,2.643
					l-4.152,1.51l-3.02,3.775l-6.417,1.132l-1.133,1.888l-2.642-0.377l-3.775,1.887l-6.039,4.53l-0.378,7.549h-0.755v3.775
					l-3.774,0.377l-1.888,1.51h-3.397l-4.152-1.132l-3.02,0.755l0.378,1.888l-2.266,3.774l-2.265,0.378l-2.265,8.682l-3.774,2.644
					l-1.51,3.02l-3.021,1.511l-1.51,2.265l-1.133,7.55l-2.642,3.021l-1.133,3.021l-6.039-0.378l-7.55,0.378l0.377-3.021l3.397-4.907
					l1.133-3.397l2.643-4.528l-0.756-0.378l5.285-4.906l1.133-2.267l0.377-3.773l2.643-6.04l5.284-3.396l2.266-6.419l1.51-1.893
					l5.662-1.511l3.397-1.888l2.265-2.265l3.774-2.644l5.285-7.55v-2.265l-1.51-1.888l0.755-5.284l2.642-4.907l0.755-3.774
					l4.152-4.529l1.888-1.511l4.529-1.888l4.152-2.642l3.397-6.04l2.643-7.928l3.397-0.755l1.887,3.396l1.511,1.511l3.396,0.755
					l3.775-0.755l1.887,0.377l3.021-0.755l0.755,1.51h3.776"/>
			</g>
			<g id="selection_54">
				<path fill="#EDEDED" stroke="#FFFFFF" stroke-width="0.5" stroke-linejoin="round" d="M284.241,482.036l-0.755-4.907
					l1.132-6.039l-1.132-3.021l-4.53-6.039l-2.265-4.907l-2.265-1.133l1.132-1.132l4.53-0.756l4.907,3.021l3.02,0.377l2.643,3.397
					l-0.378,2.643l2.266,1.888l0.377,2.643l1.888,1.133l-0.378,4.529l-4.152-1.511l-1.51,0.756l0.378,2.265L284.241,482.036"/>
			</g>
			<g id="selection_55">
				<path fill="#EDEDED" stroke="#FFFFFF" stroke-width="0.5" stroke-linejoin="round" d="M247.247,509.215l3.397,2.643l0.755,2.643
					l-0.377,3.021l-2.643,1.888h-3.774l-1.888,1.888l-4.152,0.377l-1.133-0.377l-1.887-3.396l0.755-4.907l3.02-2.644l1.51,0.756
					l1.51-1.133L247.247,509.215"/>
			</g>
			<g id="selection_56">
				<path fill="#EDEDED" stroke="#FFFFFF" stroke-width="0.5" stroke-linejoin="round" d="M133.249,680.966l0.378,13.967
					l-0.755,4.53l-1.51,3.774l-2.643,2.643l-13.589,0.377l-2.265,1.889l-4.53,0.378l-6.417-0.755l-1.51,1.51l-6.04,2.265
					l-0.755,1.888l-2.265-0.378l-2.643,1.889l-0.377,1.887h-1.51l-0.756,2.643l-1.887,0.378l-3.02-1.133l-1.511,1.511l0.755,2.265
					l-1.887,0.755l0.377,2.266l-2.265,1.888l-3.02,1.133v4.152l-1.51,1.133v3.773l-3.397,1.511l-1.133-0.378v-3.021l-2.643,0.378
					l-0.377,2.265l-1.51,0.756l-3.397-1.511l-1.888,1.133l-2.642-1.133l-1.133-6.04l-2.643-1.887l-1.51-4.53l-4.907,2.266
					l-2.643-1.133l-2.642,1.888l-1.511-1.888l-2.265,1.133l-1.51-1.133l0.755-4.906l-1.51-2.644l-1.133,0.378l-1.51-1.888
					l0.378-3.774l-1.888-4.151l2.643-1.133l0.755-2.644l1.888-1.51l3.396,3.02l1.511-1.51l4.529,0.378l4.916-1.136h23.026
					l1.132-4.907l-1.887-1.887l-6.04-56.622l11.324-0.377l37.37,26.801v1.887l3.397,3.021l3.397,0.755l1.132,1.51l4.907,1.511
					l0.378,2.643l-0.755,1.887l1.887,1.134L133.249,680.966"/>
			</g>
			<g id="selection_57">
				<path fill="#EDEDED" stroke="#FFFFFF" stroke-width="0.5" stroke-linejoin="round" d="M133.249,680.966l0.378,13.967
					l-0.755,4.53l-1.51,3.774l-2.643,2.643l-13.589,0.377l-2.265,1.889l-4.53,0.378l-6.417-0.755l-1.51,1.51l-6.04,2.265
					l-0.755,1.888l-2.265-0.378l-2.643,1.889l-0.377,1.887h-1.51l-0.756,2.643l-1.887,0.378l-3.02-1.133l-1.511,1.511l0.755,2.265
					l-1.887,0.755l0.377,2.266l-2.265,1.888l-3.02,1.133v4.152l-1.51,1.133v3.773l-3.397,1.511l-1.133-0.378v-3.021l-2.643,0.378
					l-0.377,2.265l-1.51,0.756l-3.397-1.511l-1.888,1.133l-2.642-1.133l-1.133-6.04l-2.643-1.887l-1.51-4.53l-4.907,2.266
					l-2.643-1.133l-2.642,1.888l-1.511-1.888l-2.265,1.133l-1.51-1.133l0.755-4.906l-1.51-2.644l-1.133,0.378l-1.51-1.888
					l0.378-3.774l-1.888-4.151l2.643-1.133l0.755-2.644l1.888-1.51l3.396,3.02l1.511-1.51l4.529,0.378l4.916-1.136h23.026
					l1.132-4.907l-1.887-1.887l-6.04-56.622l11.324-0.377l37.37,26.801v1.887l3.397,3.021l3.397,0.755l1.132,1.51l4.907,1.511
					l0.378,2.643l-0.755,1.887l1.887,1.134L133.249,680.966"/>
			</g>
			<g id="selection_58">
				<path fill="#EDEDED" stroke="#FFFFFF" stroke-width="0.5" stroke-linejoin="round" d="M227.618,498.646l2.266,3.02l4.907,3.397
					l-1.888,0.755v1.51l-1.51,0.755l-0.755-1.51l-2.643,3.773l0.377,2.644l-2.642-3.021l-2.265-1.51l-0.756-1.133v-3.774
					l3.397-4.529L227.618,498.646"/>
			</g>
			<g id="selection_59">
				<path fill="#EDEDED" stroke="#FFFFFF" stroke-width="0.5" stroke-linejoin="round" d="M29.444,709.277l-3.397-2.644l-4.152-6.04
					h-1.887l-2.643-2.642l-4.529-0.755l-4.907,1.132H4.908l-0.377-2.643l1.51-4.151v-6.418l-0.755-3.396l-1.888-2.266l1.51-3.021
					l0.378-2.643l-1.51-3.02H2.643l-1.51-3.021L0,669.639l0.378-3.396h24.913l-0.377-7.928l0.377-3.396l2.265-1.888l3.775-1.51
					v-17.364h20.761v-9.061l24.536,15.854l-11.324,0.377l6.04,56.622l1.887,1.887l-1.132,4.91H49.073l-4.907,1.133l-4.529-0.378
					l-1.511,1.51l-3.396-3.02l-1.888,1.51l-0.755,2.644L29.444,709.277"/>
			</g>
			<g id="selection_60">
				<path fill="#EDEDED" stroke="#FFFFFF" stroke-width="0.5" stroke-linejoin="round" d="M133.249,425.415l-1.887,1.887
					l-3.397-1.51L133.249,425.415"/>
				<path fill="#EDEDED" stroke="#FFFFFF" stroke-width="0.5" stroke-linejoin="round" d="M133.249,425.415l-3.774-0.378
					l-0.377-1.51l3.396,0.377l-0.755-2.643l3.397-5.284l1.133-4.907l4.152-3.021l1.132-1.887l3.397-1.51l4.907-0.377l2.265,1.888
					v2.642l-1.132,4.152h-1.888v1.51l1.888,1.133l-1.888,2.643v1.887l-4.907,1.51l1.51,3.021l-0.377,3.396l-1.511,1.511l0.756,2.265
					h-1.888l0.755-3.775l-8.305-3.396L133.249,425.415"/>
			</g>
			<g id="selection_61">
				<path fill="#EDEDED" stroke="#FFFFFF" stroke-width="0.5" stroke-linejoin="round" d="M300.849,182.32v4.53h-1.51l-2.265-1.887
					l-1.51,4.53l-3.775,1.51l-1.132,3.775l-1.51,1.132l-0.755-2.643l3.02-5.285l-1.133-3.397l-4.529-3.02l-3.397-4.152l-1.888,0.377
					l-3.02,2.265h-3.774l-3.021,4.907l-1.887,7.549v4.152l-2.265,2.265l-2.643,4.53l-6.795-3.774l-1.132,1.887l-2.266,1.132
					l-5.662-1.51l-0.755-2.265l-4.529-7.172h-2.265l-1.133,1.51v2.265l-2.643,0.377h-3.397l1.511,2.265v2.643l-2.266,3.397
					l1.511,1.132l-1.511,2.265l-5.662-2.265l-4.529-1.132l-1.133,0.377v5.663l-1.51,3.774l-3.774-2.265l-3.397,3.775l-1.51,4.152
					l-2.643,3.397l1.888,4.53l-0.378,1.51l-6.039,9.06l0.377,3.02l-1.887,1.51l-4.152,1.132l0.755,4.53l-1.133,7.927l-2.265,5.663
					l-2.643,5.284l2.643,1.51l0.377,4.53l-1.132,2.265l-4.152-1.132l-4.152,1.887l-3.02,4.907l-1.133,4.53l1.51,3.775l-0.755,1.132
					v4.152l1.133,4.152l-0.755,7.55l4.529,4.907l-1.51,4.152l-2.265,0.377l1.887,7.172l-0.755,4.53l-3.396,3.02l-1.511,3.397
					l0.756,3.775l-1.133,4.53l-1.51-1.51l-3.397-1.887l-1.51-2.265l-2.643,4.529l-2.643-0.377l-7.927,9.06l-2.265,1.887l-4.53,1.134
					l-4.529-0.378l-2.265-2.265l-4.152-3.02l-1.133-2.644l0.755-3.397l1.51-0.755l0.378-3.02l-2.265,0.377l-1.51,1.51l-1.133-0.755
					l0.755-5.285h3.02v-2.643l-4.152,2.265l0.756-11.324l-1.133-1.51l-0.378-4.529l2.266-0.755l-1.888-1.888l0.755-3.775
					l-1.51-2.265v-2.265l3.397-0.377l3.397,1.51l0.755-0.755l-6.04-1.51v-2.642h1.133l1.132-2.265l3.775-1.51l1.51-2.265h5.662
					v-1.888l-3.021,0.377l1.511-3.02l3.396-1.888h3.397l1.133-2.642l1.888-0.377l-1.133-3.021l2.643-1.51l3.02,0.755l2.643-0.755
					l2.265,2.642l4.152-0.377v-2.265l-5.285,1.51l-0.755-2.642h-1.51l3.02-5.285l3.397-4.907l4.152-3.775l0.755-3.397l5.285-4.152
					l0.755-5.662l3.397-6.04l-0.378-2.265l2.265-1.887l-0.377-3.397l0.755-3.02l3.02-3.397l2.643-4.53l4.152-1.132h4.152v-0.755
					l-6.04-0.755l1.888-3.397l0.377-5.285l3.021-4.152l4.529-2.642l0.755,3.397l1.51-1.132l-1.132-3.396l2.265-3.021l0.755-2.643
					l3.02-1.132l1.51-1.887l1.888-5.285l2.643-1.132l-0.378-3.02l1.51-2.643l1.888,0.755l0.378-1.51l2.265-0.755l1.132-3.397
					l7.173-3.775l5.284,1.132l0.378-1.887l3.396-1.133l-2.265-2.265l3.775-2.265l4.151-1.51l1.511,1.51l0.755,3.775h1.51
					l0.755-2.642l1.51-3.02l2.643-1.51l2.265-4.152l-1.133-2.265l3.397-3.775l3.021,3.397l1.132-1.51l1.888,1.132l-3.02,5.663
					l-0.756,4.53l2.266-0.378l6.417-10.947l1.51,1.132l-1.133,3.775v4.907l2.643-1.887l1.133-4.53l2.265-1.51l-1.888-2.265
					l2.265-3.02l3.397,1.132l1.51,1.132l-1.132,5.285v4.907l1.51-1.132l1.133-4.907l1.51-1.888h1.51l1.887,2.265l2.643,1.887
					l1.51-1.132l1.133,3.02l2.265,0.377l1.888,2.265l0.377,2.265l-6.417,3.397l-7.172-0.755v0.755l4.907,2.265l0.378,3.397
					l1.132,1.132l4.152-1.132h2.262"/>
			</g>
			<g id="selection_62">
				<path fill="#EDEDED" stroke="#FFFFFF" stroke-width="0.5" stroke-linejoin="round" d="M461.654,641.331l1.511,3.396l3.773,3.774
					l8.306,1.888l6.039,7.551l1.888,0.377v1.888l-2.643,4.907l-3.021,2.643l-2.643,4.529l-2.644-0.755l-1.51,1.888l-0.755,4.529
					l0.755,3.774l-4.152,0.755l-3.396,2.266l-0.378,2.643l-1.889,1.51l-4.906,0.756l-2.643,5.283h-6.418l-3.02,1.889l-3.021,0.755
					l-2.265-4.529l-4.907-11.324l18.874-6.418l4.151-13.589l-2.643-4.906v-2.266l1.888-4.529l-0.377-1.511l1.887-2.265l0.378-4.152
					l1.51,0.755L461.654,641.331"/>
			</g>
			<g id="selection_63">
				<path fill="#EDEDED" stroke="#FFFFFF" stroke-width="0.5" stroke-linejoin="round" d="M591.506,567.346l-2.643,3.021
					l-3.774,0.377l-1.888,1.51l-9.061-2.265l-1.888,1.133l-1.132,2.265l2.265,6.417l-1.133,1.889l2.266,3.396l1.888,0.378v1.51
					l4.529,1.889l-3.774,2.643l-1.51,1.51v3.774l-3.774,5.662l-0.755,2.643l-2.644,1.133l-3.02,6.418l-3.397,1.887l-3.02,5.662
					l-7.173,1.888l-2.266-2.265l-1.51,1.132l-3.773,4.907l-0.378,2.643l4.151,2.265l-0.377,4.152l1.132,1.133l2.266,0.377
					l0.378,1.889l2.265,4.906v1.889l-1.888,1.132l-1.132-1.132l-5.285,1.887l-1.132-0.755h-5.285v1.888l-3.397,0.755l-3.02,0.377
					l-2.266-2.265l-0.755-4.152l-3.02-0.755v-2.642l-1.888-2.266l-4.53,1.51l-5.662,0.378l-0.755,0.755l-3.396-1.133h-3.774
					l-0.377,1.133l-5.662-0.377l-1.511,0.755l-4.907-0.378l0.756-4.152l1.132-3.396l3.774-1.887l4.529-0.756l0.755-3.396
					l-3.396-1.133v-6.417l-5.662-2.644l-1.51-1.51l-1.889-4.529l-3.02-3.396l10.191,3.396l6.795-0.755l3.396,0.755l2.644-1.133
					h3.773l6.795-1.888l1.511-7.927l3.02-3.021l2.265,0.755l1.889-2.265l3.773-2.266h2.644l1.888,1.511l2.644-2.266l-0.379-3.774
					l1.511-4.529l2.643-0.378l2.265-2.265l-2.643-3.774l1.133-1.133l2.644,0.755l3.773-0.755l-0.377-3.774l4.151-4.907l-1.51-5.284
					l-1.511-1.511l3.021-3.02l6.04-3.021l7.172-0.377l1.51,0.377l3.397-1.51l5.284,0.755l0.378,1.512l2.643,0.755l0.755,1.887
					l-0.378,2.265l1.511,2.267l2.643-0.755L591.506,567.346"/>
			</g>
			<g id="selection_64">
				<path fill="#EDEDED" stroke="#FFFFFF" stroke-width="0.5" stroke-linejoin="round" d="M230.261,393.329l3.775,0.377
					l15.854,0.755l1.888,0.377l2.642,1.888v2.265l2.643,9.813l-0.377,3.775l-2.266,1.132l-1.51,3.021l2.643,2.265l-0.377,5.285
					l0.377,1.888l3.02,4.907l-0.755,4.152l-1.887,0.377l-4.152,4.529l-2.643,3.775l0.377,3.397l-0.755,1.132l-3.396-1.511
					l-2.266-1.887l-6.417,0.377l-5.662,1.51l0.378-1.51l-2.265-2.265l-1.888,1.888l-1.888-1.133l-1.887-3.397l-3.397-1.51
					l-0.755,0.755l-4.53-4.151l-3.02,2.643l-4.152-4.907l-4.152-1.887l-2.265-2.265l-1.133,1.51l1.133-3.774l-1.888-2.643
					l-0.755-3.397l1.133-2.265l-1.133-3.02l0.378-1.889l-3.397-3.396l1.888-4.152l-0.756-4.907l-0.377-1.51v-0.755l12.457-3.774
					l2.265-2.643l4.529-1.887l6.417-1.511l2.266,4.529l1.887,1.133L230.261,393.329"/>
			</g>
			<g id="selection_65">
				<path fill="#EDEDED" stroke="#FFFFFF" stroke-width="0.5" stroke-linejoin="round" d="M60.397,551.492l-3.02,1.132l-4.53-0.755
					l-2.642,0.755l1.132-3.396l-0.755-8.684l-1.888,0.755l-1.51-2.265l0.755-4.907l1.511-1.888l1.51-4.907l1.51-7.172l-1.133-5.284
					l0.378-2.265l3.397-1.889v2.266l5.284,0.378l1.51-1.133l3.397,0.378l0.378,2.265l1.887,1.132l-4.152,4.152l0.378,5.662
					l-1.133,1.133l0.755,1.51l-0.755,2.644l-3.397,0.377l2.266,4.151l1.132,0.755l-1.887,4.907l1.887,3.021l-1.132,0.378
					l-1.888,3.396L60.397,551.492"/>
			</g>
			<g id="selection_66">
				<path fill="#EDEDED" stroke="#FFFFFF" stroke-width="0.5" stroke-linejoin="round" d="M322.366,596.789l-0.379-0.755
					l1.889-1.888L322.366,596.789"/>
				<path fill="#EDEDED" stroke="#FFFFFF" stroke-width="0.5" stroke-linejoin="round" d="M329.915,594.901l-3.021-3.396v-1.888
					l1.51-2.644l2.266,1.134v4.528L329.915,594.901"/>
			</g>
			<g id="selection_67">
				<path fill="#EDEDED" stroke="#FFFFFF" stroke-width="0.5" stroke-linejoin="round" d="M429.191,643.974h-1.888l-0.755-1.51
					l-0.378-4.53l1.511-3.773l1.51-1.133l1.888,1.888l-0.378,2.643l0.756,2.644l-1.133,3.396L429.191,643.974"/>
			</g>
			<g id="selection_68">
				<path fill="#EDEDED" stroke="#FFFFFF" stroke-width="0.5" stroke-linejoin="round" d="M284.241,482.036l3.397,1.888l4.151-1.888
					l1.888,1.51l-0.755,3.775l-3.397,0.755l-2.642,4.152l-0.378,4.906l-3.02-0.756l-1.133-1.51l-3.02-0.377l-2.265-1.133
					l-5.285,1.51l-4.529,2.643l-6.795-1.133l-1.133,0.378l-6.417-0.755l-3.397-3.396l-1.132-4.152l-2.643,1.51l-4.529-2.642
					l0.755-2.644l-4.53-3.02v-2.267l-3.396-3.396l5.284-1.133l2.643-4.152l3.397-7.55l1.887-2.265l3.397-1.889l2.265-1.132
					l6.04,1.51l2.643-0.378l1.887,2.267l3.397-1.889l4.53-0.755l0.755-1.888l2.265-0.755l2.265,1.133l2.265,4.907l4.53,6.039
					l1.132,3.021l-1.132,6.039L284.241,482.036"/>
			</g>
			<g id="selection_69">
				<path fill="#EDEDED" stroke="#FFFFFF" stroke-width="0.5" stroke-linejoin="round" d="M240.453,384.647l5.284,2.265h3.02
					l1.888,2.265l-1.133,3.774l0.378,1.51l-15.854-0.755l-3.775-0.377l1.888-3.02l0.377-1.889l3.397-0.755l2.265-3.396l0.378,0.377
					l-2.265,3.02l3.774,0.755L240.453,384.647"/>
				<path fill="#EDEDED" stroke="#FFFFFF" stroke-width="0.5" stroke-linejoin="round" d="M656.054,448.063l-4.151-4.907
					l-3.021,1.133l-5.284-1.133l-1.888-2.644l-0.378-1.887l-4.151-1.51l-2.266-5.285l-3.774-2.265l-3.773,0.755l-1.511,1.888
					l-6.417-0.377l-0.756-1.888l-1.887-0.377l0.377-1.888l-1.51-1.132l-2.644,1.132l-0.377,2.266l-2.643,1.888l-3.396-7.55
					l-6.039-11.702l-4.907-7.549l-7.173-6.04l1.133-5.285l-6.795,3.397l-3.774,3.02h-1.51l-3.774,2.642l-2.266-0.377l-3.02,1.888
					v-3.774l-3.021-3.396l-4.152-1.511l-5.661,1.132l-1.511-0.755l0.377-4.151l-1.51-5.662l-1.133-1.888l-3.396,1.511l-4.529-2.266
					l-3.021-0.377l-8.305,5.663l-9.061,2.266l-4.906,0.755l-1.888,2.643h-4.529l-2.644,1.132l-5.284,1.132l-0.755,0.378
					l-7.172,1.887l-3.774-1.132l-1.133,0.755l-1.133,3.774l1.888,0.755l-0.377,2.644l5.284,1.887l-0.378,1.888l-6.039-0.378
					l-1.51,2.644l1.132,4.53l-5.662,3.02l2.644,3.397l5.662,2.265l1.132,2.265l-1.132,3.397l-2.644,1.888l-4.151-0.377l-2.266-0.755
					l-0.755,2.265l-6.04-1.132l-3.02-3.774l-3.397-0.377l-2.642,2.265l-2.644-1.887l-3.021,0.377l-4.529,4.151h-1.51l-5.285-3.774
					l-1.887,1.888l-2.267-3.02l-4.529-3.775h-4.906l-1.51-2.265l-1.889,0.377l-2.642,1.887h-1.511l-1.133-1.887l-2.265-0.755
					l-3.774,4.529l-4.529,1.888l-1.133,2.643l-4.152,2.642l1.133,5.285l-2.643,1.888l-4.529-5.285l-2.266,1.133l-0.377,1.887
					l-1.889,2.266l-1.132,4.529l1.511,2.644l-2.266,2.643v3.774l1.887,1.51l0.756,3.02l1.133,1.889l1.133-0.377l4.15,0.377
					l2.644,3.773l2.643,5.285l-2.265,1.888l4.152,1.888l-3.775,2.266l-3.02,3.396l-4.152,1.133l-2.643,6.417l-2.266,1.888v2.265
					l3.02,1.889l1.889,6.039l-0.377,4.151l7.172,10.192l-1.133,1.887l-2.266,1.133l-1.133,2.266l-3.773-0.755l-3.397-4.529
					l-1.888-0.378l-4.907-2.643l0.378-2.266l-2.266-0.755l-3.02-1.888h-2.266l-3.397,1.888l-1.132-1.888l-8.682-3.774h-5.285
					l-6.04-3.02h-3.021l-1.132,1.132l-7.928-7.549l-3.396-1.134l-1.889-2.643h-2.643l-1.51-2.265l-3.397-1.511l1.888-1.51
					l4.152-0.755l0.377-2.266l1.51-3.396l1.512-0.755l-1.133-4.53l8.305-4.528l-0.756-1.511l-3.396,1.133l-0.378-1.133l-2.265,1.511
					l0.377-4.152l3.774-3.021l5.284,0.379l1.511-4.152l-0.756-2.644l-1.132-0.377l0.755-2.265l-0.755-1.888l2.643-1.889
					l-0.378-3.773l-1.51,0.377l-3.774-2.644h-1.511l-4.151-2.265l-1.51,1.51l-2.266-1.887l-1.51-3.02l-5.284,1.888l-4.53-2.265
					l-1.132,1.133l-1.888-1.889l-0.377-5.284l-1.889-1.511l-1.888,0.377l-3.02-1.51l-0.756-3.396l1.51-1.133l-4.151-6.04
					l-3.774,0.378l-1.51,0.755l-2.266-0.755l-1.51,2.265h-3.397l-1.132-2.265v-4.907l-1.889-2.266l1.134-1.887l4.528,1.132
					l3.397-2.642l-1.51-3.775l-4.53-1.132l0.378-2.643l-2.644-1.511l-1.51-4.906l-2.265-1.511l1.132-3.02l-0.755-2.266l0.378-3.396
					l-4.152-3.02h-1.888l-3.02,1.887l-0.378-3.021l-1.887-0.755l-1.888,0.755l-1.51-1.51l-2.643-0.755l-0.377-4.53l-1.888-3.774
					v-5.285l-2.643-2.266l1.133-3.396l1.51-0.377l-1.888-4.907v-7.172l1.888-2.265l0.755-3.02l1.51-1.132l-0.755-1.51v-3.02
					l1.888,0.755l1.132-2.265l2.643,0.378l1.51-2.265l6.04,1.887l0.377-1.132l-3.02-3.02h-4.152l-2.642-2.265l-0.756-3.774
					l-4.529,1.51l3.774-4.53l5.662-4.907l2.643-3.397l9.814-13.966l1.887-3.775l-2.264-4.53l-4.908-4.152l-2.643-3.397l3.02-4.152
					v-3.02l-2.265-1.887l-0.755-2.642l0.377-3.02l-1.887-0.755l-1.133-2.265l1.51-2.265l-1.132-1.51l1.132-5.285l1.888-1.888
					l-1.51-6.417l-4.907-11.702v-1.888l5.284-9.437l0.378-2.265l-4.152-6.417l-4.152-2.265l-1.133-4.907l1.511-4.907l-0.378-1.51
					l1.888-3.02l1.51-1.132l1.132-3.775l3.775-1.51l1.51-4.53l2.264,1.887h1.511v-4.53l3.774,1.888l2.266-2.265h4.906l2.266,1.133
					l0.378,2.265l-1.511,0.377l-3.773-1.132l-0.377,0.755l1.887,2.642l6.039,0.377l1.889,2.643h3.396l4.151,1.51l2.643-1.132
					l3.774,1.51l4.53,3.397l7.172,5.662l4.529,5.662l2.265,0.377l4.53,4.53l3.02,0.755l2.266,3.02l3.774,2.265l1.132,7.172
					l1.133,0.755l-1.133,6.417l-4.152,6.04l-2.642,2.265l-4.907,2.643l-5.662,1.132l-4.906-1.132l-1.889-1.51l-11.324-2.643
					l-4.528-3.397l-8.305-2.643l-1.889-1.132l-2.265-3.02l0.755-0.755l-3.396-1.132l0.377,3.775l3.021,3.397l1.511,0.377
					l0.377,2.265l2.644,1.51l-0.757,1.887l5.285,3.02l2.644,4.152l-1.133,5.285l-1.511,1.887l2.644,6.04l0.377,6.417l1.133,1.51
					l2.643,1.51l1.133-0.377l3.02,2.642l1.51,2.643l6.795,2.643l4.152-3.02l-0.755-4.152l-1.51-1.132l-3.397-0.377l-4.152-6.417
					l1.511-1.888l0.755-2.642l1.51-0.377l2.266,1.132l3.021,3.397l6.795,2.642l3.021,1.887h1.51l1.888-3.02h2.265l-1.133-3.397
					l-3.02-4.907l0.377-3.774l3.021-2.643l2.265-3.02l4.907-2.643l4.906-6.04l2.266,1.51h4.152l3.773,4.152l1.512-1.132l2.265-7.172
					l-0.378-5.285l-0.756-1.51l-2.643-1.51v-4.152l2.266-9.06l-0.377-5.662l-4.908-4.907l0.756-1.132l3.396,2.265l6.417-0.378
					l5.285,1.51l4.907,8.682v2.265l-7.173,1.51l-3.774,4.53v1.887l3.774,2.643l2.643,5.662l3.397,0.755l7.172-3.02l1.51-7.549
					v-2.265l6.417-2.265l-1.132-2.642l2.643,0.377l4.906-3.397l5.663-4.907l3.396-0.755l4.152-2.265l1.51,1.133l3.021-0.377
					l-1.133-1.888l0.755-2.265l7.172-4.53l1.133,2.643l-1.51,3.397l1.132,3.397l-3.773,1.51l-0.377,1.51l4.15,0.755l3.775-0.755
					l1.887,1.133l0.378-3.02l3.397-3.397l3.773-1.132l6.795,1.51l6.794-6.04l5.285-1.887l2.266,4.53l-1.889,2.265v3.02l3.021,1.51
					l1.887-1.132v-4.907l3.775-0.377l3.02-4.53l-1.888-2.265l-3.021-8.305l5.285-4.907l4.907,1.51l5.284,0.378l4.529,1.132
					l5.284,2.642l5.285,4.907l4.529,2.265l4.151,3.397l3.774,1.132l0.755,2.265l3.775,4.152l4.151,3.397l2.643-4.53l1.888-6.417
					l-2.265,0.377l-1.511-0.755l-2.643-4.907l-0.755-4.152l-5.662-3.774l-1.888,0.377l0.755-6.417l2.265-1.888l-0.755-1.887
					l0.755-9.814l-0.755-1.887l-2.642,0.377v-4.152l1.132-4.907l4.151-2.265l4.529-5.662l1.888-6.417l3.021-13.966l2.266-6.04
					l1.511,1.51h6.417l5.283-0.377l2.644,1.887l3.02,0.755l2.644,1.888l-0.377,7.549l-1.133,5.285l-1.889,7.927l-2.265,2.643
					l-0.377,1.887l1.132,3.02l3.396,3.02l0.756,6.417v6.794l-1.511,3.397l0.377,1.887l0.378,12.834l-0.378,7.172l1.889,4.53
					l4.529,4.152l-0.755,2.643l-1.888,4.152v5.285l-1.133,2.642l-2.266,1.888l-4.906,9.437l-3.021,0.755l1.51,3.397l-4.151,3.397
					l-1.133,0.377l-2.266-1.51l-3.02-3.775l-5.662,0.755l1.132,3.397l7.173,3.774l5.284-0.377l4.907,1.888l2.265-1.133l0.755-3.774
					l5.663-3.775l3.021-3.02l1.887-6.794l4.152-6.04v-4.907l-2.266-6.04l1.133-5.662l3.397-1.888l6.039-2.265h2.265l4.907,9.06
					v8.682l-0.377,3.02l3.396,3.02l1.888,0.377l3.396-1.133l-6.039-1.887l-0.378-4.152l0.755-3.397l2.266-1.133l-2.266-10.947
					l-10.19-6.04h-3.775l-3.773,2.643l-3.021-0.755l-2.266,0.378l-1.132-1.51l0.755-3.774l-2.266-5.285l1.888-8.682l3.021-7.549
					v-1.51l-4.907-10.569l-3.021-4.53l3.774-7.927l4.152-2.265l4.151-4.152l0.756-5.662l-0.756-4.152l-1.511-3.775l2.644-1.132
					l1.133,1.132l1.51,4.53l0.755,6.04l-3.02,9.814l1.51,3.397l-1.133,4.53l0.378,1.51l4.907,2.642l9.06,0.755l3.021,3.775
					l3.02,1.132l0.378-1.51l-2.266-5.285l-2.265-1.132l-2.644,0.377l-7.172-5.662l-1.887-6.417l2.642-1.888l2.644-0.377l4.529,3.775
					h1.133l3.02-2.265l-1.51-3.02l-3.021,0.377l-0.378-2.265l3.021-3.02l3.396-1.132l6.039,0.377l3.397,3.02l4.906,2.643
					l0.756,2.642l4.151,4.53l3.397,0.755l3.02-1.132l2.644,0.377l1.51,1.51l-1.888,4.907l-3.774,3.02l-0.378,5.285l0.378,3.775
					l3.397-3.02l1.132,2.643v4.53l-2.266,6.794l1.134,2.265h1.51v-3.397l2.643-1.133l1.51-3.774l-1.133-4.152l-2.643-6.417
					l2.643-9.814l-0.377-1.888l-1.888-3.774l-3.774-1.133l-1.888-3.02l-0.755-3.397l-2.644-1.51l-4.151-1.51l-1.889-1.888
					l-1.132-4.907l1.132-4.907l-1.887-3.02l-0.755-6.04l1.132-2.643v-1.894l7.928-1.888l10.569-0.377l7.549-2.265l2.266,1.132
					l2.266-0.377l1.132-1.887l6.04-1.51l2.644,1.51l-4.152,4.53l-3.396,2.642l0.755,0.755l3.02-2.265l4.53-1.132l3.02-4.152
					l-2.643-1.887l-3.774-8.305l-3.773-1.51l1.132-2.643l3.02,0.377l1.512,1.888l2.265-0.755l-5.285-5.284l-3.773-1.51l0.378-2.265
					l2.265-1.51l2.643,3.02l1.511-0.755l3.396-5.285l0.378-1.888l-3.396-1.51l1.51-3.02l3.021,1.51l5.283-3.775l1.511-1.887
					l3.774-2.643l1.511,0.378l3.773-3.397l5.285-1.51h3.021l2.265-1.888l10.569-3.397l-2.266-2.642l-1.888-0.377l2.265-3.397
					l2.644,1.133l2.643-1.51l2.644,0.377l0.377-1.132l3.02,0.755l1.888-0.377l4.53,1.51l-0.755,3.775l3.396-1.887v3.02l2.644-1.132
					l3.02-2.642l7.929-5.662l5.662,3.774l1.887-0.755l-6.417-9.437l0.378-0.755l4.529,1.132h4.529l3.396-1.51l1.133,1.51
					l3.397,0.755l0.755-1.133l-4.907-1.887l1.133-4.152l-1.133-3.02l0.377-4.907l1.133-0.755l2.266-4.907l6.795-9.06l3.396-3.397
					h2.644L761.37,0l4.907,2.265l0.755,1.888l4.907,1.887l2.265,3.775l-2.265,1.132l-2.266,3.397l-7.173,3.775h9.061l0.378,3.02
					l3.773-1.51l2.266,1.132l1.511-0.755l3.02,3.02l-3.02,5.662l-1.888,4.152l-1.134,1.51l2.266,1.132l2.266-1.51l3.021,0.377
					l1.51-1.51l0.755-4.152h4.152l4.529-0.755l3.774,1.132l3.02-1.51l4.152,1.132l4.152,3.397l1.888,3.397l3.396,2.267l1.133,8.682
					l3.021-4.907l1.888,9.437l1.889,0.755l-1.511,6.795l-1.511-2.265l-4.15-1.51l1.51,4.152l1.132-1.132l3.396,4.152l-0.377,4.152
					l-4.529,6.794l-4.529,3.775l-2.265,2.643l-3.397,2.265l-2.643,2.265l-3.021,2.265l-1.133,1.887l-2.265,1.133l-0.378,3.774
					l-4.529,3.02l-5.662,7.549l-2.643,1.888h-3.021l-3.775,6.417l-3.02,0.377l-3.397,7.55l2.644,0.377l2.643-4.152l3.774-0.755
					h4.151l3.774-3.02l4.53-1.51l1.51-2.265l3.397,0.377l6.416-6.04l-1.133-1.132l-1.887,1.51h-4.152l-0.378-1.887l1.134-3.02
					l2.643-1.887l4.906,1.887l1.133-0.755l1.133,3.397l4.529,2.642l4.151-1.132l1.511-3.775l2.265,6.04l0.755,3.397l3.397-1.887
					l4.906-0.377l3.021-2.265l7.549,0.755l4.907,1.51l7.172,0.377l2.643,1.132l0.379,1.132l-3.021,0.377v4.907l3.396,2.643
					l2.644,1.132l2.265,1.887h5.285l2.643,0.755l2.266-0.377h3.02l1.133,1.51l3.021,0.377l0.755-3.397l3.397,1.51l2.642-4.907
					l-1.51-3.397l-0.377-4.152l1.132-3.02l1.888,0.755l1.51-1.888l2.267-0.755l2.642,0.755l5.285,4.53l-0.378,1.51l4.152-2.265v3.02
					l1.888,1.887l3.02-4.907l4.53,1.51l7.173,6.417l1.132,3.02l-3.021,3.397l2.643,0.377l1.511,3.775l-3.774,3.02l3.021,1.51
					l1.887,3.397l-0.755,4.53l-2.266,0.377l-3.02-3.397l-0.755,3.397l3.774,6.417l1.888-3.02l1.51,3.397l-4.151,1.51l1.888,1.51
					l4.151,9.437l3.021,3.397l2.643,1.133l3.021,2.642l2.643-3.02l1.887-6.04l2.267-8.682l1.887-4.907l5.662,7.927l4.152,2.265
					h3.774l1.888-2.643l5.661-2.265l3.021,1.132l6.039,4.152l1.888,3.02l3.021-1.887l-1.132-1.51l1.132-3.775l2.643,0.377
					l0.755-1.51l3.397,3.774l4.907-1.132l-1.889-4.152l-0.377-6.04l1.511-3.02l-1.511-1.51l-2.643,1.133l-0.378-3.397l3.021-3.397
					h5.284l3.774-1.887l-0.378-2.643l-2.265-2.642l0.377-1.132l3.775,0.755l1.51,1.51l3.397,1.51l9.059,0.378l12.457,3.396
					l4.907,1.887l-0.378,1.888l-9.06-0.755l-1.133,1.887l-2.643,0.755l1.888,1.888l3.396-1.888l9.814-0.755l1.51,1.132l-2.643,4.152
					l-1.133-1.887l-3.396-1.51l0.377,5.285l-2.265,1.132l-1.511-0.755l-1.133,3.397l1.511,1.51l3.774-1.132l3.397-3.775l3.396-5.284
					l3.397-3.02l6.04,0.377l7.172,3.02l2.643,3.774l-0.378,3.02l-5.284,0.755l-0.378,2.265l3.397,0.378l3.396,3.02h3.397
					l0.377,1.132l5.662,3.397l3.396,5.285l-2.265,0.755l4.906,2.643l7.928-0.755l7.927-3.02h3.397l1.888-1.132l9.813,0.377
					l3.774,0.755l4.151,1.887l4.152,2.643l2.266,3.02l1.888,6.417l-1.888,7.927l0.755,1.51l6.795,3.397l0.755,9.06l3.396,3.397
					l-0.755-5.285l0.377-3.02l2.644-3.02l2.643-1.887l5.284-1.132l6.04-0.378l2.265,2.265l7.927,0.377l1.134,0.755l5.662,0.755
					l4.906-4.529l1.511,0.377l1.888,2.643l0.755,5.662l6.417,3.397l1.888,4.907l5.662-0.755l3.021-3.775v-1.51l-2.644-7.927
					l-2.643-0.755l2.266-4.152l-0.378-4.53l4.907,0.377l8.305,1.888l4.529,2.642l1.133-2.265l3.021,1.51l8.682,0.377l2.644-1.132
					l2.265,1.132l5.285,3.775l3.02,0.755l3.397,1.887l5.662,1.888l0.755,1.887l1.888,0.377l4.529,4.907v63.416l-3.397,3.397
					l-6.039,3.397l-4.906-1.51l-3.021-2.265l-6.418,0.377l0.756,1.887l2.643,1.132l3.774-2.265l0.377,4.907l3.397,3.397l3.396,1.132
					l1.132,2.265l0.378,4.53l-0.378,1.51l2.267,3.775l1.887,1.132l-0.377,2.643l1.51,2.265l0.377,1.888l-2.642,3.02l-0.378,1.887
					l-6.795-3.02l-4.529-0.755l0.378-1.888l-2.266-0.377l1.133,2.643l-3.021,0.755l-2.265,2.265l-10.192,5.285l-1.133,1.888
					l-2.642,0.377l-1.888,1.51l-1.134-0.377l-3.02,3.775l-2.644,1.51l-2.265,3.02l-9.06,7.172l-2.266,1.132l-1.51,6.04l-2.266-1.51
					l-2.265-4.53l-2.643-2.265l-6.795,0.377l-5.662,2.265l-1.511,1.132l-4.151,5.662l-1.133-1.51l1.51-6.417l-8.304,4.907
					l-0.379,3.02l-3.773-2.642l-0.755,1.132l-3.021-0.755l-2.643,2.643l-0.755,6.417l-1.511,3.774l-3.396,3.775l-2.266,3.021
					l-1.133,4.529l0.756,1.888l2.643,1.51l1.51-1.887l2.644,1.132l0.377,1.888l-2.644,3.774v6.417l3.021,1.51l0.377,4.907
					l-1.889,2.265l-2.642-2.265l2.265-2.266l-1.888-0.377l-0.755,2.644l-3.02,1.887l-1.889,4.907l-0.377,3.02l2.643,6.795
					l-2.643,2.266l-3.774-0.755l-1.888,0.755l-4.529,3.774l-1.51,4.53l0.755,2.265l-1.132,3.397l-5.285,1.887l-2.266,1.888
					l-0.755,6.04l-2.265,4.907l-8.684,8.305l-1.51-4.907v-4.53l-0.755-6.04l-1.51-5.285l-1.511-9.813l-1.51-9.814l-0.378-5.285
					l0.755-8.305l1.889-7.172l4.528-5.285l1.511-3.397l-1.133-3.396l1.133-1.132l3.021,0.377l1.51-2.643h3.397l5.284-4.529
					l3.396-4.53l1.51-4.152l4.53-5.285l1.887-0.755l3.775-5.285l1.887-1.51l1.512-3.397l6.038-4.53l2.644-0.377l1.887-1.51
					l-0.755-1.132l2.643-4.152l-1.132-1.51l1.51-3.397l1.133-7.927l2.265-2.265v-3.02h-1.887l-6.04,1.887l-1.133,3.775l-0.756,6.417
					l1.512,1.132l-1.512,2.265l-1.132-2.265l-2.643,0.755l-8.683,9.06l-1.888,2.642l-3.396-1.132l1.133-2.265l-2.643-1.51
					l-0.377-2.265l1.51-3.02l1.132-3.397l-0.755-1.51l-4.151,2.265l-1.511-2.265l-1.51-0.378l-6.039,2.265l-4.152-0.377
					l-4.907,4.152l-0.378,2.642l-3.396,3.775l-1.132,2.642l-5.662,5.285l-4.152,6.795l-1.133,3.774h2.643l3.774,1.888v2.265
					l-3.021,0.755l-1.51-1.132l-2.643,1.887l-1.887-1.887h-2.267l-3.02,3.397l-3.021-1.133l-1.888,1.51l-4.907,0.377l-1.133-2.265
					l2.266-1.132h3.021l-3.021-4.53l-3.396-0.377l-1.51,1.132l-1.512-1.51l-5.283-2.265l-3.774,1.887l-0.755,4.152l-2.643,0.377
					l-1.511-1.888l-2.265,0.378l-2.266,1.132l-6.418-2.265l-1.51,3.02l-2.265,0.377l-2.265-2.643l-6.796,0.378l-3.773-0.378
					l-4.152,0.378l-4.151,1.51l-3.397,3.02l-1.51,3.02l-4.907,4.151L992,350.667l-1.511,4.907l-3.02,1.51l-3.396,4.152l-1.511,0.755
					l-3.396,3.396l-2.644,3.775l-3.396,5.662l-5.662,4.906l-2.266,1.511l-1.51,2.265l-4.151,2.644l-1.889,1.887v2.643l3.775,1.511
					l6.039-0.378l-0.377,8.683l2.643-0.377l1.132-2.644l1.889,2.266l-1.889,3.396l6.041-0.377l1.132,0.755l1.133-2.265l0.378-6.417
					l3.773,1.51l2.266-0.755l3.02,2.265l1.133,2.644l4.152,3.396l2.643,3.021l-1.51,1.887l0.377,1.888l-0.377,4.907l1.888,1.887
					l-0.755,2.643l-2.644,3.02l-1.51,3.775l-1.511,7.172l0.379,9.061l-2.267,10.568l-1.132,1.889l-3.775,3.773l-2.265,4.907
					l-2.643,3.02l-1.511,4.53l-4.151,6.794l-5.662,5.662l-5.662,7.173l-2.642,4.529l-2.267,3.02l-9.06,6.04l-3.396,1.132
					l-2.643-1.887h-2.644l0.378-3.021h-3.396l-4.152,5.284l-1.888,0.756l-2.642-1.511l3.773-1.51l1.51-4.53l-0.755-2.265
					l0.755-3.397l-1.51-5.283l0.378-2.266l2.265-0.378l2.643-3.02l0.756,0.755l6.039,1.887l1.133-1.132l0.377-3.02l1.51-1.134
					l0.379-2.643l2.265-3.021v-2.265l2.265-6.04l-0.377-1.51l3.774-3.774l-1.132-3.021v-2.643l-1.889-0.755l-5.285,2.643h-1.887
					l-2.643,1.51l-1.133,1.511l-4.907,1.132l-4.907-0.377l-1.51-3.021l0.378-3.021l-1.51-2.265v-2.644l-2.267-0.377l-4.528-4.529
					h-2.266l-2.643-2.266l-4.529,0.377l-3.021-3.02l0.755-3.397l-1.888-2.265v-2.642l-2.643-3.775l-0.755-4.152l-1.51-4.151
					l-1.134-3.774l-1.888-4.53l-2.642-3.396l-4.152-1.51l-0.755,0.755l-7.928-4.53l-6.794,1.132l-1.133-0.377l-10.191,3.397
					l-3.775,3.774l-0.377,1.888l3.774,0.377l0.378,3.774l-0.378,2.643l-3.774,3.774l-5.662,11.702l1.133,1.51l-0.377,1.888
					l-5.285,2.265l-3.396,3.02l-4.152-0.755l-4.151-3.02l-2.644-0.755l-2.643,1.132l-3.02-0.755l-3.397-2.643l-2.643-0.377
					l-7.173,4.529l-0.755,1.888l-6.039,1.889l-4.529,0.377l-3.397,1.888h-3.773l-6.04-1.51h-4.151l-3.396-2.644l-0.756-3.02
					l-4.529-0.755l-3.021-3.021h-3.396l-5.284-1.888l-5.662,1.888l-1.888,1.132l-3.397,0.377l-6.039-2.265l-2.266-1.887
					l-1.132-7.928l-4.53-0.755l-5.284-2.642l-4.152-0.755l-6.417-3.397l-1.51,3.021l-1.888,0.755l-2.644,3.773l-0.755,3.775
					l1.511,3.397l1.51,1.132l-1.132,4.529l-5.662,3.397l-1.511-1.51l-4.151-0.377l-2.644-1.132l-4.906,1.132l-3.021-1.132
					l-1.51-1.888l-0.756-3.396l-7.161-0.367l-1.132-1.887l-1.888,1.132l-1.889-1.888l-0.755,1.888h-2.643l-7.173,4.53l-4.151,1.51
					l-2.265,1.51v1.889l-4.907,2.642h-4.152l-1.51,2.644L656.054,448.063"/>
			</g>
			<g id="selection_70">
				<path fill="#EDEDED" stroke="#FFFFFF" stroke-width="0.5" stroke-linejoin="round" d="M52.092,625.101v9.06H31.331v17.364
					l-3.775,1.51l-2.265,1.888l-0.377,3.396l0.377,7.928H0.378L0,669.642l0.378-4.15l7.55-0.378l6.039,0.378l1.133-3.021l2.642-3.02
					l1.133-7.55l1.51-2.266l3.021-1.51l1.51-3.02l3.774-2.644l2.265-8.682l2.265-0.378l2.266-3.774l-0.378-1.888l3.02-0.755
					l4.152,1.132h3.397l1.888-1.51l3.774-0.377v-3.775h0.755v2.646"/>
			</g>
			<g id="selection_71">
				<path fill="#EDEDED" stroke="#FFFFFF" stroke-width="0.5" stroke-linejoin="round" d="M399.747,612.266l5.663,0.756l1.51,3.02
					h4.529l2.265,4.152v1.888l3.021,1.51l0.756,2.266l3.773,2.643l1.133,2.643l0.756,6.039l3.396,5.285l0.755,1.51h1.888
					l0.377,1.889h1.511l0.378,1.51l6.039,7.927l15.854,2.266l0.755-0.755l2.643,4.906l-4.151,13.589l-18.874,6.419l-17.364,2.642
					l-6.416,3.021l-3.774,4.907l-0.755,1.888l-3.021,1.133l-1.887-1.889h-2.266l-5.662-0.377l-1.887-0.755h-6.041l-1.51,0.755
					l-3.02-1.51l-1.512,1.132l-0.377,4.53l-2.265,1.887l-0.378-2.265l-2.643-4.529l-3.396-3.021l-3.396-5.284l-0.756-2.644
					l-2.265-4.528l-4.151-3.397l-3.021-1.888l-3.02-5.284l-0.756-3.774l0.756-3.397l-0.756-2.642l-4.529-7.929l-2.266-1.887
					l-2.265-0.755l-2.265-3.397l-0.379-3.396l-3.773-5.662l-1.889-3.396l-4.15-6.039l-2.643-4.152l-3.397-0.755l1.133-2.644
					l1.132-6.039l6.418,1.133l3.02-2.266l1.888-2.643l4.152-0.755l1.133-2.644l2.265-1.133l-6.416-7.549l12.455-3.397l1.133-1.133
					l7.928,1.511l10.568,6.418l4.907,4.15l11.702,9.438l10.568,0.755h1.134"/>
			</g>
			<g id="selection_72">
				<path fill="#EDEDED" stroke="#FFFFFF" stroke-width="0.5" stroke-linejoin="round" d="M399.747,612.266l5.663,0.756l1.51,3.02
					h4.529l2.265,4.152v1.888l3.021,1.51l0.756,2.266l3.773,2.643l1.133,2.643l0.756,6.039l3.396,5.285l0.755,1.51h1.888
					l0.377,1.889h1.511l0.378,1.51l6.039,7.927l15.854,2.266l0.755-0.755l2.643,4.906l-4.151,13.589l-18.874,6.419l-17.364,2.642
					l-6.416,3.021l-3.774,4.907l-0.755,1.888l-3.021,1.133l-1.887-1.889h-2.266l-5.662-0.377l-1.887-0.755h-6.041l-1.51,0.755
					l-3.02-1.51l-1.512,1.132l-0.377,4.53l-2.265,1.887l-0.378-2.265l-2.643-4.529l-3.396-3.021l-3.396-5.284l-0.756-2.644
					l-2.265-4.528l-4.151-3.397l-3.021-1.888l-3.02-5.284l-0.756-3.774l0.756-3.397l-0.756-2.642l-4.529-7.929l-2.266-1.887
					l-2.265-0.755l-2.265-3.397l-0.379-3.396l-3.773-5.662l-1.889-3.396l-4.15-6.039l-2.643-4.152l-3.397-0.755l1.133-2.644
					l1.132-6.039l6.418,1.133l3.02-2.266l1.888-2.643l4.152-0.755l1.133-2.644l2.265-1.133l-6.416-7.549l12.455-3.397l1.133-1.133
					l7.928,1.511l10.568,6.418l4.907,4.15l11.702,9.438l10.568,0.755h1.134"/>
			</g>
			<g id="selection_73">
				<path class="has-project" fill="#EDEDED" stroke="#FFFFFF" stroke-width="0.5" stroke-linejoin="round" d="M234.036,475.997l3.396,3.396v2.266
					l4.53,3.02l-0.755,2.644l4.529,2.642l2.643-1.51l1.132,4.152l-1.51,2.265l-0.377,2.266l1.132,2.266l2.643,2.265l-1.888,2.644
					l-1.51,0.377l0.378,3.396l-1.133,1.133l-4.907,0.755l1.51-3.774l-2.265-0.755l-4.152-4.152l-2.642,3.775l-4.907-3.397
					l-2.266-3.02l1.888-1.134l-1.51-2.643l1.888-0.377l-2.643-2.265l1.132-5.285h-1.887l0.377-2.266l-1.51-6.417l0.378-0.755
					l4.152-1.888L234.036,475.997"/>
			</g>
			<g id="selection_74">
				<path class="has-project" fill="#EDEDED" stroke="#FFFFFF" stroke-width="0.5" stroke-linejoin="round" d="M248.757,448.44l-2.642,6.418
					l-2.266,0.377l-1.887-1.889h-6.04l-1.132,2.267l-2.643,1.51l-7.172,1.51l-0.378,1.889h-6.039l-3.775-1.889l-1.887-4.151
					l0.755-1.511l1.132-2.643l3.775-0.377l1.887-1.511l0.755-1.888l2.643-2.265l1.51-0.378l1.888,1.133l1.888-1.888l2.265,2.265
					l-0.378,1.51l5.662-1.51l6.417-0.377l2.266,1.887L248.757,448.44"/>
			</g>
			<g id="selection_75">
				<path fill="#EDEDED" stroke="#FFFFFF" stroke-width="0.5" stroke-linejoin="round" d="M210.632,472.222l-5.284,3.021
					l-0.378,3.396l-1.887,0.756l0.377,2.266h-3.397l-1.887-1.511l-1.133,1.511l-3.02,0.377l-1.888-0.755l1.133-0.755l-0.755-5.285
					l-1.511-0.755l1.888-2.266l5.285,0.756l3.02-1.888l6.039-0.378l0.756-1.51h1.132L210.632,472.222"/>
			</g>
			<g id="selection_76">
				<path fill="#EDEDED" stroke="#FFFFFF" stroke-width="0.5" stroke-linejoin="round" d="M210.632,373.323l-0.377-3.397
					l1.132-3.396l1.133,0.755L210.632,373.323"/>
				<path fill="#EDEDED" stroke="#FFFFFF" stroke-width="0.5" stroke-linejoin="round" d="M226.864,355.204l-1.51,1.51l0.378,3.775
					l-3.775,3.774l-1.132-2.265v-3.396l2.643-3.397L226.864,355.204"/>
				<path fill="#EDEDED" stroke="#FFFFFF" stroke-width="0.5" stroke-linejoin="round" d="M258.95,248.756l-3.021-0.377l-3.775,1.51
					l-2.265-2.265l-2.265,0.755l-0.755,3.775l-2.265,0.755v1.887h-2.266l0.378,4.152l-3.02,4.907l2.642,4.907l-3.397,4.152
					l-1.51,4.53l-3.396,3.02l-1.888,0.755l-1.133,1.888h-2.265l-2.265,3.397l-2.643,0.755l-0.755,3.775l-3.774,1.132l1.132,2.643
					l-3.02,1.887l-1.133,1.887l0.755,2.265l-0.755,3.774l-1.51,4.152l0.755,11.324l2.265,1.888l1.888-0.377l1.888,2.642l3.397,3.775
					l1.132,3.775l-3.02,4.529l-1.133,3.775l-5.284,3.02l-4.152,3.397l-0.755,1.51l0.377,2.642l-1.132,4.907l0.755,3.775
					l-1.133,2.642v2.265l-1.132,4.152l-1.888,5.662l-8.305,0.755l-3.02,3.397l0.755,3.396l-1.133,1.51l-2.265-0.377l-3.02,1.133
					l-2.643-0.755l0.378-4.528l-2.266-3.775l1.133-1.51l0.755-3.775l-3.02-3.396l-4.152-9.438l-0.378-3.02l-1.51-1.889l-1.132-4.151
					l-0.378-7.172l1.133,0.377l1.51,1.51l1.133-4.53l-0.756-3.775l1.511-3.397l3.396-3.02l0.755-4.53l-1.887-7.172l2.265-0.377
					l1.51-4.152l-4.529-4.907l0.755-7.55l-1.133-4.152v-4.152l0.755-1.132l-1.51-3.775l1.133-4.53l3.02-4.907l4.152-1.887
					l4.152,1.132l1.132-2.265l-0.377-4.53l-2.643-1.51l2.643-5.284l2.265-5.663l1.133-7.927l-0.755-4.53l4.152-1.132l1.887-1.51
					l-0.377-3.02l6.039-9.06l0.378-1.51l-1.888-4.53l2.643-3.397l1.51-4.152l3.397-3.775l3.774,2.265l1.51-3.774v-5.663l1.133-0.377
					l4.529,1.132l5.662,2.265l1.511-2.265l-1.511-1.132l2.266-3.397v-2.643l-1.511-2.265h3.397l1.888,2.265l6.795,6.417l4.907,2.265
					l5.284,7.549l-0.755,1.133l-0.378,7.172l1.888,0.377l-0.755,4.152l2.265,5.662l-1.887,5.285l0.377,4.53l0.755,0.755
					L258.95,248.756"/>
			</g>
			<g id="selection_77">
				<path fill="#EDEDED" stroke="#FFFFFF" stroke-width="0.5" stroke-linejoin="round" d="M373.325,551.869l-3.774,4.152
					l-2.266,0.378l-1.133,3.773l0.756,3.021l-0.756,3.021v3.774l-1.51,2.643l-1.888,0.755l-12.079,7.172l-12.079,7.928l-3.021-0.377
					l-3.774-2.644l1.134-1.51l-0.379-3.775l0.379-1.887l4.151-4.152l-0.756-1.51l-3.021-1.51l-0.377-4.53l-1.133-2.643l0.756-2.643
					l1.887,0.377l1.133-2.265l1.888-0.755l-0.755-1.51l0.755-3.021l4.907,1.511l4.906-2.266l3.397,1.888h3.774l4.152-1.133
					l4.151-2.265h5.285l4.528-1.132L373.325,551.869"/>
			</g>
			<g id="selection_78">
				<path fill="#EDEDED" stroke="#FFFFFF" stroke-width="0.5" stroke-linejoin="round" d="M553.381,526.578l-3.396,1.511
					l-3.021-1.133l-2.643,0.755l-1.889,3.021l0.378,1.888l8.305-0.378l0.755,1.133l4.53-1.51l2.265,2.643l2.643,0.755l2.644-1.51
					l6.039-0.756l1.133,3.775v3.02l3.02-0.377l3.021,1.51l0.755,7.172l1.511,1.511l-1.511,1.51l-1.51-1.51h-2.266l-3.396,1.133
					v-1.133h-3.397l-9.059,5.661l-1.888-3.396l0.755-6.417h-1.889v-3.021l-2.642-1.133l-1.511,0.755l-2.643,3.397l0.377,1.888
					l-4.906,1.132l-1.511,3.397l-1.888-1.51l-5.662,2.643l-1.887-1.51l0.377-2.644l3.397-4.906l-1.889-4.529l0.378-2.266
					l-2.643-0.378l-2.266-1.888l0.756-1.888l1.888-1.132l4.529,0.377l1.133-2.266l1.51-0.755l-1.51-2.265h3.773l-0.378-3.021
					l1.512-1.888l1.887,1.132l4.53-3.02l1.887,2.265l-2.265,2.644l1.888,1.888L553.381,526.578"/>
			</g>
			<g id="selection_79">
				<path fill="#EDEDED" stroke="#FFFFFF" stroke-width="0.5" stroke-linejoin="round" d="M525.448,549.982l-4.907-1.889
					l-1.133,2.644l-4.907,1.132l-1.887,6.04l-4.152,2.643l-4.53,1.511l-0.377,2.642l-4.907,2.266l-1.888-2.266h-2.643l-1.888-1.132
					l-0.755-7.927h-4.907l-1.888-2.644l-3.02-1.51l-1.889-2.644l-3.02-1.51h-3.397l-1.133-0.755l-4.529-1.51l-1.133-1.888
					l-4.528-0.379l-1.511,1.511l-4.151-0.377l-3.021,1.51l-2.266,3.396l-4.907,1.134l-0.755-4.53l0.378-8.305l-1.133-1.888
					l-3.773-1.133l1.887-1.888l0.377-3.021l-3.02-0.377l-1.51-3.396l1.132-5.285l1.511,1.51l3.021,0.378l0.755,1.132l6.039-1.887
					l-0.755-2.643l-3.021-2.644l-1.888-4.907h-4.151l-3.396,4.907l-0.755-2.265l2.265-2.266l2.643-1.133l5.284-1.132l4.907,3.397
					l2.265,3.773l1.889,1.889l2.643-0.757l6.417,0.757l-0.378-5.285l2.644-2.266l3.02-0.378l1.888-3.773l2.644-1.134l5.662,4.152
					h2.642l0.378,2.644l1.511,1.133l-0.756,3.773l2.644,1.511h5.284l1.133-0.756l3.02,2.266l4.152,9.813l9.438,7.172l9.438,5.662
					h1.51l4.529,2.644L525.448,549.982"/>
			</g>
			<g id="selection_80">
				<path fill="#EDEDED" stroke="#FFFFFF" stroke-width="0.5" stroke-linejoin="round" d="M179.302,582.067v5.662l-4.53,2.643
					l-4.152,4.529l0.378,4.906l-1.888,3.021l-2.265,1.132l-3.02-13.589l-4.53-3.396l-0.755-3.021l-3.02-2.643l-1.51-4.152v-1.888
					l4.529-4.906l1.133-3.775l-1.133-4.906l0.755-4.152l-0.755-0.755l2.266-3.397l3.396-2.265l3.397-1.132l3.397,1.132l1.51,3.774
					l3.775-2.643l0.377,1.51l-3.774,4.152l0.755,3.396l2.265,2.266l0.755,3.02l-3.397,5.285l-3.02,2.643l0.377,2.643l3.775,2.643
					l2.265-0.378L179.302,582.067"/>
			</g>
			<g id="selection_81">
				<path fill="#EDEDED" stroke="#FFFFFF" stroke-width="0.5" stroke-linejoin="round" d="M368.04,516.009l6.039,0.755l1.888-1.132
					l4.152,3.774l1.887,3.396l-1.132,1.889l0.755,2.642l3.773,1.133l3.021,2.644l0.378,0.377l-1.51-1.132l-1.133,3.02l-2.266,0.378
					l1.51,4.529l0.379,3.396l-0.756,3.774l2.266,1.51v2.267l1.132,2.265l-3.021,1.51l-1.51-2.643l-1.133,0.755l-6.794-1.132
					l-2.644,1.887l-0.754-1.132l-4.529,1.132h-5.285l-4.152,2.265l-4.152,1.134h-3.773l-3.396-1.889l-4.907,2.267l-4.907-1.512
					l-0.755,3.021l0.755,1.51l-1.888,0.755l-1.132,2.266l-1.889-0.377l-0.377-3.021l2.266-3.02l-0.756-1.889l-3.396,2.644
					l-5.662-1.511l-5.662,4.529l-5.661,1.133l-2.644-1.133l-2.265-2.642l-4.152-2.267l-4.529-0.377l-1.133,4.529l-4.907,1.133
					l-3.397-1.888l-0.755-2.265l-6.794-1.134l1.132-1.51h-4.907l1.133-1.887l-1.888-1.133l-1.132-2.266l1.132-2.265l-3.397-1.888
					l-0.755-1.889h2.643l-1.51-2.265l0.755-3.021l-1.133-1.51l0.755-2.266l-4.529,0.755l0.378-4.151l3.774-3.396l3.397-0.755
					l1.132,1.132l4.907-0.377l4.53-1.889l3.397-0.755l-3.021-2.643l0.755-1.51l4.907,0.378l2.643-0.378l3.021,1.133l2.643-0.378
					l1.133-1.889l5.284-3.396l6.795-2.266l8.682,0.378l1.51-0.756l1.889,2.644l1.888,0.755l3.021-0.378l0.754,2.265l1.888,1.512
					l1.888-1.134l1.889,1.511l8.305,2.265l6.417-1.51l5.284,1.133l4.529-1.888L368.04,516.009"/>
				<path fill="#EDEDED" stroke="#FFFFFF" stroke-width="0.5" stroke-linejoin="round" d="M283.108,512.234l-0.377,1.133l2.265,3.02
					l4.529,1.889l-1.51,2.265l-3.774-0.755l-4.53,0.755l-1.51,2.265l-3.02,1.889l-2.643,3.02l-1.888-4.907l1.888-1.888v-2.642
					l1.888-1.133l-1.888-2.644l1.888-2.265l4.152-1.133l1.51,1.511L283.108,512.234"/>
			</g>
			<g id="selection_82">
				<path fill="#EDEDED" stroke="#FFFFFF" stroke-width="0.5" stroke-linejoin="round" d="M347.279,466.938h-4.152l-1.51,1.51
					l-6.417,2.643h-3.021l-2.643,2.266l-1.133-0.378l-2.266,2.265l1.133,4.53l2.266,3.02l1.133,0.378l3.773-1.133l2.644,0.378
					l-1.133,3.021l-3.397,0.377l-2.642-0.756l-2.267,2.644h-2.265l-5.283,3.775l-2.644-1.512l0.755-3.396l-0.378-1.511l-3.774-2.266
					l-2.643-0.377l3.775-3.021l3.396-1.888l-3.021-2.266l-4.528,1.133l-2.644-1.888l-0.377-1.51l-1.511-0.378l-1.132-1.888
					l-4.907,1.133l-1.51,4.152l-1.888,2.265l-4.152,1.511l0.755,3.773l-1.888-1.51l-4.151,1.888l-3.397-1.888l4.907-6.795
					l-0.378-2.266l1.51-0.755l4.152,1.511l0.378-4.529l-1.888-1.133l-0.377-2.643l-2.266-1.888l0.378-2.643l-2.643-3.397
					l-3.02-0.377l-4.907-3.021l-4.53,0.757l-1.132,1.132l-2.265,0.755l-0.755,1.888l-4.53,0.755l-3.397,1.889l-1.887-2.267
					l-2.643,0.378l-6.04-1.51l-2.265,1.132l-0.755-1.51l-3.774-2.642l2.642-6.418l0.755-1.133l-0.377-3.396l2.643-3.775l4.152-4.529
					l1.887-0.377l0.755-4.152l-3.02-4.907l-0.377-1.888l2.265-0.755l2.642-3.021l5.663-0.378h4.151l7.55,1.888l1.133,1.133h5.662
					l3.774,1.132l2.265-1.132l1.133,2.265l5.284-0.755l2.266-1.132l2.642-4.53l4.907-0.755h3.397l1.51-2.266l2.266,0.756l1.51-0.756
					l3.774-0.377l4.152,6.04l-1.511,1.133l0.756,3.396l3.02,1.51l1.888-0.377l1.889,1.51l0.377,5.285l1.888,1.889l1.132-1.134
					l4.53,2.266l5.284-1.888l1.51,3.02l2.266,1.887l1.51-1.51l4.151,2.265h1.511l3.774,2.644l1.511-0.377l0.377,3.773l-2.643,1.889
					l0.755,1.888l-0.755,2.265l1.132,0.377l0.756,2.644l-1.511,4.151l-5.284-0.378l-3.774,3.021L347.279,466.938"/>
			</g>
			<g id="selection_83">
				<path fill="#EDEDED" stroke="#FFFFFF" stroke-width="0.5" stroke-linejoin="round" d="M553.003,509.97l-0.377,1.888
					l-4.152,3.774l3.774,2.644l3.773,1.132l1.134-3.397l1.888,2.644l1.887,0.378l2.644,2.265l3.396,0.755l-4.907,3.397l-1.51-0.378
					l-2.643,2.265l-2.644-1.132l-1.887,0.377l-1.888,0.378l-1.889-1.888l2.266-2.644l-1.888-2.265l-4.529,3.02l-1.888-1.132
					l-1.511,1.889l0.378,3.02h-3.773l1.51,2.265l-1.51,0.756l-1.134,2.265l-4.528-0.377l-1.889,1.132l-0.755,1.888l2.266,1.889
					l2.643,0.377l-0.378,2.266l1.888,4.529l-3.396,4.907l-0.377,2.643l-4.152-1.51h-3.396l0.377-4.53l-4.529-2.643h-1.51
					l-9.438-5.662l-9.438-7.172l-4.152-9.814l-3.02-2.265l-1.134,0.755h-5.283l-2.644-1.51l0.755-3.774l-1.51-1.133l-0.378-2.644
					h-2.642l-5.662-4.151l-2.644,1.133l-1.888,3.773l-3.021,0.379l-2.643,2.265l0.378,5.285l-6.417-0.756v-31.708l15.477-4.907
					l1.511,0.378l14.722,10.191l0.755,1.888l5.284,5.662l7.55-1.133l7.927,0.756l3.021-1.511l3.775,3.774l1.887,3.396l1.888-0.755
					l-0.755,8.305h3.021l1.511,7.173l7.549-0.378l0.755,3.396l3.397,1.132v-1.887l3.02-4.152l6.418-3.773l2.265-1.888
					L553.003,509.97"/>
			</g>
			<g id="selection_84">
				<path fill="#EDEDED" stroke="#FFFFFF" stroke-width="0.5" stroke-linejoin="round" d="M553.003,509.97l-0.377,1.888
					l-4.152,3.774l3.774,2.644l3.773,1.132l1.134-3.397l1.888,2.644l1.887,0.378l2.644,2.265l3.396,0.755l-4.907,3.397l-1.51-0.378
					l-2.643,2.265l-2.644-1.132l-1.887,0.377l-1.888,0.378l-1.889-1.888l2.266-2.644l-1.888-2.265l-4.529,3.02l-1.888-1.132
					l-1.511,1.889l0.378,3.02h-3.773l1.51,2.265l-1.51,0.756l-1.134,2.265l-4.528-0.377l-1.889,1.132l-0.755,1.888l2.266,1.889
					l2.643,0.377l-0.378,2.266l1.888,4.529l-3.396,4.907l-0.377,2.643l-4.152-1.51h-3.396l0.377-4.53l-4.529-2.643h-1.51
					l-9.438-5.662l-9.438-7.172l-4.152-9.814l-3.02-2.265l-1.134,0.755h-5.283l-2.644-1.51l0.755-3.774l-1.51-1.133l-0.378-2.644
					h-2.642l-5.662-4.151l-2.644,1.133l-1.888,3.773l-3.021,0.379l-2.643,2.265l0.378,5.285l-6.417-0.756v-31.708l15.477-4.907
					l1.511,0.378l14.722,10.191l0.755,1.888l5.284,5.662l7.55-1.133l7.927,0.756l3.021-1.511l3.775,3.774l1.887,3.396l1.888-0.755
					l-0.755,8.305h3.021l1.511,7.173l7.549-0.378l0.755,3.396l3.397,1.132v-1.887l3.02-4.152l6.418-3.773l2.265-1.888
					L553.003,509.97"/>
			</g>
		</g>
	</g>
</g>
<g class="logo">
	<g class="cities">
		<rect x="213.334" y="456.049" fill="#231F20" width="2.146" height="2.146"/>
		<rect x="240.513" y="510.784" fill="#231F20" width="2.146" height="2.145"/>
		<rect x="225.791" y="462.09" fill="#231F20" width="2.146" height="2.146"/>
		<rect x="226.924" y="507.009" fill="#231F20" width="2.146" height="2.146"/>
		<rect x="221.262" y="494.931" fill="#231F20" width="2.146" height="2.146"/>
		<rect x="196.725" y="437.554" fill="#231F20" width="2.146" height="2.146"/>
		<rect x="257.499" y="364.701" fill="#231F20" width="2.146" height="2.146"/>
		<rect x="387.352" y="513.049" fill="#231F20" width="2.146" height="2.146"/>
	</g>
	<g class="logo-text">
		<polygon fill="#231F20" points="279.762,505.116 279.762,504.046 285.466,504.046 285.466,505.116 283.103,505.116 
			283.103,513.899 282.126,513.899 282.126,505.116 		"/>
		<path fill="#231F20" d="M291.703,509.279v4.62h-0.951v-4.634c0-1.205-0.761-1.812-1.609-1.812c-0.841,0-1.603,0.607-1.603,1.812
			v4.634h-0.95v-9.854h0.95v3.281c0.33-0.593,1.01-0.89,1.603-0.89C290.363,506.438,291.703,507.145,291.703,509.279z"/>
		<path fill="#231F20" d="M297.488,509.267c0-1.205-0.754-1.812-1.603-1.812c-0.849,0-1.603,0.607-1.603,1.812v0.271h3.206V509.267z
			 M297.453,511.616h0.97c-0.161,1.818-1.4,2.425-2.538,2.425c-1.212,0-2.554-0.707-2.554-2.841v-1.921
			c0-2.136,1.341-2.842,2.554-2.842c1.213,0,2.552,0.706,2.552,2.842v1.226h-4.155v0.708c0,1.212,0.754,1.812,1.603,1.812
			C296.632,513.023,297.299,512.56,297.453,511.616"/>
		<path fill="#231F20" d="M281.573,522.008v7.712h1.886c1.045,0,1.88-0.773,1.88-2.264v-3.185c0-1.489-0.835-2.249-1.88-2.265
			L281.573,522.008L281.573,522.008z M283.459,520.938c1.691,0,2.856,1.266,2.856,3.334v3.185c0,2.068-1.165,3.334-2.856,3.334
			h-2.862v-9.853H283.459"/>
		<path fill="#231F20" d="M291.917,527.229c-1.433,0.112-2.242,0.215-2.687,0.477c-0.479,0.298-0.566,0.62-0.566,1.045
			c0,0.661,0.459,1.171,1.414,1.171c1.025,0,1.839-0.604,1.839-1.75V527.229L291.917,527.229z M288.74,525.752h-0.97
			c0.161-1.816,1.401-2.425,2.538-2.425c1.212,0,2.554,0.708,2.554,2.85v4.613h-0.951v-0.746c-0.417,0.604-1.145,0.888-2.034,0.888
			c-1.11,0-2.161-0.659-2.161-2.155c0-0.729,0.276-1.717,1.414-2.079c0.747-0.242,1.685-0.324,2.781-0.412v-0.126
			c0-1.206-0.753-1.813-1.603-1.813C289.561,524.345,288.894,524.81,288.74,525.752"/>
		<path fill="#231F20" d="M295.926,529.146c0,0.466,0.148,0.633,0.605,0.633h0.998v1.011h-0.998c-1.219,0-1.556-0.491-1.556-1.731
			v-4.519h-0.922v-1.011h0.922v-1.648h0.951v1.648h1.603v1.011h-1.603V529.146z"/>
		<path fill="#231F20" d="M302.888,527.229c-1.427,0.112-2.236,0.215-2.68,0.477c-0.479,0.298-0.573,0.62-0.573,1.045
			c0,0.661,0.458,1.171,1.423,1.171c1.022,0,1.83-0.604,1.83-1.75V527.229z M299.717,525.752h-0.976
			c0.166-1.816,1.408-2.425,2.545-2.425c1.212,0,2.553,0.708,2.553,2.85v4.613h-0.951v-0.746c-0.416,0.604-1.15,0.888-2.033,0.888
			c-1.11,0-2.162-0.659-2.162-2.155c0-0.729,0.276-1.717,1.414-2.079c0.748-0.242,1.686-0.324,2.781-0.412v-0.126
			c0-1.206-0.761-1.813-1.603-1.813C300.539,524.345,299.866,524.81,299.717,525.752"/>
		<polygon fill="#231F20" points="286.678,537.828 287.655,537.828 287.655,547.682 286.693,547.682 286.693,540.111 
			284.584,545.034 283.668,545.034 281.56,540.111 281.56,547.682 280.596,547.682 280.596,537.828 281.573,537.828 
			284.126,543.796 		"/>
		<path fill="#231F20" d="M293.52,544.117c-1.427,0.116-2.236,0.217-2.68,0.479c-0.477,0.3-0.573,0.62-0.573,1.045
			c0,0.659,0.458,1.173,1.423,1.173c1.022,0,1.83-0.607,1.83-1.751V544.117z M290.349,542.644h-0.977
			c0.161-1.817,1.401-2.426,2.539-2.426c1.219,0,2.56,0.708,2.56,2.851v4.612h-0.951v-0.749c-0.417,0.607-1.151,0.892-2.033,0.892
			c-1.118,0-2.162-0.661-2.162-2.156c0-0.728,0.275-1.717,1.414-2.079c0.748-0.245,1.684-0.324,2.781-0.412v-0.129
			c0-1.204-0.76-1.812-1.609-1.812C291.171,541.235,290.497,541.701,290.349,542.644"/>
		<path fill="#231F20" d="M301.838,546.038c0,0.466,0.156,0.633,0.606,0.633h1.004v1.011h-1.004c-1.213,0-1.557-0.49-1.557-1.73
			v-4.521h-0.923v-1.01h0.923v-1.649h0.949v1.649h1.609v1.01h-1.609L301.838,546.038L301.838,546.038z M297.529,546.038
			c0,0.466,0.148,0.633,0.605,0.633h0.998v1.011h-0.998c-1.212,0-1.556-0.49-1.556-1.73v-4.521h-0.922v-1.01h0.922v-1.649h0.951
			v1.649h1.603v1.01h-1.603V546.038"/>
		<path fill="#231F20" d="M308.884,543.047c0-1.204-0.762-1.812-1.609-1.812c-0.842,0-1.604,0.606-1.604,1.812v0.271h3.213V543.047
			L308.884,543.047z M308.843,545.405h0.977c-0.168,1.811-1.407,2.418-2.547,2.418c-1.211,0-2.551-0.708-2.551-2.843v-1.912
			c0-2.143,1.34-2.851,2.551-2.851c1.221,0,2.56,0.708,2.56,2.851v1.219h-4.162v0.706c0,1.212,0.761,1.819,1.603,1.819
			C308.021,546.812,308.694,546.347,308.843,545.405"/>
		<path fill="#231F20" d="M312.433,541.183c0.329-0.593,1.016-0.889,1.609-0.889h0.417v1.011h-0.417
			c-0.85,0-1.609,0.604-1.609,1.817v4.56h-0.943v-7.261h0.943V541.183z"/>
		<path fill="#231F20" d="M319.032,542.543c-0.115-0.842-0.619-1.308-1.428-1.308c-0.707,0-1.227,0.391-1.227,1.059
			c0,0.599,0.372,0.869,0.896,1.011l1.225,0.337c0.99,0.269,1.67,0.812,1.67,2.154c0,1.437-0.97,2.027-2.296,2.027
			c-1.368,0-2.519-0.708-2.62-2.466h0.971c0.092,1.029,0.773,1.454,1.649,1.454c0.909,0,1.326-0.411,1.34-1.043
			c0-0.466-0.194-0.875-0.917-1.069l-1.271-0.354c-0.709-0.18-1.61-0.721-1.61-2.012c0-1.342,1.004-2.116,2.203-2.116
			c1.313,0,2.29,0.708,2.392,2.324L319.032,542.543L319.032,542.543z"/>
	</g>
	<rect x="261.274" y="334.88" fill="#231F20" width="2.146" height="2.146"/>
</g>
</svg>
